<svg xmlns="http://www.w3.org/2000/svg" viewBox="0 0 1119 423" width="1119" height="423" preserveAspectRatio="xMidYMid meet" style="width: 100%; height: 100%; transform: translate3d(0px, 0px, 0px); content-visibility: visible;"><defs><clipPath id="__lottie_element_116"><rect width="1119" height="423" x="0" y="0"></rect></clipPath><clipPath id="__lottie_element_118"><path d="M0,0 L329,0 L329,245 L0,245z"></path></clipPath><clipPath id="__lottie_element_131"><path d="M0,0 L778,0 L778,347 L0,347z"></path></clipPath><clipPath id="__lottie_element_135"><path d="M0,0 L778,0 L778,347 L0,347z"></path></clipPath><clipPath id="__lottie_element_136"><path fill="#ffffff" clip-rule="nonzero"></path></clipPath><filter id="__lottie_element_143"><feColorMatrix type="matrix" color-interpolation-filters="sRGB" values="0 0 0 0 0.3490196168422699 0 0 0 0 0.4156862795352936 0 0 0 0 0.501960813999176 0 0 0 1 0"></feColorMatrix></filter><filter id="__lottie_element_146"><feColorMatrix type="matrix" color-interpolation-filters="sRGB" values="0 0 0 0 0.3490196168422699 0 0 0 0 0.4156862795352936 0 0 0 0 0.501960813999176 0 0 0 1 0"></feColorMatrix></filter></defs><g clip-path="url(#__lottie_element_116)"><g clip-path="url(#__lottie_element_131)" transform="matrix(1,0,0,1,165.5,38)" opacity="1" style="display: block;"><g transform="matrix(1,0,0,1,0,0)" opacity="1" style="display: block;"><g opacity="1" transform="matrix(1,0,0,1,0,0)"><g opacity="1" transform="matrix(1,0,0,1,389,189.5)"><path fill="rgb(68,84,106)" fill-opacity="1" d=" M-389,-157.5 C-389,-157.5 389,-157.5 389,-157.5 C389,-157.5 389,133.5 389,133.5 C389,146.7550048828125 378.2550048828125,157.5 365,157.5 C365,157.5 -365,157.5 -365,157.5 C-378.2550048828125,157.5 -389,146.7550048828125 -389,133.5 C-389,133.5 -389,-157.5 -389,-157.5z"></path></g><g opacity="1" transform="matrix(1,0,0,1,135.5,189.5)"><path fill="rgb(107,127,153)" fill-opacity="1" d=" M-135.5,-157.5 C-135.5,-157.5 135.5,-157.5 135.5,-157.5 C135.5,-157.5 135.5,157.5 135.5,157.5 C135.5,157.5 -111.5,157.5 -111.5,157.5 C-124.75499725341797,157.5 -135.5,146.7550048828125 -135.5,133.5 C-135.5,133.5 -135.5,-157.5 -135.5,-157.5z"></path></g><g opacity="1" transform="matrix(1,0,0,1,389,16)"><path fill="rgb(45,56,70)" fill-opacity="1" d=" M-389,8 C-389,-5.255000114440918 -378.2550048828125,-16 -365,-16 C-365,-16 365,-16 365,-16 C378.2550048828125,-16 389,-5.255000114440918 389,8 C389,8 389,16 389,16 C389,16 -389,16 -389,16 C-389,16 -389,8 -389,8z"></path></g></g></g><g transform="matrix(1,0,0,1,2.343994140625,4.5619964599609375)" opacity="1" style="display: block;"><g opacity="1" transform="matrix(1,0,0,1,0,0)"><g opacity="1" transform="matrix(1,0,0,1,66,64)"><path fill="rgb(35,146,223)" fill-opacity="1" d=" M-38,-16 C-38,-16 38,-16 38,-16 C40.20899963378906,-16 42,-14.208999633789062 42,-12 C42,-12 42,12 42,12 C42,14.208999633789062 40.20899963378906,16 38,16 C38,16 -38,16 -38,16 C-40.20899963378906,16 -42,14.208999633789062 -42,12 C-42,12 -42,-12 -42,-12 C-42,-14.208999633789062 -40.20899963378906,-16 -38,-16z"></path></g><g opacity="1" transform="matrix(1,0,0,1,55.5629997253418,63.59199905395508)"><path fill="rgb(235,247,255)" fill-opacity="1" d=" M-9.508000373840332,1.1679999828338623 C-9.508000373840332,1.1679999828338623 -10.531000137329102,1.1679999828338623 -10.531000137329102,1.1679999828338623 C-10.531000137329102,1.1679999828338623 -10.531000137329102,5.4079999923706055 -10.531000137329102,5.4079999923706055 C-10.531000137329102,5.4079999923706055 -13.156000137329102,5.4079999923706055 -13.156000137329102,5.4079999923706055 C-13.156000137329102,5.4079999923706055 -13.156000137329102,-5.679999828338623 -13.156000137329102,-5.679999828338623 C-13.156000137329102,-5.679999828338623 -9.52299976348877,-5.679999828338623 -9.52299976348877,-5.679999828338623 C-8.008000373840332,-5.679999828338623 -6.873000144958496,-5.4019999504089355 -6.116000175476074,-4.8480000495910645 C-5.3480000495910645,-4.293000221252441 -4.964000225067139,-3.444999933242798 -4.964000225067139,-2.303999900817871 C-4.964000225067139,-1.5889999866485596 -5.133999824523926,-0.9919999837875366 -5.474999904632568,-0.5120000243186951 C-5.815999984741211,-0.0430000014603138 -6.355999946594238,0.3569999933242798 -7.0920000076293945,0.6880000233650208 C-7.0920000076293945,0.6880000233650208 -4.275000095367432,5.4079999923706055 -4.275000095367432,5.4079999923706055 C-4.275000095367432,5.4079999923706055 -7.236000061035156,5.4079999923706055 -7.236000061035156,5.4079999923706055 C-7.236000061035156,5.4079999923706055 -9.508000373840332,1.1679999828338623 -9.508000373840332,1.1679999828338623z M-10.531000137329102,-0.6399999856948853 C-10.531000137329102,-0.6399999856948853 -9.428000450134277,-0.6399999856948853 -9.428000450134277,-0.6399999856948853 C-8.842000007629395,-0.6399999856948853 -8.404000282287598,-0.7730000019073486 -8.116000175476074,-1.0399999618530273 C-7.816999912261963,-1.3070000410079956 -7.666999816894531,-1.7280000448226929 -7.666999816894531,-2.303999900817871 C-7.666999816894531,-2.8369998931884766 -7.828000068664551,-3.2269999980926514 -8.14799976348877,-3.4719998836517334 C-8.456999778747559,-3.7170000076293945 -8.937000274658203,-3.8399999141693115 -9.588000297546387,-3.8399999141693115 C-9.588000297546387,-3.8399999141693115 -10.531000137329102,-3.8399999141693115 -10.531000137329102,-3.8399999141693115 C-10.531000137329102,-3.8399999141693115 -10.531000137329102,-0.6399999856948853 -10.531000137329102,-0.6399999856948853z M3.8399999141693115,5.4079999923706055 C3.8399999141693115,5.4079999923706055 1.6480000019073486,5.4079999923706055 1.6480000019073486,5.4079999923706055 C1.6480000019073486,5.4079999923706055 1.5360000133514404,4.335999965667725 1.5360000133514404,4.335999965667725 C0.9169999957084656,5.23199987411499 0.05900000035762787,5.679999828338623 -1.0399999618530273,5.679999828338623 C-1.819000005722046,5.679999828338623 -2.4110000133514404,5.445000171661377 -2.815999984741211,4.97599983215332 C-3.2109999656677246,4.506999969482422 -3.4089999198913574,3.8510000705718994 -3.4089999198913574,3.007999897003174 C-3.4089999198913574,3.007999897003174 -3.4089999198913574,-3.0880000591278076 -3.4089999198913574,-3.0880000591278076 C-3.4089999198913574,-3.0880000591278076 -0.8809999823570251,-3.0880000591278076 -0.8809999823570251,-3.0880000591278076 C-0.8809999823570251,-3.0880000591278076 -0.8809999823570251,2.687999963760376 -0.8809999823570251,2.687999963760376 C-0.8809999823570251,3.1040000915527344 -0.8169999718666077,3.3970000743865967 -0.6890000104904175,3.568000078201294 C-0.5509999990463257,3.7279999256134033 -0.34200000762939453,3.808000087738037 -0.06400000303983688,3.808000087738037 C0.4699999988079071,3.808000087738037 0.9279999732971191,3.4769999980926514 1.312000036239624,2.815999984741211 C1.312000036239624,2.815999984741211 1.312000036239624,-3.0880000591278076 1.312000036239624,-3.0880000591278076 C1.312000036239624,-3.0880000591278076 3.8399999141693115,-3.0880000591278076 3.8399999141693115,-3.0880000591278076 C3.8399999141693115,-3.0880000591278076 3.8399999141693115,5.4079999923706055 3.8399999141693115,5.4079999923706055z M10.803000450134277,-3.359999895095825 C11.538999557495117,-3.359999895095825 12.114999771118164,-3.135999917984009 12.531000137329102,-2.687999963760376 C12.946999549865723,-2.240000009536743 13.156000137329102,-1.6100000143051147 13.156000137329102,-0.800000011920929 C13.156000137329102,-0.800000011920929 13.156000137329102,5.4079999923706055 13.156000137329102,5.4079999923706055 C13.156000137329102,5.4079999923706055 10.628000259399414,5.4079999923706055 10.628000259399414,5.4079999923706055 C10.628000259399414,5.4079999923706055 10.628000259399414,-0.36800000071525574 10.628000259399414,-0.36800000071525574 C10.628000259399414,-0.7950000166893005 10.557999610900879,-1.0880000591278076 10.418999671936035,-1.2480000257492065 C10.291000366210938,-1.4190000295639038 10.093999862670898,-1.503999948501587 9.82699966430664,-1.503999948501587 C9.3149995803833,-1.503999948501587 8.824000358581543,-1.1360000371932983 8.354999542236328,-0.4000000059604645 C8.354999542236328,-0.4000000059604645 8.354999542236328,5.4079999923706055 8.354999542236328,5.4079999923706055 C8.354999542236328,5.4079999923706055 5.827000141143799,5.4079999923706055 5.827000141143799,5.4079999923706055 C5.827000141143799,5.4079999923706055 5.827000141143799,-3.0880000591278076 5.827000141143799,-3.0880000591278076 C5.827000141143799,-3.0880000591278076 8.03600025177002,-3.0880000591278076 8.03600025177002,-3.0880000591278076 C8.03600025177002,-3.0880000591278076 8.211999893188477,-2.0799999237060547 8.211999893188477,-2.0799999237060547 C8.574999809265137,-2.50600004196167 8.96399974822998,-2.8269999027252197 9.380000114440918,-3.0399999618530273 C9.807000160217285,-3.253000020980835 10.281000137329102,-3.359999895095825 10.803000450134277,-3.359999895095825z"></path></g><g opacity="1" transform="matrix(1,0,0,1,86.46499633789062,63.856998443603516)"><path fill="rgb(235,247,255)" fill-opacity="1" d=" M4.723999977111816,-0.8960000276565552 C5.466000080108643,-0.5289999842643738 5.466000080108643,0.5289999842643738 4.723999977111816,0.8960000276565552 C4.723999977111816,0.8960000276565552 -4.0229997634887695,5.223999977111816 -4.0229997634887695,5.223999977111816 C-4.686999797821045,5.552999973297119 -5.465000152587891,5.070000171661377 -5.465000152587891,4.328000068664551 C-5.465000152587891,4.328000068664551 -5.465000152587891,-4.328000068664551 -5.465000152587891,-4.328000068664551 C-5.465000152587891,-5.068999767303467 -4.686999797821045,-5.552999973297119 -4.0229997634887695,-5.223999977111816 C-4.0229997634887695,-5.223999977111816 4.723999977111816,-0.8960000276565552 4.723999977111816,-0.8960000276565552z"></path></g></g></g><g transform="matrix(-1.190000057220459,0,0,1.190000057220459,254.5550079345703,95.9699935913086)" opacity="1" style="display: block;"><g opacity="0" transform="matrix(1,0,0,1,26.05500030517578,169.70399475097656)"><path fill="rgb(255,254,255)" fill-opacity="1" d=" M21.624000549316406,3.490999937057495 C21.624000549316406,3.490999937057495 -21.624000549316406,3.490999937057495 -21.624000549316406,3.490999937057495 C-23.54800033569336,3.490999937057495 -25.108999252319336,1.9249999523162842 -25.108999252319336,0.0010000000474974513 C-25.108999252319336,-1.9290000200271606 -23.54800033569336,-3.490000009536743 -21.624000549316406,-3.490000009536743 C-21.624000549316406,-3.490000009536743 21.624000549316406,-3.490000009536743 21.624000549316406,-3.490000009536743 C23.54800033569336,-3.490000009536743 25.108999252319336,-1.9290000200271606 25.108999252319336,0.0010000000474974513 C25.108999252319336,1.9249999523162842 23.54800033569336,3.490999937057495 21.624000549316406,3.490999937057495z"></path></g><g opacity="0" transform="matrix(1,0,0,1,101.2750015258789,169.70399475097656)"><path fill="rgb(255,254,255)" fill-opacity="1" d=" M34.28900146484375,3.490999937057495 C34.28900146484375,3.490999937057495 -34.2859992980957,3.490999937057495 -34.2859992980957,3.490999937057495 C-36.21099853515625,3.490999937057495 -37.770999908447266,1.9249999523162842 -37.770999908447266,0.0010000000474974513 C-37.770999908447266,-1.9290000200271606 -36.21099853515625,-3.490000009536743 -34.2859992980957,-3.490000009536743 C-34.2859992980957,-3.490000009536743 34.28900146484375,-3.490000009536743 34.28900146484375,-3.490000009536743 C36.2130012512207,-3.490000009536743 37.770999908447266,-1.9290000200271606 37.770999908447266,0.0010000000474974513 C37.770999908447266,1.9249999523162842 36.2130012512207,3.490999937057495 34.28900146484375,3.490999937057495z"></path></g><g opacity="0" transform="matrix(1,0,0,1,61.625999450683594,151.0989990234375)"><path fill="rgb(255,254,255)" fill-opacity="1" d=" M32.625,3.490000009536743 C32.625,3.490000009536743 -32.625,3.490000009536743 -32.625,3.490000009536743 C-34.54999923706055,3.490000009536743 -36.10900115966797,1.9299999475479126 -36.10900115966797,-0.0010000000474974513 C-36.10900115966797,-1.9240000247955322 -34.54999923706055,-3.490000009536743 -32.625,-3.490000009536743 C-32.625,-3.490000009536743 32.625,-3.490000009536743 32.625,-3.490000009536743 C34.54899978637695,-3.490000009536743 36.10900115966797,-1.9240000247955322 36.10900115966797,-0.0010000000474974513 C36.10900115966797,1.9299999475479126 34.54899978637695,3.490000009536743 32.625,3.490000009536743z"></path></g><g opacity="0" transform="matrix(1,0,0,1,91.11199951171875,132.77499389648438)"><path fill="rgb(255,254,255)" fill-opacity="1" d=" M27.35700035095215,3.486999988555908 C27.35700035095215,3.486999988555908 -27.356000900268555,3.486999988555908 -27.356000900268555,3.486999988555908 C-29.280000686645508,3.486999988555908 -30.84000015258789,1.9270000457763672 -30.84000015258789,-0.003000000026077032 C-30.84000015258789,-1.9270000457763672 -29.280000686645508,-3.48799991607666 -27.356000900268555,-3.48799991607666 C-27.356000900268555,-3.48799991607666 27.35700035095215,-3.48799991607666 27.35700035095215,-3.48799991607666 C29.2810001373291,-3.48799991607666 30.84000015258789,-1.9270000457763672 30.84000015258789,-0.003000000026077032 C30.84000015258789,1.9270000457763672 29.2810001373291,3.486999988555908 27.35700035095215,3.486999988555908z"></path></g><g opacity="0" transform="matrix(1,0,0,1,135.46099853515625,114.45600128173828)"><path fill="rgb(255,254,255)" fill-opacity="1" d=" M29.663999557495117,3.48799991607666 C29.663999557495117,3.48799991607666 -29.663000106811523,3.48799991607666 -29.663000106811523,3.48799991607666 C-31.586999893188477,3.48799991607666 -33.14699935913086,1.9270000457763672 -33.14699935913086,0.004999999888241291 C-33.14699935913086,-1.9259999990463257 -31.586999893188477,-3.48799991607666 -29.663000106811523,-3.48799991607666 C-29.663000106811523,-3.48799991607666 29.663999557495117,-3.48799991607666 29.663999557495117,-3.48799991607666 C31.589000701904297,-3.48799991607666 33.14799880981445,-1.9259999990463257 33.14799880981445,0.004999999888241291 C33.14799880981445,1.9270000457763672 31.589000701904297,3.48799991607666 29.663999557495117,3.48799991607666z"></path></g><g opacity="0" transform="matrix(1,0,0,1,85.70600128173828,96.13500213623047)"><path fill="rgb(255,254,255)" fill-opacity="1" d=" M21.951000213623047,3.490000009536743 C21.951000213623047,3.490000009536743 -21.950000762939453,3.490000009536743 -21.950000762939453,3.490000009536743 C-23.875,3.490000009536743 -25.43400001525879,1.9240000247955322 -25.43400001525879,0 C-25.43400001525879,-1.930999994277954 -23.875,-3.490000009536743 -21.950000762939453,-3.490000009536743 C-21.950000762939453,-3.490000009536743 21.951000213623047,-3.490000009536743 21.951000213623047,-3.490000009536743 C23.875999450683594,-3.490000009536743 25.43400001525879,-1.930999994277954 25.43400001525879,0 C25.43400001525879,1.9240000247955322 23.875999450683594,3.490000009536743 21.951000213623047,3.490000009536743z"></path></g><g opacity="1" transform="matrix(1,0,0,1,0,0)"><g opacity="1" transform="matrix(1,0,0,1,135.46099853515625,3.9560000896453857)"><path fill="rgb(255,254,255)" fill-opacity="1" d=" M29.663999557495117,3.490000009536743 C29.663999557495117,3.490000009536743 -29.663000106811523,3.490000009536743 -29.663000106811523,3.490000009536743 C-31.586999893188477,3.490000009536743 -33.14699935913086,1.9240000247955322 -33.14699935913086,0.0010000000474974513 C-33.14699935913086,-1.9299999475479126 -31.586999893188477,-3.490000009536743 -29.663000106811523,-3.490000009536743 C-29.663000106811523,-3.490000009536743 29.663999557495117,-3.490000009536743 29.663999557495117,-3.490000009536743 C31.589000701904297,-3.490000009536743 33.14799880981445,-1.9299999475479126 33.14799880981445,0.0010000000474974513 C33.14799880981445,1.9240000247955322 31.589000701904297,3.490000009536743 29.663999557495117,3.490000009536743z"></path></g><g opacity="1" transform="matrix(1,0,0,1,135.46099853515625,40.88199996948242)"><path fill="rgb(255,254,255)" fill-opacity="1" d=" M29.663999557495117,3.486999988555908 C29.663999557495117,3.486999988555908 -29.663000106811523,3.486999988555908 -29.663000106811523,3.486999988555908 C-31.586999893188477,3.486999988555908 -33.14699935913086,1.9270000457763672 -33.14699935913086,-0.003000000026077032 C-33.14699935913086,-1.9270000457763672 -31.586999893188477,-3.486999988555908 -29.663000106811523,-3.486999988555908 C-29.663000106811523,-3.486999988555908 29.663999557495117,-3.486999988555908 29.663999557495117,-3.486999988555908 C31.589000701904297,-3.486999988555908 33.14799880981445,-1.9270000457763672 33.14799880981445,-0.003000000026077032 C33.14799880981445,1.9270000457763672 31.589000701904297,3.486999988555908 29.663999557495117,3.486999988555908z"></path></g><g opacity="1" transform="matrix(1,0,0,1,134.6280059814453,77.5260009765625)"><path fill="rgb(255,254,255)" fill-opacity="1" d=" M29.663000106811523,3.490000009536743 C29.663000106811523,3.490000009536743 -29.663999557495117,3.490000009536743 -29.663999557495117,3.490000009536743 C-31.58799934387207,3.490000009536743 -33.14799880981445,1.9229999780654907 -33.14799880981445,-0.0010000000474974513 C-33.14799880981445,-1.930999994277954 -31.58799934387207,-3.490999937057495 -29.663999557495117,-3.490999937057495 C-29.663999557495117,-3.490999937057495 29.663000106811523,-3.490999937057495 29.663000106811523,-3.490999937057495 C31.58799934387207,-3.490999937057495 33.14699935913086,-1.930999994277954 33.14699935913086,-0.0010000000474974513 C33.14699935913086,1.9229999780654907 31.58799934387207,3.490000009536743 29.663000106811523,3.490000009536743z"></path></g><g opacity="1" transform="matrix(1,0,0,1,85.70600128173828,22.555999755859375)"><path fill="rgb(255,254,255)" fill-opacity="1" d=" M21.951000213623047,3.486999988555908 C21.951000213623047,3.486999988555908 -21.950000762939453,3.486999988555908 -21.950000762939453,3.486999988555908 C-23.875,3.486999988555908 -25.43400001525879,1.9270000457763672 -25.43400001525879,0.003000000026077032 C-25.43400001525879,-1.9270000457763672 -23.875,-3.486999988555908 -21.950000762939453,-3.486999988555908 C-21.950000762939453,-3.486999988555908 21.951000213623047,-3.486999988555908 21.951000213623047,-3.486999988555908 C23.875999450683594,-3.486999988555908 25.43400001525879,-1.9270000457763672 25.43400001525879,0.003000000026077032 C25.43400001525879,1.9270000457763672 23.875999450683594,3.486999988555908 21.951000213623047,3.486999988555908z"></path></g><g opacity="1" transform="matrix(1,0,0,1,85.70600128173828,59.20000076293945)"><path fill="rgb(255,254,255)" fill-opacity="1" d=" M21.951000213623047,3.490000009536743 C21.951000213623047,3.490000009536743 -21.950000762939453,3.490000009536743 -21.950000762939453,3.490000009536743 C-23.875,3.490000009536743 -25.43400001525879,1.930999994277954 -25.43400001525879,0.0010000000474974513 C-25.43400001525879,-1.9229999780654907 -23.875,-3.490000009536743 -21.950000762939453,-3.490000009536743 C-21.950000762939453,-3.490000009536743 21.951000213623047,-3.490000009536743 21.951000213623047,-3.490000009536743 C23.875999450683594,-3.490000009536743 25.43400001525879,-1.9229999780654907 25.43400001525879,0.0010000000474974513 C25.43400001525879,1.930999994277954 23.875999450683594,3.490000009536743 21.951000213623047,3.490000009536743z"></path></g></g></g><g filter="url(#__lottie_element_146)" transform="matrix(1.1699999570846558,0,0,1.1699999570846558,27.895000457763672,75.1550064086914)" opacity="1" style="display: block;"><g opacity="1" transform="matrix(1,0,0,1,6.357999801635742,78.46399688720703)"><path fill="rgb(118,131,151)" fill-opacity="1" d=" M-5.960000038146973,4.859000205993652 C-5.960000038146973,4.859000205993652 5.960000038146973,4.859000205993652 5.960000038146973,4.859000205993652 C5.960000038146973,4.859000205993652 5.960000038146973,-4.859000205993652 5.960000038146973,-4.859000205993652 C5.960000038146973,-4.859000205993652 -5.960000038146973,-4.859000205993652 -5.960000038146973,-4.859000205993652 C-5.960000038146973,-4.859000205993652 -5.960000038146973,4.859000205993652 -5.960000038146973,4.859000205993652z"></path></g><g opacity="1" transform="matrix(1,0,0,1,6,60)"><path fill="rgb(118,131,151)" fill-opacity="1" d=" M-6,5 C-6,5 6,5 6,5 C6,5 6,-5 6,-5 C6,-5 -6,-5 -6,-5 C-6,-5 -6,5 -6,5z"></path></g><g opacity="1" transform="matrix(1,0,0,1,6,42)"><path fill="rgb(118,131,151)" fill-opacity="1" d=" M-6,5 C-6,5 6,5 6,5 C6,5 6,-5 6,-5 C6,-5 -6,-5 -6,-5 C-6,-5 -6,5 -6,5z"></path></g><g opacity="1" transform="matrix(1,0,0,1,6,23)"><path fill="rgb(118,131,151)" fill-opacity="1" d=" M-6,5 C-6,5 6,5 6,5 C6,5 6,-5 6,-5 C6,-5 -6,-5 -6,-5 C-6,-5 -6,5 -6,5z"></path></g><g opacity="1" transform="matrix(1,0,0,1,6.357999801635742,96.8499984741211)"><path fill="rgb(118,131,151)" fill-opacity="1" d=" M-5.960000038146973,4.859000205993652 C-5.960000038146973,4.859000205993652 5.960000038146973,4.859000205993652 5.960000038146973,4.859000205993652 C5.960000038146973,4.859000205993652 5.960000038146973,-4.859000205993652 5.960000038146973,-4.859000205993652 C5.960000038146973,-4.859000205993652 -5.960000038146973,-4.859000205993652 -5.960000038146973,-4.859000205993652 C-5.960000038146973,-4.859000205993652 -5.960000038146973,4.859000205993652 -5.960000038146973,4.859000205993652z"></path></g><g opacity="1" transform="matrix(1,0,0,1,6.357999801635742,115.23999786376953)"><path fill="rgb(118,131,151)" fill-opacity="1" d=" M-5.960000038146973,4.857999801635742 C-5.960000038146973,4.857999801635742 5.960000038146973,4.857999801635742 5.960000038146973,4.857999801635742 C5.960000038146973,4.857999801635742 5.960000038146973,-4.857999801635742 5.960000038146973,-4.857999801635742 C5.960000038146973,-4.857999801635742 -5.960000038146973,-4.857999801635742 -5.960000038146973,-4.857999801635742 C-5.960000038146973,-4.857999801635742 -5.960000038146973,4.857999801635742 -5.960000038146973,4.857999801635742z"></path></g><g opacity="1" transform="matrix(1,0,0,1,6.357999801635742,133.62600708007812)"><path fill="rgb(118,131,151)" fill-opacity="1" d=" M-5.960000038146973,4.859000205993652 C-5.960000038146973,4.859000205993652 5.960000038146973,4.859000205993652 5.960000038146973,4.859000205993652 C5.960000038146973,4.859000205993652 5.960000038146973,-4.857999801635742 5.960000038146973,-4.857999801635742 C5.960000038146973,-4.857999801635742 -5.960000038146973,-4.857999801635742 -5.960000038146973,-4.857999801635742 C-5.960000038146973,-4.857999801635742 -5.960000038146973,4.859000205993652 -5.960000038146973,4.859000205993652z"></path></g><g opacity="1" transform="matrix(1,0,0,1,6.357999801635742,152.0070037841797)"><path fill="rgb(89,106,128)" fill-opacity="1" d=" M-5.960000038146973,4.859000205993652 C-5.960000038146973,4.859000205993652 5.960000038146973,4.859000205993652 5.960000038146973,4.859000205993652 C5.960000038146973,4.859000205993652 5.960000038146973,-4.859000205993652 5.960000038146973,-4.859000205993652 C5.960000038146973,-4.859000205993652 -5.960000038146973,-4.859000205993652 -5.960000038146973,-4.859000205993652 C-5.960000038146973,-4.859000205993652 -5.960000038146973,4.859000205993652 -5.960000038146973,4.859000205993652z"></path></g><g opacity="1" transform="matrix(1,0,0,1,6.432000160217285,169.4510040283203)"><path fill="rgb(89,106,128)" fill-opacity="1" d=" M-5.960000038146973,4.859000205993652 C-5.960000038146973,4.859000205993652 5.960000038146973,4.859000205993652 5.960000038146973,4.859000205993652 C5.960000038146973,4.859000205993652 5.960000038146973,-4.859000205993652 5.960000038146973,-4.859000205993652 C5.960000038146973,-4.859000205993652 -5.960000038146973,-4.859000205993652 -5.960000038146973,-4.859000205993652 C-5.960000038146973,-4.859000205993652 -5.960000038146973,4.859000205993652 -5.960000038146973,4.859000205993652z"></path></g><g opacity="1" transform="matrix(1,0,0,1,6.2870001792907715,188.58799743652344)"><path fill="rgb(89,106,128)" fill-opacity="1" d=" M-5.960000038146973,4.859000205993652 C-5.960000038146973,4.859000205993652 5.960000038146973,4.859000205993652 5.960000038146973,4.859000205993652 C5.960000038146973,4.859000205993652 5.960000038146973,-4.859000205993652 5.960000038146973,-4.859000205993652 C5.960000038146973,-4.859000205993652 -5.960000038146973,-4.859000205993652 -5.960000038146973,-4.859000205993652 C-5.960000038146973,-4.859000205993652 -5.960000038146973,4.859000205993652 -5.960000038146973,4.859000205993652z"></path></g></g><g filter="url(#__lottie_element_143)" transform="matrix(1.3200000524520874,0,0,1.3200000524520874,277.0450134277344,41.00499725341797)" opacity="1" style="display: block;"><g opacity="1" transform="matrix(1,0,0,1,6.357999801635742,78.46399688720703)"><path fill="rgb(118,131,151)" fill-opacity="1" d=" M-5.960000038146973,4.859000205993652 C-5.960000038146973,4.859000205993652 5.960000038146973,4.859000205993652 5.960000038146973,4.859000205993652 C5.960000038146973,4.859000205993652 5.960000038146973,-4.859000205993652 5.960000038146973,-4.859000205993652 C5.960000038146973,-4.859000205993652 -5.960000038146973,-4.859000205993652 -5.960000038146973,-4.859000205993652 C-5.960000038146973,-4.859000205993652 -5.960000038146973,4.859000205993652 -5.960000038146973,4.859000205993652z"></path></g><g opacity="1" transform="matrix(1,0,0,1,6,60)"><path fill="rgb(118,131,151)" fill-opacity="1" d=" M-6,5 C-6,5 6,5 6,5 C6,5 6,-5 6,-5 C6,-5 -6,-5 -6,-5 C-6,-5 -6,5 -6,5z"></path></g><g opacity="1" transform="matrix(1,0,0,1,6,42)"><path fill="rgb(118,131,151)" fill-opacity="1" d=" M-6,5 C-6,5 6,5 6,5 C6,5 6,-5 6,-5 C6,-5 -6,-5 -6,-5 C-6,-5 -6,5 -6,5z"></path></g><g opacity="1" transform="matrix(1,0,0,1,6,23)"><path fill="rgb(118,131,151)" fill-opacity="1" d=" M-6,5 C-6,5 6,5 6,5 C6,5 6,-5 6,-5 C6,-5 -6,-5 -6,-5 C-6,-5 -6,5 -6,5z"></path></g><g opacity="1" transform="matrix(1,0,0,1,6.357999801635742,96.8499984741211)"><path fill="rgb(118,131,151)" fill-opacity="1" d=" M-5.960000038146973,4.859000205993652 C-5.960000038146973,4.859000205993652 5.960000038146973,4.859000205993652 5.960000038146973,4.859000205993652 C5.960000038146973,4.859000205993652 5.960000038146973,-4.859000205993652 5.960000038146973,-4.859000205993652 C5.960000038146973,-4.859000205993652 -5.960000038146973,-4.859000205993652 -5.960000038146973,-4.859000205993652 C-5.960000038146973,-4.859000205993652 -5.960000038146973,4.859000205993652 -5.960000038146973,4.859000205993652z"></path></g><g opacity="1" transform="matrix(1,0,0,1,6.357999801635742,115.23999786376953)"><path fill="rgb(118,131,151)" fill-opacity="1" d=" M-5.960000038146973,4.857999801635742 C-5.960000038146973,4.857999801635742 5.960000038146973,4.857999801635742 5.960000038146973,4.857999801635742 C5.960000038146973,4.857999801635742 5.960000038146973,-4.857999801635742 5.960000038146973,-4.857999801635742 C5.960000038146973,-4.857999801635742 -5.960000038146973,-4.857999801635742 -5.960000038146973,-4.857999801635742 C-5.960000038146973,-4.857999801635742 -5.960000038146973,4.857999801635742 -5.960000038146973,4.857999801635742z"></path></g><g opacity="1" transform="matrix(1,0,0,1,6.357999801635742,133.62600708007812)"><path fill="rgb(118,131,151)" fill-opacity="1" d=" M-5.960000038146973,4.859000205993652 C-5.960000038146973,4.859000205993652 5.960000038146973,4.859000205993652 5.960000038146973,4.859000205993652 C5.960000038146973,4.859000205993652 5.960000038146973,-4.857999801635742 5.960000038146973,-4.857999801635742 C5.960000038146973,-4.857999801635742 -5.960000038146973,-4.857999801635742 -5.960000038146973,-4.857999801635742 C-5.960000038146973,-4.857999801635742 -5.960000038146973,4.859000205993652 -5.960000038146973,4.859000205993652z"></path></g><g opacity="1" transform="matrix(1,0,0,1,6.357999801635742,152.0070037841797)"><path fill="rgb(89,106,128)" fill-opacity="1" d=" M-5.960000038146973,4.859000205993652 C-5.960000038146973,4.859000205993652 5.960000038146973,4.859000205993652 5.960000038146973,4.859000205993652 C5.960000038146973,4.859000205993652 5.960000038146973,-4.859000205993652 5.960000038146973,-4.859000205993652 C5.960000038146973,-4.859000205993652 -5.960000038146973,-4.859000205993652 -5.960000038146973,-4.859000205993652 C-5.960000038146973,-4.859000205993652 -5.960000038146973,4.859000205993652 -5.960000038146973,4.859000205993652z"></path></g><g opacity="1" transform="matrix(1,0,0,1,6.432000160217285,169.4510040283203)"><path fill="rgb(89,106,128)" fill-opacity="1" d=" M-5.960000038146973,4.859000205993652 C-5.960000038146973,4.859000205993652 5.960000038146973,4.859000205993652 5.960000038146973,4.859000205993652 C5.960000038146973,4.859000205993652 5.960000038146973,-4.859000205993652 5.960000038146973,-4.859000205993652 C5.960000038146973,-4.859000205993652 -5.960000038146973,-4.859000205993652 -5.960000038146973,-4.859000205993652 C-5.960000038146973,-4.859000205993652 -5.960000038146973,4.859000205993652 -5.960000038146973,4.859000205993652z"></path></g><g opacity="1" transform="matrix(1,0,0,1,6.2870001792907715,188.58799743652344)"><path fill="rgb(89,106,128)" fill-opacity="1" d=" M-5.960000038146973,4.859000205993652 C-5.960000038146973,4.859000205993652 5.960000038146973,4.859000205993652 5.960000038146973,4.859000205993652 C5.960000038146973,4.859000205993652 5.960000038146973,-4.859000205993652 5.960000038146973,-4.859000205993652 C5.960000038146973,-4.859000205993652 -5.960000038146973,-4.859000205993652 -5.960000038146973,-4.859000205993652 C-5.960000038146973,-4.859000205993652 -5.960000038146973,4.859000205993652 -5.960000038146973,4.859000205993652z"></path></g></g><g clip-path="url(#__lottie_element_135)" style="display: none;"><g clip-path="url(#__lottie_element_136)"><g style="display: none;"><g><path></path></g><g><g><path></path></g><g><path></path></g><g><path></path></g><g><path></path></g><g><path></path></g><g><path></path></g></g><g><g><path></path></g><g><path></path></g><g><path></path></g><g><path></path></g></g><g><g><path></path></g><g><path></path></g><g><path></path></g><g><path></path></g><g><path></path></g><g><path></path></g></g><g><g><path></path></g><g><path></path></g><g><path></path></g><g><path></path></g><g><path></path></g><g><path></path></g></g><g><g><path></path></g><g><path></path></g><g><path></path></g><g><path></path></g></g><g><g><path></path></g><g><path></path></g><g><path></path></g><g><path></path></g></g></g></g></g></g><g transform="matrix(2.0299999713897705,0,0,2.0299999713897705,298.9599914550781,196.94500732421875)" opacity="1" style="display: block;"><g opacity="1" transform="matrix(1,0,0,1,0,0)"><g opacity="1" transform="matrix(1,0,0,1,28.659000396728516,29.839000701904297)"><path fill="rgb(71,81,96)" fill-opacity="1" d=" M-5.1570000648498535,-6.390999794006348 C-5.335999965667725,-6.455999851226807 -5.5289998054504395,-6.4679999351501465 -5.715000152587891,-6.427000045776367 C-5.900000095367432,-6.386000156402588 -6.070000171661377,-6.293000221252441 -6.204999923706055,-6.158999919891357 C-6.340000152587891,-6.025000095367432 -6.432000160217285,-5.855000019073486 -6.473999977111816,-5.669000148773193 C-6.514999866485596,-5.484000205993652 -6.504000186920166,-5.289000034332275 -6.438000202178955,-5.111000061035156 C-6.438000202178955,-5.111000061035156 -2.437999963760376,5.888999938964844 -2.437999963760376,5.888999938964844 C-2.36899995803833,6.079999923706055 -2.24399995803833,6.24399995803833 -2.0789999961853027,6.361999988555908 C-1.9140000343322754,6.479000091552734 -1.718000054359436,6.544000148773193 -1.5140000581741333,6.546999931335449 C-1.312000036239624,6.550000190734863 -1.1139999628067017,6.492000102996826 -0.9449999928474426,6.380000114440918 C-0.7760000228881836,6.267000198364258 -0.6460000276565552,6.10699987411499 -0.5699999928474426,5.919000148773193 C-0.5699999928474426,5.919000148773193 0.8659999966621399,2.328000068664551 0.8659999966621399,2.328000068664551 C0.8659999966621399,2.328000068664551 4.794000148773193,6.255000114440918 4.794000148773193,6.255000114440918 C4.88700008392334,6.349999904632568 4.997000217437744,6.426000118255615 5.11899995803833,6.479000091552734 C5.241000175476074,6.5320000648498535 5.372000217437744,6.559000015258789 5.505000114440918,6.559999942779541 C5.638000011444092,6.560999870300293 5.769999980926514,6.535999774932861 5.89300012588501,6.486000061035156 C6.014999866485596,6.434999942779541 6.126999855041504,6.361000061035156 6.2210001945495605,6.267000198364258 C6.315000057220459,6.172999858856201 6.388999938964844,6.061999797821045 6.440000057220459,5.939000129699707 C6.488999843597412,5.815999984741211 6.514999866485596,5.684000015258789 6.513999938964844,5.551000118255615 C6.513000011444092,5.419000148773193 6.485000133514404,5.288000106811523 6.433000087738037,5.165999889373779 C6.380000114440918,5.044000148773193 6.303999900817871,4.933000087738037 6.208000183105469,4.841000080108643 C6.208000183105469,4.841000080108643 2.2799999713897705,0.9129999876022339 2.2799999713897705,0.9129999876022339 C2.2799999713897705,0.9129999876022339 5.872000217437744,-0.5230000019073486 5.872000217437744,-0.5230000019073486 C6.060999870300293,-0.5979999899864197 6.2220001220703125,-0.7289999723434448 6.334000110626221,-0.8980000019073486 C6.447000026702881,-1.065999984741211 6.505000114440918,-1.2649999856948853 6.501999855041504,-1.468000054359436 C6.498000144958496,-1.6699999570846558 6.434000015258789,-1.8680000305175781 6.315999984741211,-2.0329999923706055 C6.197999954223633,-2.197999954223633 6.0329999923706055,-2.322999954223633 5.8420000076293945,-2.3919999599456787 C5.8420000076293945,-2.3919999599456787 -5.1579999923706055,-6.392000198364258 -5.1579999923706055,-6.392000198364258 C-5.1579999923706055,-6.392000198364258 -5.1570000648498535,-6.390999794006348 -5.1570000648498535,-6.390999794006348z"></path><path stroke-linecap="round" stroke-linejoin="round" fill-opacity="0" stroke="rgb(255,255,255)" stroke-opacity="1" stroke-width="1" d=" M-5.1570000648498535,-6.390999794006348 C-5.335999965667725,-6.455999851226807 -5.5289998054504395,-6.4679999351501465 -5.715000152587891,-6.427000045776367 C-5.900000095367432,-6.386000156402588 -6.070000171661377,-6.293000221252441 -6.204999923706055,-6.158999919891357 C-6.340000152587891,-6.025000095367432 -6.432000160217285,-5.855000019073486 -6.473999977111816,-5.669000148773193 C-6.514999866485596,-5.484000205993652 -6.504000186920166,-5.289000034332275 -6.438000202178955,-5.111000061035156 C-6.438000202178955,-5.111000061035156 -2.437999963760376,5.888999938964844 -2.437999963760376,5.888999938964844 C-2.36899995803833,6.079999923706055 -2.24399995803833,6.24399995803833 -2.0789999961853027,6.361999988555908 C-1.9140000343322754,6.479000091552734 -1.718000054359436,6.544000148773193 -1.5140000581741333,6.546999931335449 C-1.312000036239624,6.550000190734863 -1.1139999628067017,6.492000102996826 -0.9449999928474426,6.380000114440918 C-0.7760000228881836,6.267000198364258 -0.6460000276565552,6.10699987411499 -0.5699999928474426,5.919000148773193 C-0.5699999928474426,5.919000148773193 0.8659999966621399,2.328000068664551 0.8659999966621399,2.328000068664551 C0.8659999966621399,2.328000068664551 4.794000148773193,6.255000114440918 4.794000148773193,6.255000114440918 C4.88700008392334,6.349999904632568 4.997000217437744,6.426000118255615 5.11899995803833,6.479000091552734 C5.241000175476074,6.5320000648498535 5.372000217437744,6.559000015258789 5.505000114440918,6.559999942779541 C5.638000011444092,6.560999870300293 5.769999980926514,6.535999774932861 5.89300012588501,6.486000061035156 C6.014999866485596,6.434999942779541 6.126999855041504,6.361000061035156 6.2210001945495605,6.267000198364258 C6.315000057220459,6.172999858856201 6.388999938964844,6.061999797821045 6.440000057220459,5.939000129699707 C6.488999843597412,5.815999984741211 6.514999866485596,5.684000015258789 6.513999938964844,5.551000118255615 C6.513000011444092,5.419000148773193 6.485000133514404,5.288000106811523 6.433000087738037,5.165999889373779 C6.380000114440918,5.044000148773193 6.303999900817871,4.933000087738037 6.208000183105469,4.841000080108643 C6.208000183105469,4.841000080108643 2.2799999713897705,0.9129999876022339 2.2799999713897705,0.9129999876022339 C2.2799999713897705,0.9129999876022339 5.872000217437744,-0.5230000019073486 5.872000217437744,-0.5230000019073486 C6.060999870300293,-0.5979999899864197 6.2220001220703125,-0.7289999723434448 6.334000110626221,-0.8980000019073486 C6.447000026702881,-1.065999984741211 6.505000114440918,-1.2649999856948853 6.501999855041504,-1.468000054359436 C6.498000144958496,-1.6699999570846558 6.434000015258789,-1.8680000305175781 6.315999984741211,-2.0329999923706055 C6.197999954223633,-2.197999954223633 6.0329999923706055,-2.322999954223633 5.8420000076293945,-2.3919999599456787 C5.8420000076293945,-2.3919999599456787 -5.1579999923706055,-6.392000198364258 -5.1579999923706055,-6.392000198364258 C-5.1579999923706055,-6.392000198364258 -5.1570000648498535,-6.390999794006348 -5.1570000648498535,-6.390999794006348z"></path></g></g><g opacity="1" transform="matrix(1,0,0,1,32.22700119018555,11.642999649047852)"><path fill="rgb(255,254,255)" fill-opacity="1" d="M0 0"></path><path stroke-linecap="round" stroke-linejoin="miter" fill-opacity="0" stroke-miterlimit="10" stroke="rgb(255,254,255)" stroke-opacity="1" stroke-width="2" d="M0 0"></path></g><g opacity="1" transform="matrix(1,0,0,1,22.999000549316406,9.15999984741211)"><path fill="rgb(255,254,255)" fill-opacity="1" d="M0 0"></path><path stroke-linecap="round" stroke-linejoin="miter" fill-opacity="0" stroke-miterlimit="10" stroke="rgb(255,254,255)" stroke-opacity="1" stroke-width="2" d="M0 0"></path></g><g opacity="1" transform="matrix(1,0,0,1,11.673999786376953,11.642999649047852)"><path fill="rgb(255,254,255)" fill-opacity="1" d="M0 0"></path><path stroke-linecap="round" stroke-linejoin="miter" fill-opacity="0" stroke-miterlimit="10" stroke="rgb(255,254,255)" stroke-opacity="1" stroke-width="2" d="M0 0"></path></g><g opacity="1" transform="matrix(1,0,0,1,9.996000289916992,32.0369987487793)"><path fill="rgb(255,254,255)" fill-opacity="1" d="M0 0"></path><path stroke-linecap="round" stroke-linejoin="miter" fill-opacity="0" stroke-miterlimit="10" stroke="rgb(255,254,255)" stroke-opacity="1" stroke-width="2" d="M0 0"></path></g><g opacity="1" transform="matrix(1,0,0,1,9.031999588012695,22.5310001373291)"><path fill="rgb(255,254,255)" fill-opacity="1" d="M0 0"></path><path stroke-linecap="round" stroke-linejoin="miter" fill-opacity="0" stroke-miterlimit="10" stroke="rgb(255,254,255)" stroke-opacity="1" stroke-width="2" d="M0 0"></path></g></g><g clip-path="url(#__lottie_element_118)" style="display: none;"><g style="display: none;"><g><path></path></g></g><g style="display: none;"><g><path></path></g><g><path></path></g><g><path></path></g><g><path></path></g><g><path></path></g><g><g><path></path></g><g><path></path></g><g><path></path></g><g><path></path></g><g><path></path></g><g><path></path></g><g><path></path></g></g><g><g><path></path></g><g><path></path></g><g><path></path><path></path></g><g><path></path></g></g><g><g><path></path></g><g><path></path></g></g></g></g></g></svg>