<svg xmlns="http://www.w3.org/2000/svg" xmlns:xlink="http://www.w3.org/1999/xlink" version="1.1" width="256" height="256" viewBox="0 0 256 256" xml:space="preserve">

<defs>
</defs>
<g style="stroke: none; stroke-width: 0; stroke-dasharray: none; stroke-linecap: butt; stroke-linejoin: miter; stroke-miterlimit: 10; fill: none; fill-rule: nonzero; opacity: 1;" transform="translate(1.4065934065934016 1.4065934065934016) scale(2.81 2.81)" >
	<linearGradient id="SVGID_5" gradientUnits="userSpaceOnUse" gradientTransform="matrix(11.64 0 0 22.55 -32787.6406 31991.9492)"  x1="2820.7554" y1="-1418.4674" x2="2815.7151" y2="-1415.8668">
<stop offset="0%" style="stop-color:rgb(0,160,255);stop-opacity: 1"/>
<stop offset="0.7000000000000001%" style="stop-color:rgb(0,161,255);stop-opacity: 1"/>
<stop offset="26%" style="stop-color:rgb(0,190,255);stop-opacity: 1"/>
<stop offset="51.2%" style="stop-color:rgb(0,210,255);stop-opacity: 1"/>
<stop offset="76%" style="stop-color:rgb(0,223,255);stop-opacity: 1"/>
<stop offset="100%" style="stop-color:rgb(0,227,255);stop-opacity: 1"/>
</linearGradient>
<path d="M 6.207 1.368 C 5.195 2.455 4.613 4.129 4.613 6.304 v 77.365 c 0 2.175 0.582 3.849 1.631 4.899 l 0.274 0.232 L 49.868 45.45 v -0.974 L 6.481 1.136 L 6.207 1.368 z" style="stroke: none; stroke-width: 1; stroke-dasharray: none; stroke-linecap: butt; stroke-linejoin: miter; stroke-miterlimit: 10; fill: url(#SVGID_5); fill-rule: nonzero; opacity: 1;" transform=" matrix(1 0 0 1 0 0) " stroke-linecap="round" />
	<linearGradient id="SVGID_6" gradientUnits="userSpaceOnUse" gradientTransform="matrix(9.145 0 0 7.7 -25085.1445 11207.2998)"  x1="2752.677" y1="-1449.6511" x2="2743.4189" y2="-1449.6511">
<stop offset="0%" style="stop-color:rgb(255,224,0);stop-opacity: 1"/>
<stop offset="40.9%" style="stop-color:rgb(255,189,0);stop-opacity: 1"/>
<stop offset="77.5%" style="stop-color:rgb(255,165,0);stop-opacity: 1"/>
<stop offset="100%" style="stop-color:rgb(255,156,0);stop-opacity: 1"/>
</linearGradient>
<path d="M 64.289 59.956 L 49.83 45.492 V 44.48 l 14.464 -14.464 l 0.312 0.194 l 17.107 9.721 c 4.899 2.761 4.899 7.31 0 10.109 l -17.107 9.721 C 64.601 59.762 64.289 59.956 64.289 59.956 L 64.289 59.956 z" style="stroke: none; stroke-width: 1; stroke-dasharray: none; stroke-linecap: butt; stroke-linejoin: miter; stroke-miterlimit: 10; fill: url(#SVGID_6); fill-rule: nonzero; opacity: 1;" transform=" matrix(1 0 0 1 0 0) " stroke-linecap="round" />
	<linearGradient id="SVGID_7" gradientUnits="userSpaceOnUse" gradientTransform="matrix(15.02 0 0 11.578 -43206.0195 16640.4023)"  x1="2880.3328" y1="-1432.6646" x2="2875.0276" y2="-1425.7897">
<stop offset="0%" style="stop-color:rgb(255,58,68);stop-opacity: 1"/>
<stop offset="100%" style="stop-color:rgb(195,17,98);stop-opacity: 1"/>
</linearGradient>
<path d="M 64.601 59.762 L 49.83 44.986 L 6.207 88.61 c 1.593 1.712 4.274 1.906 7.272 0.232 L 64.601 59.762" style="stroke: none; stroke-width: 1; stroke-dasharray: none; stroke-linecap: butt; stroke-linejoin: miter; stroke-miterlimit: 10; fill: url(#SVGID_7); fill-rule: nonzero; opacity: 1;" transform=" matrix(1 0 0 1 0 0) " stroke-linecap="round" />
	<linearGradient id="SVGID_8" gradientUnits="userSpaceOnUse" gradientTransform="matrix(15.02 0 0 11.572 -43206.0195 16619.9473)"  x1="2876.2422" y1="-1438.3253" x2="2878.6111" y2="-1435.2566">
<stop offset="0%" style="stop-color:rgb(50,160,113);stop-opacity: 1"/>
<stop offset="6.9%" style="stop-color:rgb(45,167,113);stop-opacity: 1"/>
<stop offset="47.599999999999994%" style="stop-color:rgb(21,207,116);stop-opacity: 1"/>
<stop offset="80.10000000000001%" style="stop-color:rgb(6,231,117);stop-opacity: 1"/>
<stop offset="100%" style="stop-color:rgb(0,240,118);stop-opacity: 1"/>
</linearGradient>
<path d="M 64.601 30.215 L 13.479 1.174 C 10.486 -0.538 7.8 -0.306 6.207 1.405 l 43.619 43.581 L 64.601 30.215 L 64.601 30.215 z" style="stroke: none; stroke-width: 1; stroke-dasharray: none; stroke-linecap: butt; stroke-linejoin: miter; stroke-miterlimit: 10; fill: url(#SVGID_8); fill-rule: nonzero; opacity: 1;" transform=" matrix(1 0 0 1 0 0) " stroke-linecap="round" />
	<linearGradient id="SVGID_9" gradientUnits="userSpaceOnUse" x1="61.2578" y1="33.586" x2="-45.0827" y2="139.8129">
<stop offset="0%" style="stop-color:rgb(255,58,68);stop-opacity: 1"/>
<stop offset="100%" style="stop-color:rgb(195,17,98);stop-opacity: 1"/>
</linearGradient>
<line x1="-29.197" y1="29.197499999999998" x2="29.197" y2="-29.197499999999998" style="stroke: none; stroke-width: 1; stroke-dasharray: none; stroke-linecap: butt; stroke-linejoin: miter; stroke-miterlimit: 10; fill: url(#SVGID_9); fill-rule: nonzero; opacity: 1;" transform=" matrix(1 0 0 1 0 0) "/>
</g>
</svg>