<svg width="480" height="272" viewBox="0 0 480 272" fill="none" xmlns="http://www.w3.org/2000/svg">
<mask id="mask0" mask-type="alpha" maskUnits="userSpaceOnUse" x="86" y="32" width="311" height="202">
<path d="M378.992 113.571C418.43 146.722 390.403 255.133 292.686 224.454C243.532 209.022 136.764 280.166 90.926 172.442C64.7419 110.907 160.149 15.1886 238.365 75.3083C265.082 95.8433 293.844 28.9703 311.858 32.5924C348.969 40.0545 363.17 100.271 378.992 113.571Z" fill="#FBB461"/>
</mask>
<g mask="url(#mask0)">
<path opacity="0.2" d="M378.992 115.571C418.43 148.722 390.403 257.133 292.686 226.454C243.532 211.022 136.764 282.166 90.9259 174.442C64.7418 112.907 160.148 17.1886 238.365 77.3083C320.121 140.148 355.489 95.8156 378.992 115.571Z" fill="#FBB461"/>
<path d="M192.946 60.0683C193.19 60.3226 193.378 60.7519 193.623 60.9074C193.808 61.0251 194.005 60.9644 194.15 60.8919L194.372 60.7798C194.42 60.7558 194.398 60.6816 194.345 60.6881C194.176 60.7075 194.008 60.7273 193.84 60.7466C193.801 60.7513 193.761 60.7551 193.717 60.725C193.646 60.6765 193.429 60.3192 193.365 60.2119C193.152 59.8493 193.057 59.8389 192.817 59.6038C192.711 59.4998 192.6 59.3929 192.501 59.374C192.42 59.3587 192.356 59.4027 192.29 59.4388C192.098 59.5461 191.885 59.5777 191.659 59.5617C191.619 59.5587 191.634 59.668 191.677 59.7014C191.834 59.8218 192.025 59.8203 192.197 59.7867C192.451 59.737 192.629 59.7392 192.946 60.0683Z" fill="#C99961"/>
<path d="M178.81 178.233C177.575 179.662 176.564 181.471 176.734 183.368C176.806 184.184 177.095 184.978 177.081 185.797C177.062 186.833 176.563 187.787 176.234 188.768C175.304 191.547 175.734 194.602 176.421 197.453C176.974 199.75 177.872 202.242 179.943 203.304C181.046 203.869 182.328 203.936 183.494 204.349C184.37 204.66 185.166 205.162 185.99 205.597C191.773 208.648 199.187 208.167 204.545 204.393C205.166 203.956 205.773 203.465 206.175 202.813C206.619 202.091 206.779 201.228 207.123 200.452C207.932 198.624 209.682 197.412 210.714 195.704C211.419 194.536 211.765 193.146 211.691 191.776C211.597 190.018 210.844 188.373 210.478 186.653C209.868 183.781 210.263 180.493 208.469 178.194C207.571 177.045 206.252 176.34 204.972 175.666C201.798 173.994 198.394 172.275 194.842 172.642C193.223 172.81 191.668 173.409 190.048 173.548C188.8 173.656 187.544 173.488 186.295 173.565C183.493 173.738 180.602 176.161 178.81 178.233Z" fill="#AF6C47"/>
<path d="M190.946 178.712C190.538 179.083 189.909 179.283 189.622 179.725C189.405 180.06 189.431 180.463 189.463 180.843C189.497 181.254 189.533 181.664 189.567 182.075C189.632 181.466 189.697 180.856 189.762 180.247C189.772 180.157 189.783 180.063 189.837 179.985C189.924 179.859 190.1 179.803 190.256 179.737C190.784 179.517 191.181 179.133 191.564 178.759C191.733 178.593 191.907 178.419 191.969 178.208C192.019 178.037 191.991 177.859 191.972 177.684C191.901 177.033 191.993 176.394 192.169 175.761C191.789 176.233 191.57 176.431 191.534 177.007C191.498 177.619 191.473 178.233 190.946 178.712Z" fill="#C99961"/>
<path d="M187.795 200.695C187.247 200.945 186.402 201.081 186.017 201.38C185.725 201.605 185.76 201.879 185.803 202.135C185.85 202.412 185.897 202.689 185.944 202.966C186.032 202.555 186.119 202.143 186.207 201.732C186.22 201.672 186.235 201.608 186.307 201.556C186.425 201.471 186.661 201.433 186.871 201.389C187.58 201.24 188.114 200.981 188.628 200.728C188.856 200.616 189.09 200.498 189.173 200.356C189.24 200.241 189.203 200.12 189.178 200.002C189.082 199.563 189.206 199.132 189.443 198.704C188.932 199.023 188.638 199.157 188.59 199.545C188.536 199.957 188.504 200.371 187.795 200.695Z" fill="#C99961"/>
<path d="M200.733 200.695C200.185 200.945 199.34 201.081 198.955 201.38C198.663 201.605 198.698 201.879 198.741 202.135C198.788 202.412 198.835 202.689 198.882 202.966C198.97 202.555 199.057 202.143 199.145 201.732C199.158 201.672 199.173 201.608 199.245 201.556C199.363 201.471 199.599 201.433 199.809 201.389C200.518 201.24 201.052 200.981 201.566 200.728C201.794 200.616 202.028 200.498 202.111 200.356C202.178 200.241 202.141 200.12 202.116 200.002C202.02 199.563 202.144 199.132 202.381 198.704C201.87 199.023 201.576 199.157 201.528 199.545C201.474 199.957 201.441 200.371 200.733 200.695Z" fill="#C99961"/>
<path d="M201.426 190.023C201.153 190.148 200.73 190.215 200.537 190.365C200.391 190.478 200.409 190.614 200.431 190.743C200.454 190.881 200.477 191.02 200.5 191.158C200.544 190.952 200.588 190.747 200.631 190.541C200.638 190.511 200.645 190.479 200.682 190.453C200.741 190.411 200.859 190.391 200.963 190.369C201.318 190.294 201.585 190.165 201.842 190.039C201.956 189.983 202.073 189.924 202.115 189.853C202.149 189.796 202.129 189.735 202.117 189.676C202.069 189.457 202.131 189.241 202.25 189.027C201.995 189.186 201.847 189.254 201.823 189.448C201.797 189.654 201.781 189.861 201.426 190.023Z" fill="#C99961"/>
<path d="M204.086 179.842C203.812 179.966 203.389 180.034 203.196 180.183C203.051 180.296 203.068 180.432 203.09 180.561C203.113 180.7 203.123 180.757 203.146 180.896C203.19 180.69 203.248 180.566 203.292 180.36C203.298 180.33 203.305 180.297 203.342 180.271C203.401 180.229 203.571 180.167 203.675 180.144C204.03 180.07 204.245 179.983 204.503 179.857C204.616 179.801 204.733 179.743 204.775 179.672C204.809 179.614 204.79 179.554 204.777 179.495C204.729 179.275 204.753 179.105 204.872 178.892C204.616 179.051 204.606 179.112 204.582 179.306C204.556 179.512 204.44 179.679 204.086 179.842Z" fill="#C99961"/>
<path d="M182.082 183.379C182.057 183.743 182.134 184.139 182.395 184.389C182.562 184.549 182.786 184.631 183.005 184.701C183.383 184.823 183.767 184.925 184.155 185.006C184.652 185.109 185.164 185.179 185.663 185.089C186.216 184.989 186.75 184.673 187.027 184.173C187.302 183.673 187.27 182.986 186.876 182.575C186.637 182.325 185.414 182.317 185.093 182.198C184.308 181.909 184.047 181.697 183.237 182.075C182.515 182.412 182.146 182.574 182.082 183.379Z" fill="#6B481F"/>
<path d="M182.7 191.092C182.211 191.157 181.516 191.132 181.264 191.564C181.089 191.864 181.041 192.226 181.052 192.576C181.061 192.823 181.098 193.073 181.202 193.295C181.527 193.991 182.146 193.569 182.7 194.092C182.907 194.288 183.318 195.204 183.596 195.245C183.791 195.274 183.983 195.191 184.162 195.107C184.686 194.859 185.249 194.519 185.391 193.948C185.495 193.525 185.338 193.085 185.173 192.683C184.67 191.47 184.076 190.91 182.7 191.092Z" fill="#6B481F"/>
<path d="M191.2 200.592C191.255 199.773 192.548 199.572 193.2 199.092C193.853 198.614 193.46 197.638 194.262 197.584C194.97 197.537 195.78 197.673 196.177 198.273C196.598 198.91 196.265 199.916 195.552 200.162C195.179 200.29 194.726 200.249 194.45 200.533C194.151 200.841 194.23 201.345 194.13 201.766C193.971 202.437 193.267 202.912 192.594 202.835C191.679 202.729 191.139 201.5 191.2 200.592Z" fill="#6B481F"/>
<path d="M191.2 188.592C191.036 188.988 190.896 190.068 191.269 190.265C191.64 190.461 192.1 190.356 192.497 190.491C192.891 190.624 193.17 190.974 193.49 191.244C193.811 191.515 194.274 191.714 194.631 191.499C194.924 191.322 195.024 190.935 195.022 190.587C195.021 190.37 194.99 190.149 194.902 189.951C194.773 189.659 193.962 189.769 193.7 189.592C193.025 189.136 191.653 187.504 191.2 188.592Z" fill="#6B481F"/>
<path d="M203.527 190.592C203.218 191.06 203.122 191.635 202.997 192.185C202.859 192.789 203.064 193.057 202.607 193.465C202.437 193.617 201.818 194.103 201.731 194.317C201.681 194.442 201.679 194.582 201.7 194.715C201.806 195.384 202.478 195.855 203.141 195.879C203.805 195.904 204.437 195.568 204.943 195.128C205.586 194.568 205.341 193.285 205.607 192.465C205.763 191.983 206.327 191.083 206.2 190.592C205.888 189.387 204.349 189.353 203.527 190.592Z" fill="#6B481F"/>
<path d="M198.2 179.092C197.93 179.088 197.384 179.067 197.267 179.338C197.162 179.583 197.137 179.823 197.11 180.092C197.074 180.455 196.812 180.481 196.729 180.834C196.681 181.037 196.68 181.285 196.824 181.421C197.01 181.595 197.287 181.469 197.528 181.434C197.964 181.369 198.398 181.641 198.836 181.585C199.201 181.537 199.531 181.241 199.65 180.854C199.769 180.467 199.671 180.009 199.408 179.723C199.28 179.584 199.321 179.739 199.2 179.592C198.853 179.17 198.758 179.101 198.2 179.092Z" fill="#6B481F"/>
<path d="M201.996 184.482C201.937 184.906 201.79 185.501 202.2 185.592C202.608 185.684 202.782 185.568 203.2 185.592C203.615 185.618 204.011 186.023 204.39 186.2C204.768 186.376 205.266 186.446 205.557 186.143C205.795 185.895 205.792 185.495 205.702 185.159C205.646 184.949 205.561 184.744 205.426 184.576C205.227 184.329 204.55 184.942 204.2 184.592C203.2 183.592 202.156 183.311 201.996 184.482Z" fill="#6B481F"/>
<path d="M182.858 188.465C183.499 188.257 184.089 187.773 184.262 187.11C184.308 187.618 184.338 188.183 184.027 188.582C183.912 188.73 183.758 188.842 183.603 188.946C183.015 189.342 182.322 189.664 181.627 189.545C181.035 189.443 180.475 189.026 179.887 189.155C179.789 189.177 179.69 189.214 179.59 189.204C179.489 189.193 179.385 189.114 179.393 189.011C179.398 188.939 179.453 188.884 179.508 188.839C180.355 188.152 181.852 188.791 182.858 188.465Z" fill="#C99961"/>
<path d="M161.053 189.843C160.774 189.838 160.445 189.42 160.329 189.694C160.213 189.967 160.264 190.278 160.231 190.587C160.197 190.999 159.996 191.34 159.906 191.717C159.847 191.923 159.843 192.198 159.98 192.372C160.172 192.582 160.426 192.448 160.678 192.383C161.126 192.321 161.54 192.637 161.96 192.575C162.324 192.512 162.664 192.208 162.783 191.796C162.901 191.385 162.825 190.868 162.551 190.554C162.413 190.414 162.276 190.275 162.138 190.135C161.838 189.648 161.584 189.851 161.053 189.843Z" fill="#6B481F"/>
<path d="M187.475 122.248C187.465 122.876 186.992 123.797 186.24 123.797C185.488 123.797 183.848 124.565 183.878 122.627C183.909 120.652 185.452 120.644 185.452 120.644C185.452 120.644 187.505 120.31 187.475 122.248Z" fill="#6B481F"/>
<path d="M215.028 113.338C215.008 114.638 214.267 116.546 213.102 116.552C211.936 116.558 208.846 117.347 208.909 113.338C208.917 111.129 211.545 111.005 211.545 111.005C211.545 111.005 215.091 109.328 215.028 113.338Z" fill="#6B481F"/>
<path d="M178.989 147.069C178.959 149.05 177.813 149.189 177.49 149.184C176.572 149.17 175.702 149.014 175.733 147.07C175.748 146.064 177.49 145.71 177.49 145.71C177.49 145.71 179.02 145.125 178.989 147.069Z" fill="#6B481F"/>
<path d="M140.162 175.627C140.141 177.015 139.339 177.112 139.112 177.109C138.469 177.098 137.86 176.989 137.881 175.628C137.892 174.923 139.112 174.675 139.112 174.675C139.112 174.675 140.184 174.265 140.162 175.627Z" fill="#6B481F"/>
<path d="M194.971 176.26C194.957 177.138 194.156 177.195 193.929 177.191C193.286 177.181 192.676 177.109 192.69 176.247C192.697 175.801 193.915 175.651 193.915 175.651C193.915 175.651 194.984 175.398 194.971 176.26Z" fill="#6B481F"/>
<path d="M215.704 162.556C217.11 163.057 216.013 165.582 214.373 165.557C212.733 165.531 212.739 165.169 212.766 163.459C212.61 161.057 215.704 162.556 215.704 162.556Z" fill="#6B481F"/>
<path d="M153.593 106.6C153.571 107.975 153.19 108.307 151.945 108.287C150.7 108.268 150.704 107.982 150.725 106.633C150.747 105.257 151.945 105.688 151.945 105.688C151.945 105.688 153.614 105.25 153.593 106.6Z" fill="#6B481F"/>
<path d="M297.236 112.236C297.236 112.236 294.648 118.997 294.581 119.421C290.387 130.578 285.029 139.951 280.947 150.952C277.89 159.029 268.944 175.576 276.912 184.285C280.928 187.743 285.847 185.177 287.944 182.076C293.121 174.333 295.029 161.726 298.732 153.403L310.669 126.784L324.19 120.402C324.056 120.424 297.37 112.214 297.236 112.236Z" fill="#FFB0A0"/>
<path d="M299.715 54.5952C299.715 54.5952 291.882 56.7671 298.512 72.4279L306.742 55.7383L299.715 54.5952Z" fill="#2D3846"/>
<path d="M299.715 48.7394C299.715 48.7394 362.015 37.1939 333.894 76.6315L332.179 75.717L330.465 56.7413L299.715 48.7394Z" fill="#2D3846"/>
<path d="M342.01 109.465C342.01 109.465 336.272 107.367 334.001 107.268L322.945 109.045C322.945 109.045 320.477 109.835 318.009 111.809L324.031 126.123L342.01 109.465Z" fill="#FFB0A0"/>
<path d="M306.95 83.5745C306.259 86.8322 303.199 88.9053 299.941 88.2143C296.683 87.5233 294.61 84.463 295.301 81.2053C295.992 77.9476 299.053 75.8745 302.31 76.5656C305.568 77.2566 307.641 80.4156 306.95 83.5745Z" fill="#FFB0A0"/>
<path d="M318.599 93.8422V111.751L337.849 111.118L331.151 84.6422L318.599 93.8422Z" fill="#FFB0A0"/>
<path d="M300.731 62.3518C299.349 63.7339 298.559 65.6095 298.362 67.5838C297.769 73.3095 296.486 83.4774 299.053 89.3018C302.409 96.9031 309.077 102.04 319.146 99.1769C319.146 99.1769 331.432 96.5082 332.518 80.7133C334.196 55.5403 312.478 50.4069 300.731 62.3518Z" fill="#FFB0A0"/>
<path d="M304.877 81.9943L304.383 83.9686C304.383 84.2648 304.581 84.5609 304.877 84.6596L306.358 84.7584" stroke="#1D2D32" stroke-width="0.5813" stroke-miterlimit="10" stroke-linecap="round" stroke-linejoin="round"/>
<path d="M313.761 67.188C313.761 67.188 308.628 66.497 308.43 68.7675C308.43 68.7675 308.332 70.347 312.774 70.8406C317.216 71.3342 318.993 71.2355 319.487 69.7547C320.079 68.3727 316.13 67.3855 313.761 67.188Z" fill="#1D2D32"/>
<path d="M298.756 68.965C298.756 68.965 302.113 67.188 303.1 68.8662C303.1 68.8662 303.791 70.0509 300.829 71.4329C298.658 72.5188 297.769 72.3214 297.276 71.5316C296.683 70.7419 297.473 69.5573 298.756 68.965Z" fill="#1D2D32"/>
<path d="M314.255 87.8215H304.877C304.877 87.8215 305.864 91.0792 309.122 90.9805C312.972 90.9805 314.255 87.8215 314.255 87.8215Z" fill="white"/>
<path d="M316.723 75.7884C316.723 75.7884 313.366 74.2089 310.898 75.7884" stroke="#1D2D32" stroke-width="0.93" stroke-miterlimit="10" stroke-linecap="round" stroke-linejoin="round"/>
<path d="M298.954 75.7884C298.954 75.7884 301.323 74.2089 303.001 75.7884" stroke="#1D2D32" stroke-width="0.7801" stroke-miterlimit="10" stroke-linecap="round" stroke-linejoin="round"/>
<path d="M319.191 98.8773L327.384 96.2119L320.079 106.479L319.191 98.8773Z" fill="#FFB0A0"/>
<path d="M340.021 81.9971C339.33 85.2547 336.171 87.4265 332.814 86.7355C329.556 86.0445 327.385 82.8855 328.076 79.5291C328.767 76.2714 331.926 74.0996 335.282 74.7906C338.54 75.4817 340.712 78.7394 340.021 81.9971Z" fill="#FFB0A0"/>
<path d="M336.961 79.3318C336.961 79.3318 332.222 78.2459 331.827 83.3792" stroke="#1D2D32" stroke-width="0.5813" stroke-miterlimit="10" stroke-linecap="round" stroke-linejoin="round"/>
<path d="M330.579 93.2157L318.574 99.3282V108.893L330.579 93.2157Z" fill="#F4ABA2"/>
<path d="M278.444 156.076L287.444 182.576C287.444 182.576 288.944 181.076 289.944 178.576C290.496 177.195 291.444 175.076 291.444 175.076L278.444 156.076Z" fill="#F4ABA2"/>
<path d="M326.956 79.4301C326.956 79.4301 330.843 63.7694 323.184 59.6542C323.184 59.6542 294.533 66.5431 292.018 54.5404C289.504 42.4233 302.878 39.6811 318.726 45.5938C328.921 49.3976 333.701 59.5399 333.701 59.5399L334.008 74.0282L326.956 79.4301Z" fill="#2D3846"/>
<path d="M295.076 125.227C296.721 122.229 298.229 119.361 301.383 117.536C304.4 115.841 307.062 114.375 311.717 113.103C314.575 112.323 314.575 112.323 318.005 111.75C326.006 116.335 331.722 114.037 331.722 114.037C338.009 112.323 339.199 108.632 340.295 108.893C346.583 110.037 356.712 116.072 359.728 118.028C364.116 120.114 365.444 121.457 365.444 121.457L366.587 127.173C366.587 127.173 364.457 133.44 363.772 142.044C363.635 157.296 363.497 178.675 363.772 185.063C363.909 187.67 365.417 202.14 365.417 211.656C365.554 217.001 365.28 217.844 365.417 223.188C365.554 224.883 365.417 231.19 365.417 231.19C365.417 231.19 345.408 232.922 324.934 232.922C304.46 232.922 292.824 231.19 291.681 231.19V218.044C291.681 218.044 291.922 210.092 292.333 202.922C293.156 189.756 293.842 176.589 294.664 163.423C294.664 162.771 294.801 161.989 294.801 161.337V160.424C294.664 162.249 294.527 154.181 294.664 155.745C294.324 148.315 294.664 146.6 294.664 142.028" fill="#40BF9C"/>
<path d="M352.708 135.675C349.267 145.833 349.545 157.225 347.191 169.033C346.241 173.801 346.402 179.573 344.016 184.17C342.713 186.792 343.906 188.824 344.741 191.547C346.924 199.331 356.719 196.499 359.998 190.879C363.036 185.698 363.885 179.901 365.056 174.488C366.837 166.626 368.739 158.544 368.814 150.642C369.071 144.591 370.57 135.302 361.324 133.614L352.708 135.675Z" fill="#FFB0A0"/>
<path d="M370.081 128.586C369.236 125.127 367.427 122.116 364.051 119.85C349.013 110.582 346.515 156 347.92 162.592C347.92 162.592 357.348 169.749 369.845 162.145C369.845 162.145 371.743 149.617 371.444 146.576C371.444 139.52 371.553 134.582 370.081 128.586Z" fill="#2D3846"/>
<path d="M306.583 127.447C306.711 123.888 305.788 120.499 303.156 117.4C291.205 104.392 276.833 148.258 276.392 154.985C276.392 154.985 283.137 163.597 297.231 159.677C297.231 159.677 301.694 149.016 302.234 146.009C303.25 140.341 306.369 133.617 306.583 127.447Z" fill="#2D3846"/>
<path d="M327.721 114.037C320.862 114.609 318.576 111.18 318.576 111.18L314.575 112.323C314.575 112.323 318.576 115.752 324.863 116.895C324.863 116.895 331.15 118.038 336.866 114.609C339.317 113.138 342.582 109.465 342.582 109.465L339.152 108.322C339.152 108.322 334.58 113.466 327.721 114.037Z" fill="#2D3846"/>
<path d="M286.182 168.928L267.813 138.565L258.42 144.092L272.445 178.576C275.372 183.908 280.945 190.076 287.445 182.576C290.965 178.514 287.662 171.264 286.182 168.928Z" fill="#FFB0A0"/>
<path d="M272.618 133.275C272.869 131.894 272.411 130.487 271.451 129.599C270.133 128.444 268.331 128.83 267.615 130.534L266.97 131.843C265.418 130.848 263.364 128.133 265.09 119.176C265.376 117.598 264.524 116.119 263.295 115.591C262.345 115.215 261.332 115.744 260.875 116.578C260.875 116.578 260.759 116.659 260.84 116.776C260.588 115.915 260.023 115.1 259.153 114.84C258.203 114.464 257.19 114.993 256.733 115.827C256.617 115.908 256.581 116.105 256.545 116.303C256.303 115.953 255.944 115.684 255.55 115.613C254.599 115.237 253.587 115.766 253.13 116.6C252.977 116.878 252.825 117.156 252.87 117.47C252.834 117.667 252.834 117.667 252.799 117.864L252.718 117.748C251.767 117.372 250.755 117.901 250.298 118.735C250.146 119.013 249.993 119.291 250.038 119.605C249.493 122.052 249.377 124.374 249.414 126.418C249.414 126.418 249.414 126.418 249.495 126.535C249.513 127.557 249.567 128.382 249.702 129.323C250.054 133.563 255.476 137.854 258.42 144.092L270.095 143.818L272.618 133.275Z" fill="#FFB0A0"/>
<path d="M258.387 97.7424C256.117 100.345 254.236 103.599 254.468 107.061C254.56 108.528 255.108 110.003 255.027 111.526C254.941 113.4 254.056 115.145 253.399 116.952C251.605 122.025 252.318 127.606 253.494 132.842C254.402 136.96 255.85 139.444 259.592 141.437C261.576 142.524 264.306 143.387 266.409 144.182C268 144.793 269.166 147.039 270.639 147.883C281.069 153.615 294.571 152.946 304.396 146.182C305.552 145.379 306.651 144.517 307.413 143.356C308.233 142.079 308.543 140.501 309.195 139.045C310.733 135.728 313.911 133.55 315.846 130.473C317.136 128.382 317.805 125.813 317.729 123.35C317.608 120.123 314.229 116.846 313.592 113.729C312.587 108.496 314.271 110.515 311.079 106.244C310.182 105.117 306.753 108.698 303.34 107.589C300.666 106.727 297.225 107.435 296.148 106.832C294.562 105.928 295.464 103.07 293.426 101.748C291.332 100.426 290.9 98.7773 290.696 97.1912C290.028 92.3735 291.188 87.6429 287.639 87.9393C284.719 88.1868 274.355 89.2563 272.066 89.3964C266.975 89.6101 261.704 93.9835 258.387 97.7424Z" fill="#AF6C47"/>
<path d="M275.759 118.289C275.48 118.284 275.151 117.866 275.035 118.14C274.919 118.413 274.97 118.724 274.937 119.033C274.903 119.445 274.702 119.786 274.612 120.163C274.553 120.369 274.549 120.644 274.686 120.818C274.878 121.028 275.132 120.894 275.384 120.829C275.832 120.767 276.246 121.083 276.667 121.021C277.031 120.958 277.371 120.653 277.489 120.242C277.607 119.831 277.531 119.314 277.257 119C277.119 118.86 276.982 118.72 276.844 118.581C276.545 118.094 276.29 118.297 275.759 118.289Z" fill="#6B481F"/>
<path d="M275.639 161.326C275.36 161.322 275.264 161.326 274.944 161.576C274.709 161.759 274.477 161.767 274.444 162.076C274.41 162.488 274.582 162.824 274.492 163.201C274.433 163.406 274.429 163.681 274.566 163.856C274.758 164.065 275.012 163.931 275.264 163.866C275.712 163.805 276.126 164.121 276.546 164.059C276.911 163.995 277.251 163.691 277.369 163.28C277.487 162.869 277.411 162.352 277.137 162.038C276.999 161.898 276.862 161.758 276.724 161.618C276.424 161.132 276.17 161.334 275.639 161.326Z" fill="#6B481F"/>
<path d="M289.066 116.632C288.507 116.623 287.846 115.994 287.616 116.403C287.386 116.812 287.491 117.278 287.428 117.742C287.362 118.36 286.963 118.87 286.787 119.435C286.67 119.743 286.664 120.156 286.939 120.418C287.325 120.734 287.831 120.535 288.336 120.44C289.231 120.351 290.062 120.828 290.902 120.738C291.629 120.646 292.307 120.192 292.54 119.577C292.773 118.961 292.618 118.184 292.066 117.711C291.79 117.5 291.514 117.29 291.238 117.079C290.635 116.347 290.127 116.649 289.066 116.632Z" fill="#6B481F"/>
<path d="M298.503 118.347C297.956 118.948 297.114 119.239 296.685 119.964C296.378 120.508 296.427 121.179 296.417 121.788C296.467 122.46 296.516 123.131 296.505 123.801C296.58 122.827 296.716 121.793 296.791 120.819C296.793 120.697 296.796 120.514 296.917 120.394C297.04 120.213 297.28 120.095 297.462 119.976C298.184 119.622 298.731 119.021 299.279 118.42C299.521 118.18 299.765 117.879 299.831 117.514C299.895 117.21 299.839 116.965 299.844 116.661C299.741 115.562 299.877 114.528 300.132 113.496C299.582 114.279 299.279 114.58 299.264 115.555C299.308 116.531 299.232 117.566 298.503 118.347Z" fill="#D5A46B"/>
<path d="M283.612 130.467C282.803 130.92 281.541 131.179 280.96 131.728C280.495 132.186 280.602 132.652 280.593 133.21C280.699 133.77 280.69 134.328 280.796 134.887C280.924 134.052 281.05 133.31 281.177 132.475C281.178 132.382 281.181 132.196 281.297 132.105C281.529 131.923 281.874 131.835 282.104 131.746C283.138 131.483 283.948 130.938 284.756 130.485C285.102 130.305 285.449 130.031 285.568 129.754C285.686 129.57 285.575 129.289 285.578 129.103C285.477 128.265 285.605 127.429 285.961 126.598C285.15 127.236 284.688 127.508 284.676 128.252C284.663 129.089 284.651 129.833 283.612 130.467Z" fill="#D5A46B"/>
<path d="M268.843 105.432C268.055 105.469 267.147 105.212 266.495 105.456C266.026 105.642 265.761 106.139 265.597 106.564C265.332 107.061 265.167 107.485 264.902 107.982C265.367 107.34 265.816 106.786 266.281 106.144C266.382 106.071 266.398 105.983 266.582 105.926C266.766 105.869 267.018 105.915 267.27 105.962C268.11 106.116 268.814 106.063 269.535 105.923C269.887 105.896 270.155 105.855 270.371 105.621C270.572 105.476 270.604 105.3 270.736 105.052C271.05 104.291 271.599 103.664 272.216 103.141C271.395 103.354 271.043 103.38 270.578 104.022C270.281 104.695 269.9 105.353 268.843 105.432Z" fill="#D5A46B"/>
<path d="M305.149 135.68C304.567 135.671 303.769 135.461 303.331 135.553C302.966 135.646 302.961 135.942 302.884 136.236C302.806 136.531 302.8 136.926 302.723 137.221C302.947 136.83 303.172 136.438 303.323 136.046C303.325 135.947 303.398 135.948 303.47 135.95C303.616 135.952 303.834 135.955 304.051 136.057C304.703 136.265 305.287 136.175 305.797 136.183C306.015 136.187 306.306 136.191 306.382 135.995C306.456 135.897 306.458 135.799 306.534 135.603C306.614 135.11 306.84 134.62 307.209 134.33C306.625 134.42 306.334 134.415 306.182 134.808C306.03 135.2 305.877 135.691 305.149 135.68Z" fill="#D5A46B"/>
<path d="M261.772 127.852C261.926 126.956 261.754 125.937 261.675 125.165C261.607 124.609 261.189 124.238 260.817 123.99C260.399 123.619 260.027 123.371 259.608 123C260.119 123.618 260.548 124.206 261.059 124.824C261.105 124.948 261.187 124.979 261.198 125.195C261.209 125.411 261.103 125.689 260.997 125.967C260.645 126.893 260.526 127.695 260.488 128.529C260.428 128.93 260.404 129.239 260.578 129.517C260.67 129.764 260.833 129.826 261.042 130.012C261.705 130.476 262.18 131.187 262.539 131.96C262.531 131.003 262.59 130.601 262.079 129.983C261.534 129.457 261.628 128.963 261.772 127.852Z" fill="#D5A46B"/>
<path d="M293.893 134.165C293.397 134.232 292.895 134.674 292.613 135.418C292.425 135.94 292.371 136.538 292.362 137.062C292.357 137.436 292.395 137.886 292.479 138.262C292.776 139.39 293.625 139.853 294.197 140.686C294.417 140.989 294.59 141.441 294.859 141.52C295.038 141.598 295.266 141.451 295.448 141.305C295.994 140.939 296.588 140.349 296.739 139.377C296.839 138.705 296.716 137.954 296.546 137.277C296.083 135.248 295.294 133.887 293.893 134.165Z" fill="#6B481F"/>
<path d="M304.492 123.286C304.297 123.888 304.471 124.629 304.885 124.905C305.253 125.179 305.766 125.053 306.181 125.261C306.596 125.469 306.867 126.01 307.186 126.418C307.505 126.826 308.012 127.103 308.387 126.84C308.717 126.577 308.818 126.041 308.827 125.503C308.832 125.168 308.791 124.831 308.702 124.561C308.569 124.156 308.342 123.817 308.067 123.544C307.335 122.793 304.982 121.682 304.492 123.286Z" fill="#6B481F"/>
<path d="M259.832 113.163C259.637 113.765 259.811 114.507 260.225 114.782C260.593 115.056 261.106 114.93 261.521 115.138C261.936 115.346 262.206 115.887 262.525 116.295C262.844 116.703 263.351 116.98 263.727 116.717C264.057 116.454 264.158 115.918 264.166 115.381C264.172 115.045 264.13 114.708 264.042 114.438C263.909 114.033 263.682 113.694 263.407 113.421C262.675 112.67 260.322 111.559 259.832 113.163Z" fill="#6B481F"/>
<path d="M279.96 97.967C279.931 99.8416 278.643 100.512 276.322 100.476C274 100.44 274.006 100.045 274.035 98.2199C274.063 96.3947 274.069 96 276.391 96.0362C278.712 96.0724 279.988 96.1417 279.96 97.967Z" fill="#6B481F"/>
<path d="M286.211 109.519C286.264 110.377 285.414 110.045 283.24 110.281C281.001 110.515 280.279 110.43 280.293 109.574C280.306 108.717 281.486 108.931 283.787 108.967C286.088 109.003 286.218 109.103 286.211 109.519Z" fill="#6B481F"/>
<path d="M289.299 142.046C289.363 142.893 289.446 142.532 286.883 142.758C284.242 142.983 283.391 142.897 283.404 142.051C283.417 141.205 283.647 141.378 286.361 141.42C289.075 141.463 289.305 141.636 289.299 142.046Z" fill="#6B481F"/>
<path d="M274.103 132.158C274.048 135.709 273.064 136.565 269.849 136.515C266.635 136.465 266.646 135.728 266.7 132.244C266.756 128.693 269.721 128.373 269.721 128.373C269.721 128.373 274.158 128.674 274.103 132.158Z" fill="#6B481F"/>
<path d="M280.648 199.194C280.626 200.59 281.206 200.896 279.325 200.866C277.444 200.837 277.449 200.547 277.47 199.178C277.492 197.782 279.226 197.665 279.226 197.665C279.226 197.665 280.67 197.824 280.648 199.194Z" fill="#6B481F"/>
<path d="M262.731 180.101C262.709 181.476 262.935 181.775 261.69 181.756C260.444 181.737 260.449 181.451 260.47 180.102C260.478 179.577 261.69 179.157 261.69 179.157C261.69 179.157 262.752 178.751 262.731 180.101Z" fill="#6B481F"/>
<path d="M304.894 104.662C304.872 106.037 304.491 106.369 303.246 106.349C302.001 106.33 302.005 106.045 302.026 104.695C302.048 103.32 303.197 103.196 303.197 103.196C303.197 103.196 304.915 103.312 304.894 104.662Z" fill="#6B481F"/>
<path d="M296.877 97.0472C296.866 97.7002 296.488 97.8545 295.243 97.8351C293.998 97.8157 294 97.6802 294.01 97.0394C294.02 96.3864 295.167 96.337 295.167 96.337C295.167 96.337 296.887 96.4065 296.877 97.0472Z" fill="#6B481F"/>
<path d="M300.308 97.0377C300.297 97.6984 300.066 97.8568 299.307 97.845C298.548 97.8331 298.55 97.696 298.56 97.0479C298.571 96.3872 299.27 96.33 299.27 96.33C299.27 96.33 300.318 96.3895 300.308 97.0377Z" fill="#6B481F"/>
<path d="M304.559 114.551C304.616 113.407 305.027 112.34 305.55 111.704C306.072 111.068 306.709 110.721 307.38 110.66C307.933 110.597 308.6 110.822 308.903 111.685C309.203 112.62 308.946 113.976 308.349 114.324C308.069 114.534 307.676 114.457 307.473 114.811C307.23 115.237 307.298 115.954 307.21 116.525C307.077 117.453 306.514 118.16 305.964 118.008C305.178 117.853 304.499 115.838 304.559 114.551Z" fill="#6B481F"/>
<path d="M354.388 179.126L312.797 140.062L305.297 146.062C305.297 146.062 330.937 181.88 343.317 194.435C349.817 200.963 359.33 196.974 360.205 187.366C360.611 183.04 357.422 181.963 354.388 179.126Z" fill="#FFB0A0"/>
<path d="M313.059 133.515C312.737 132.339 311.851 131.408 310.766 131.073C309.3 130.662 308.033 131.64 308.11 133.243L308.096 134.511C306.508 134.313 303.88 132.956 301.874 125.291C301.507 123.947 300.285 123.108 299.124 123.155C298.238 123.216 297.643 124.011 297.598 124.836C297.598 124.836 297.537 124.943 297.644 125.004C297.124 124.424 296.376 123.996 295.597 124.119C294.711 124.181 294.116 124.975 294.071 125.8C294.01 125.907 294.056 126.075 294.102 126.243C293.781 126.06 293.399 125.984 293.063 126.076C292.177 126.137 291.582 126.932 291.537 127.757C291.522 128.031 291.507 128.306 291.66 128.535C291.706 128.703 291.706 128.703 291.752 128.871L291.645 128.81C290.759 128.872 290.164 129.666 290.119 130.491C290.104 130.766 290.088 131.041 290.241 131.27C290.731 133.392 291.512 135.255 292.307 136.843C292.307 136.843 292.307 136.843 292.414 136.904C292.811 137.698 293.163 138.323 293.622 139.01C295.487 142.201 302.162 144.166 306.807 147.951L314.871 143.773L313.059 133.515Z" fill="#FFB0A0"/>
<path d="M204.575 69.5765C204.247 69.201 204.009 68.7667 203.807 68.3102C203.447 67.4952 202.644 65.6236 201.633 66.6346C201.17 67.4097 199.677 68.5908 199.677 69.7776C199.409 70.4818 199.233 71.2405 198.787 71.8546C198.295 72.5333 197.187 73.3174 196.413 73.635C194.84 74.2803 194.017 74.0073 192.358 74.1366C190.624 74.2716 188.456 73.9508 186.858 74.6366C185.366 75.2773 183.347 76.1297 182.858 78.1366C182.501 79.6033 182.937 81.9439 183.308 83.3814C183.496 84.1093 183.504 83.9769 183.858 84.6366C183.997 84.8947 183.803 85.346 183.858 85.6366C183.925 85.9881 183.92 86.7873 183.858 87.1366C183.702 88.0124 183.029 88.4462 182.647 89.2423C182.237 90.0969 181.618 91.4622 181.283 92.3486C181.112 92.7984 180.895 93.3227 180.749 93.7812C180.63 94.1528 180.614 94.4855 180.495 94.856C180.41 95.1199 180.214 95.504 180.245 95.7707C180.298 96.208 180.952 96.6425 181.393 96.9711C182.399 97.7205 183.473 98.309 184.718 98.5101C186.264 98.7604 187.833 98.3529 189.346 97.9484C193.099 96.9467 197.073 95.8137 199.673 92.9279C200.857 91.613 201.682 90.0043 202.889 88.7096C203.818 87.7139 204.95 86.9276 205.902 85.9537C208.037 83.7697 208.633 79.7462 208.593 76.8041C208.567 74.7759 208.087 72.6104 206.594 71.2382C205.951 70.6478 205.15 70.2334 204.575 69.5765Z" fill="#AF6C47"/>
<path d="M197.116 83.9803C197.121 83.3254 197.611 82.1141 197.456 81.478C197.338 80.9969 196.964 80.6277 196.606 80.2853C196.54 80.2216 196.473 80.1582 196.406 80.0944C196.312 80.0036 196.168 80.1316 196.248 80.2355C196.46 80.5168 196.673 80.7974 196.886 81.0787C196.957 81.1724 197.03 81.2708 197.055 81.3858C197.094 81.5707 197.002 81.7542 196.934 81.9304C196.7 82.5277 196.716 83.1884 196.735 83.8286C196.743 84.1117 196.755 84.4065 196.889 84.6555C196.998 84.8561 197.177 85.0077 197.345 85.1626C197.839 85.6164 198.244 86.1357 198.595 86.6981C198.657 86.797 198.81 86.7401 198.791 86.6252C198.725 86.2146 198.632 85.9146 198.29 85.4949C197.786 84.8771 197.111 84.8273 197.116 83.9803Z" fill="#C99961"/>
<path d="M193.351 94.478C192.967 94.5859 192.496 94.8842 192.167 94.8957C191.919 94.9044 191.806 94.7455 191.705 94.592L191.548 94.3552C191.514 94.304 191.577 94.2446 191.626 94.281C191.781 94.3964 191.935 94.5119 192.091 94.6277C192.126 94.6539 192.163 94.6808 192.223 94.6766C192.321 94.67 192.453 94.587 192.575 94.5185C192.987 94.2863 193.369 94.1893 193.737 94.0974C193.9 94.0566 194.069 94.0159 194.177 94.0548C194.264 94.0859 194.303 94.166 194.348 94.2388C194.477 94.4537 194.669 94.6066 194.901 94.721C194.941 94.741 194.866 94.8393 194.804 94.8473C194.583 94.875 194.433 94.8688 194.283 94.7366C194.06 94.5419 193.847 94.3385 193.351 94.478Z" fill="#C99961"/>
<path d="M186.366 82.9677C186.473 83.3508 186.785 83.7746 186.797 84.1026C186.805 84.3507 186.632 84.511 186.479 84.6124L186.241 84.7693C186.19 84.8031 186.131 84.7401 186.167 84.6913C186.283 84.5364 186.399 84.3819 186.515 84.2268C186.541 84.1917 186.568 84.1544 186.564 84.0939C186.557 83.9968 186.333 83.5826 186.265 83.4614C186.033 83.0493 186.078 82.9505 185.986 82.5819C185.945 82.4194 185.905 82.2507 185.944 82.1424C185.975 82.055 186.055 82.0159 186.128 81.9714C186.343 81.8424 186.496 81.65 186.611 81.4183C186.631 81.3777 186.73 81.4526 186.738 81.5145C186.765 81.736 186.654 81.9227 186.522 82.0737C186.326 82.2963 186.227 82.472 186.366 82.9677Z" fill="#C99961"/>
<path d="M203.986 73.9725C203.589 73.9358 203.042 74.0456 202.731 73.9388C202.497 73.8581 202.448 73.6693 202.408 73.4893L202.347 73.2118C202.334 73.1519 202.414 73.1189 202.447 73.1706C202.55 73.3341 202.653 73.4973 202.756 73.6607C202.779 73.698 202.804 73.7365 202.862 73.7539C202.955 73.7825 203.109 73.7523 203.247 73.7318C203.715 73.6627 204.109 73.5427 204.486 73.589C204.652 73.6094 204.821 73.7234 204.908 73.8728C204.955 73.9527 204.987 74.0221 205.002 74.1058C205.045 74.353 205.169 74.5639 205.345 74.754C205.375 74.7875 205.27 74.852 205.209 74.8369C204.993 74.7833 204.856 74.724 204.762 74.5466C204.624 74.2861 204.499 74.02 203.986 73.9725Z" fill="#C99961"/>
<path d="M204.314 79.4191C204.558 79.9906 204.138 80.3568 203.835 80.9197C203.531 81.4825 203.926 81.9508 203.368 82.2825C202.877 82.5748 202.248 82.7819 201.756 82.5243C201.234 82.2507 201.126 81.4507 201.553 81.0229C201.776 80.7998 202.116 80.6602 202.216 80.3672C202.324 80.0506 202.094 79.7401 202.02 79.4204C201.903 78.9098 202.244 78.331 202.754 78.1352C203.447 77.8679 204.045 78.7855 204.314 79.4191Z" fill="#6B481F"/>
<path d="M189.697 81.8771C189.927 81.3058 190.063 80.9556 190.665 80.772C191.267 80.5881 191.617 80.1241 192.234 80.2804C192.777 80.4183 193.356 80.7105 193.517 81.235C193.687 81.7914 193.204 82.4293 192.611 82.432C192.301 82.4332 191.969 82.2946 191.696 82.4307C191.4 82.5777 191.343 82.9567 191.171 83.2329C190.897 83.674 190.507 83.3631 190.019 83.1452C189.355 82.849 189.442 82.5107 189.697 81.8771Z" fill="#6B481F"/>
<path d="M195.013 91.0384C195.173 90.6258 195.542 90.3283 195.915 90.1768C196.288 90.0252 196.519 89.6843 196.889 89.7732C197.216 89.8517 197.558 90.0386 197.637 90.4041C197.722 90.7921 197.405 91.2609 197.043 91.2837C196.854 91.2954 196.657 91.2089 196.485 91.3154C196.299 91.4298 196.251 91.7004 196.137 91.9016C195.954 92.2235 195.558 92.3656 195.268 92.2287C194.873 92.0423 194.834 91.4964 195.013 91.0384Z" fill="#6B481F"/>
<path d="M185.639 94.1828C185.393 93.619 185.892 93.3696 186.141 92.8384C186.389 92.3072 186.37 91.4869 186.858 91.1915C187.289 90.9308 187.847 90.7589 188.303 91.0304C188.787 91.3187 188.92 92.098 188.554 92.4926C188.363 92.6982 188.062 92.8179 187.985 93.0976C187.901 93.3993 187.866 93.8276 187.947 94.1408C188.076 94.6404 187.762 94.9465 187.311 95.1129C186.699 95.3391 185.911 94.8084 185.639 94.1828Z" fill="#6B481F"/>
<path d="M173.47 90.0281C174.219 90.6967 174.903 91.4679 175.587 92.2349C176.001 92.6991 176.677 93.4041 177.358 93.6366C178.039 93.8692 178.783 93.8422 178.858 93.6365C178.98 93.301 179.222 93.2372 179.358 92.9149C179.538 92.4861 179.656 92.0552 179.858 91.6366C180.27 90.7873 181.368 87.943 181.858 87.1366C182.327 86.3643 181.523 85.9805 181.858 85.1366C182 84.7799 181.851 83.5245 181.858 83.1366C181.864 82.8454 180.965 81.9027 180.858 81.6366C180.308 80.2696 180.457 80.0716 180.687 78.5916C180.923 77.0741 181.334 76.084 182.594 75.2136C184.019 74.2291 185.697 73.6421 187.381 73.2888C189.056 72.9375 190.727 72.8836 192.429 73.0051C194.058 73.1219 195.924 73.2287 197.326 72.2304C198.623 71.3064 199.118 69.6296 199.893 68.3092C200.283 67.6446 200.733 67.0039 201.343 66.5213C201.452 66.4355 201.564 66.3568 201.681 66.286C201.981 66.1016 202.102 65.7247 201.966 65.3993C200.899 62.8387 198.839 60.7614 196.7 58.9544C194.777 57.3291 192.427 55.7568 189.939 56.1653C188.614 56.3832 187.443 57.1453 186.158 57.5342C185.192 57.8261 184.177 57.903 183.18 58.0556C176.179 59.1243 169.951 64.2772 167.594 70.9527C167.321 71.7266 167.094 72.5375 167.148 73.356C167.208 74.2615 167.608 75.1067 167.791 75.995C168.223 78.0877 167.439 80.2499 167.6 82.3806C167.71 83.837 168.275 85.2558 169.196 86.3888C170.379 87.8447 172.071 88.7794 173.47 90.0281Z" fill="#AF6C47"/>
<path d="M179.207 66.296C179.18 66.4106 179.15 66.5305 179.072 66.6189C178.979 66.7249 178.834 66.7665 178.696 66.803C178.28 66.9133 178.063 67.2536 177.647 67.3639C177.461 67.4136 177.064 67.2328 176.879 67.1784C176.727 67.1337 176.6 67.0225 176.447 66.9846C176.265 66.9397 176.072 67.0053 175.908 67.0996C175.255 67.4759 174.944 68.3538 175.215 69.0563C175.259 69.1724 175.329 69.2932 175.446 69.3339C175.536 69.3652 175.635 69.3426 175.731 69.334C176.23 69.2885 176.724 69.7037 176.765 70.203C176.761 70.3746 176.546 69.8751 176.355 69.8287C176.164 69.7824 175.964 69.8017 175.768 69.7911C175.288 69.7658 174.821 69.5525 174.487 69.2066C174.329 69.0425 174.197 68.8409 174.172 68.6144C174.152 68.4297 174.204 68.2456 174.24 68.0634C174.333 67.5972 174.324 67.1104 174.212 66.6484C174.167 66.465 174.107 66.2779 174.137 66.0918C174.167 65.9058 174.329 65.7232 174.516 65.7483C174.789 65.7846 175.037 66.2117 175.235 65.986C175.275 65.9397 175.295 65.8787 175.298 65.8171C175.323 65.3442 175.94 65.3142 176.296 65.5359C176.623 65.7399 176.88 66.0743 177.253 66.171C177.488 66.2316 177.74 66.187 177.965 66.0963C178.34 65.9451 178.662 65.6631 178.854 65.3079C179.103 64.8444 178.432 63.5787 178.895 63.7865C180.063 64.4145 179.476 65.1544 179.207 66.296Z" fill="#C99961"/>
<path d="M186.14 62.0346C186.383 62.4332 186.069 62.7857 185.866 63.2694C185.662 63.7536 186.02 64.0474 185.591 64.3959C185.213 64.7031 184.717 64.9685 184.295 64.8531C183.848 64.7306 183.698 64.1334 184.013 63.732C184.178 63.5228 184.444 63.3583 184.503 63.1159C184.566 62.854 184.355 62.6542 184.27 62.4207C184.134 62.0478 184.368 61.5452 184.768 61.3086C185.312 60.9878 185.871 61.5927 186.14 62.0346Z" fill="#6B481F"/>
<path d="M174.479 81.5559C174.711 82.0243 174.416 82.3251 174.225 82.7871C174.035 83.2491 174.376 83.6328 173.971 83.9048C173.615 84.1451 173.146 84.316 172.747 84.1055C172.324 83.882 172.178 83.2263 172.474 82.8746C172.629 82.6911 172.88 82.5763 172.935 82.3357C172.994 82.0757 172.793 81.8219 172.711 81.5599C172.58 81.1412 172.799 80.6664 173.177 80.505C173.69 80.2855 174.222 81.0371 174.479 81.5559Z" fill="#6B481F"/>
<path d="M172.564 73.1966C172.214 73.1158 171.937 72.8162 171.777 72.4867C171.618 72.1571 171.32 71.9966 171.355 71.6279C171.386 71.3025 171.503 70.9436 171.791 70.8041C172.097 70.6559 172.507 70.8763 172.561 71.2175C172.59 71.3956 172.539 71.5988 172.642 71.7443C172.753 71.9011 172.976 71.8998 173.15 71.9736C173.429 72.0918 173.583 72.4446 173.5 72.7452C173.389 73.1539 172.951 73.2864 172.564 73.1966Z" fill="#6B481F"/>
<path d="M187.502 78.6474C187.08 78.5629 186.726 78.3286 186.51 78.0817C186.295 77.8348 185.927 77.6982 185.94 77.4389C185.951 77.2106 186.063 76.9645 186.394 76.8877C186.747 76.8064 187.253 76.9949 187.344 77.2413C187.391 77.3697 187.347 77.5104 187.481 77.6216C187.625 77.7418 187.891 77.7581 188.105 77.8243C188.446 77.93 188.657 78.1924 188.582 78.3997C188.482 78.6814 187.971 78.7414 187.502 78.6474Z" fill="#6B481F"/>
<path d="M192.446 66.8549C192.648 66.2728 193.209 65.8533 193.801 65.6395C194.393 65.4258 194.721 64.9456 195.344 65.0707C195.894 65.1813 196.487 65.445 196.672 65.9605C196.87 66.5078 196.42 67.1686 195.827 67.2005C195.518 67.2171 195.179 67.0949 194.912 67.2446C194.625 67.406 194.587 67.7873 194.429 68.0718C194.176 68.5261 193.546 68.7258 193.047 68.5323C192.37 68.2701 192.223 67.5003 192.446 66.8549Z" fill="#6B481F"/>
<path d="M178.342 71.8098C178.481 71.2105 178.996 70.7344 179.563 70.4603C180.13 70.1862 180.405 69.6745 181.039 69.7341C181.597 69.7868 182.214 69.9873 182.453 70.4805C182.707 71.0043 182.327 71.7084 181.741 71.802C181.436 71.851 181.267 71.35 181.018 71.5266C180.748 71.7173 180.431 72.0665 180.303 72.3654C180.1 72.8434 179.973 72.9414 179.457 72.8011C178.754 72.6111 178.187 72.4752 178.342 71.8098Z" fill="#6B481F"/>
<path d="M171.181 78.6467C170.933 78.9186 170.783 79.3048 170.879 79.6598C170.721 79.4368 170.555 79.1827 170.596 78.9123C170.61 78.812 170.654 78.7182 170.699 78.6274C170.872 78.2829 171.115 77.9435 171.476 77.8087C171.784 77.6937 172.161 77.7337 172.405 77.5131C172.446 77.4762 172.483 77.432 172.533 77.409C172.584 77.3865 172.654 77.3947 172.678 77.4448C172.695 77.4791 172.684 77.5201 172.67 77.5559C172.452 78.107 171.571 78.2199 171.181 78.6467Z" fill="#C99961"/>
<path d="M189.735 64.755C189.68 64.3917 189.474 64.0318 189.138 63.8826C189.411 63.9008 189.713 63.9313 189.897 64.1327C189.966 64.2073 190.012 64.2997 190.054 64.3916C190.212 64.7423 190.324 65.1441 190.201 65.5096C190.096 65.8214 189.827 66.089 189.845 66.417C189.848 66.4721 189.859 66.5284 189.845 66.5817C189.831 66.6351 189.78 66.6846 189.726 66.6722C189.689 66.6634 189.664 66.6291 189.645 66.5957C189.353 66.0806 189.821 65.3254 189.735 64.755Z" fill="#C99961"/>
<path d="M191.453 86.072C191.399 85.9042 191.193 85.7385 190.857 85.6703C191.13 85.6781 191.432 85.692 191.617 85.7846C191.685 85.8189 191.731 85.8616 191.773 85.9041C191.931 86.0659 192.042 86.2511 191.919 86.4201C191.814 86.564 191.544 86.6881 191.562 86.8396C191.565 86.865 191.576 86.8913 191.563 86.9156C191.549 86.9398 191.497 86.9631 191.443 86.9572C191.406 86.9534 191.381 86.9376 191.363 86.9223C191.071 86.6849 191.539 86.3355 191.453 86.072Z" fill="#C99961"/>
<path d="M175.719 88.1344C175.378 88.121 174.902 88.227 174.638 88.1553C174.438 88.1011 174.404 87.956 174.376 87.8172L174.334 87.603C174.325 87.5569 174.396 87.5282 174.422 87.5674C174.505 87.6911 174.587 87.8143 174.67 87.938C174.689 87.9664 174.709 87.9951 174.758 88.0067C174.838 88.0256 174.971 87.9962 175.091 87.9753C175.498 87.9036 175.842 87.7953 176.166 87.8169C176.308 87.8268 176.45 87.909 176.52 88.0226C176.557 88.0832 176.581 88.1361 176.592 88.2009C176.62 88.3918 176.719 88.5525 176.863 88.694C176.888 88.7187 176.795 88.7736 176.743 88.7638C176.558 88.7305 176.442 88.689 176.368 88.554C176.259 88.3553 176.16 88.1522 175.719 88.1344Z" fill="#C99961"/>
<path d="M111.826 122.798C110.317 124.544 109.383 126.649 109.59 128.968C109.679 129.965 110.032 130.935 110.014 131.936C109.991 133.203 109.382 134.369 108.98 135.568C107.842 138.964 110.487 140.313 111.326 143.798C112.002 146.606 112.326 149.298 113.326 150.298C114.826 151.798 115.901 153.292 117.326 153.798C118.397 154.177 122.318 155.754 124.826 155.298C130.326 154.298 132.826 159.298 140.326 156.798C142.326 155.798 145.082 153.531 145.573 152.734C146.116 151.852 146.312 150.797 146.732 149.849C147.721 147.614 149.066 146.386 150.326 144.298C151.188 142.871 151.211 140.472 151.121 138.798C151.006 136.649 149.273 135.4 148.826 133.298C148.081 129.788 149.52 125.607 147.326 122.798C146.23 121.394 145.668 120.378 144.104 119.554C140.224 117.51 137.668 117.349 133.326 117.798C131.348 118.003 127.807 119.127 125.826 119.298C124.302 119.429 120.353 119.204 118.826 119.298C115.401 119.509 114.016 120.265 111.826 122.798Z" fill="#AF6C47"/>
<path d="M126.981 124.602C126.532 124.955 125.642 124.878 125.326 125.298C125.088 125.616 125.315 126.266 125.35 126.627C125.387 127.018 124.826 127.798 125.464 127.798C125.464 127.798 125.803 127.206 125.874 126.627C125.885 126.542 125.766 125.872 125.826 125.798C125.922 125.678 126.05 125.638 126.222 125.576C126.803 125.368 127.239 125.002 127.66 124.647C127.846 124.489 128.038 124.324 128.106 124.124C128.161 123.961 128.131 123.791 128.11 123.625C128.032 123.007 128.133 122.4 128.326 121.798C127.909 122.247 127.668 122.435 127.628 122.982C127.588 123.563 127.56 124.147 126.981 124.602Z" fill="#C99961"/>
<path d="M123.109 150.146C122.439 150.452 121.407 150.617 120.936 150.982C120.579 151.258 120.622 151.592 120.675 151.905C120.732 152.244 120.79 152.583 120.847 152.921C120.954 152.419 121.061 151.916 121.168 151.413C121.185 151.339 121.202 151.262 121.291 151.197C121.435 151.093 121.724 151.047 121.98 150.993C122.846 150.812 123.499 150.494 124.127 150.185C124.406 150.049 124.692 149.905 124.794 149.731C124.876 149.59 124.83 149.443 124.8 149.299C124.683 148.762 124.833 148.235 125.123 147.712C124.499 148.102 124.139 148.266 124.081 148.74C124.015 149.244 123.975 149.75 123.109 150.146Z" fill="#C99961"/>
<path d="M138.922 150.146C138.252 150.452 137.22 150.617 136.749 150.982C136.392 151.258 136.435 151.592 136.488 151.905C136.545 152.244 136.603 152.583 136.66 152.921C136.767 152.419 136.874 151.916 136.981 151.413C136.998 151.339 137.015 151.262 137.104 151.197C137.248 151.093 137.537 151.047 137.793 150.993C138.659 150.812 139.312 150.494 139.94 150.185C140.219 150.049 140.505 149.905 140.607 149.731C140.688 149.59 140.643 149.443 140.613 149.299C140.496 148.762 140.646 148.235 140.936 147.712C140.312 148.102 139.952 148.266 139.894 148.74C139.828 149.244 139.787 149.75 138.922 150.146Z" fill="#C99961"/>
<path d="M139.77 137.102C139.435 137.255 138.919 137.337 138.683 137.519C138.505 137.658 138.526 137.824 138.553 137.981C138.581 138.151 138.61 138.32 138.638 138.49C138.692 138.238 138.746 137.987 138.798 137.735C138.806 137.698 138.815 137.659 138.86 137.627C138.932 137.576 139.076 137.552 139.204 137.524C139.638 137.434 139.964 137.275 140.278 137.121C140.417 137.053 140.56 136.981 140.612 136.894C140.652 136.824 140.629 136.75 140.614 136.678C140.555 136.41 140.631 136.146 140.776 135.885C140.464 136.079 140.284 136.162 140.255 136.399C140.223 136.651 140.203 136.904 139.77 137.102Z" fill="#C99961"/>
<path d="M143.02 124.658C142.685 124.811 142.169 124.893 141.933 125.076C141.755 125.214 141.776 125.38 141.803 125.537C141.831 125.707 141.844 125.777 141.872 125.947C141.925 125.695 141.996 125.543 142.049 125.292C142.058 125.255 142.066 125.215 142.111 125.183C142.183 125.132 142.391 125.055 142.518 125.028C142.952 124.937 143.215 124.831 143.529 124.677C143.669 124.609 143.811 124.537 143.863 124.45C143.904 124.38 143.88 124.306 143.865 124.234C143.807 123.966 143.836 123.758 143.981 123.497C143.669 123.691 143.656 123.767 143.627 124.003C143.595 124.255 143.453 124.46 143.02 124.658Z" fill="#C99961"/>
<path d="M116.127 128.981C116.097 129.426 116.19 129.91 116.509 130.216C116.714 130.412 116.987 130.512 117.255 130.598C117.717 130.747 118.186 130.871 118.66 130.97C119.267 131.097 119.894 131.181 120.503 131.071C121.18 130.95 121.832 130.563 122.17 129.952C122.507 129.341 122.467 128.501 121.986 127.999C121.694 127.693 120.199 127.684 119.806 127.538C118.847 127.185 118.528 126.926 117.538 127.388C116.655 127.8 116.205 127.998 116.127 128.981Z" fill="#6B481F"/>
<path d="M117.446 138.985C116.826 138.798 115.435 138.457 115.127 138.985C114.914 139.352 114.854 139.795 114.868 140.222C114.878 140.524 114.924 140.829 115.051 141.102C115.448 141.951 116.473 142.249 117.15 142.889C117.402 143.128 117.637 143.434 117.978 143.484C118.215 143.52 118.45 143.419 118.669 143.316C119.309 143.013 119.998 142.597 120.171 141.899C120.298 141.382 120.326 140.798 119.904 140.353C119.326 139.798 118.826 139.298 117.446 138.985Z" fill="#6B481F"/>
<path d="M126.328 150.937C126.368 150.315 126.716 149.744 127.186 149.38C127.656 149.016 128.237 148.845 128.814 148.804C129.324 148.769 129.907 148.872 130.193 149.328C130.496 149.811 130.256 150.576 129.743 150.762C129.475 150.86 129.148 150.828 128.949 151.044C128.734 151.278 128.791 151.66 128.719 151.98C128.605 152.49 128.098 152.85 127.613 152.792C126.955 152.712 126.284 151.626 126.328 150.937Z" fill="#6B481F"/>
<path d="M126.826 134.52C126.625 135.003 126.753 136.379 127.209 136.62C127.663 136.86 128.225 136.731 128.71 136.895C129.192 137.059 129.532 137.486 129.924 137.817C130.315 138.147 130.881 138.391 131.319 138.128C131.676 137.912 131.798 137.438 131.795 137.014C131.794 136.748 131.757 136.478 131.649 136.236C131.492 135.879 131.326 135.298 130.826 134.52C129.826 133.298 127.379 133.19 126.826 134.52Z" fill="#6B481F"/>
<path d="M133.736 144.002C133.657 144.209 133.707 144.797 133.888 144.9C134.067 145.003 134.289 144.947 134.481 145.018C134.671 145.088 134.806 145.27 134.96 145.412C135.115 145.553 135.339 145.657 135.511 145.545C135.653 145.453 135.701 145.25 135.7 145.068C135.699 144.955 135.685 144.839 135.642 144.736C135.58 144.583 135.515 144.335 135.317 144.002C134.922 143.479 133.955 143.433 133.736 144.002Z" fill="#6B481F"/>
<path d="M143.326 139.298C142.949 139.87 142.98 140.126 142.826 140.798C142.658 141.537 141.386 142.014 140.828 142.513C140.62 142.699 140.362 142.855 140.256 143.117C140.194 143.27 140.192 143.441 140.217 143.604C140.347 144.421 141.169 144.996 141.979 145.026C142.79 145.057 143.563 144.646 144.181 144.108C144.967 143.423 145.566 142.515 145.891 141.513C146.081 140.924 146.179 140.283 146.023 139.683C145.642 138.209 144.331 137.783 143.326 139.298Z" fill="#6B481F"/>
<path d="M134.826 123.298C133.7 123.861 132.878 124.323 132.826 124.798C132.757 125.438 132.702 125.429 132.542 126.052C132.45 126.41 132.448 126.847 132.725 127.087C133.081 127.395 133.613 127.172 134.076 127.11C134.914 126.997 135.748 127.476 136.587 127.376C137.289 127.293 137.922 126.77 138.152 126.087C138.38 125.405 138.191 124.597 137.686 124.092C137.441 123.847 137.132 123.672 136.899 123.413C136.233 122.668 135.826 122.798 134.826 123.298Z" fill="#6B481F"/>
<path d="M139.664 130.82C139.593 131.339 139.964 131.882 140.465 131.994C140.964 132.106 141.474 131.831 141.985 131.861C142.492 131.892 142.928 132.213 143.391 132.429C143.853 132.644 144.462 132.73 144.818 132.36C145.109 132.057 145.105 131.568 144.995 131.157C144.926 130.901 144.822 130.65 144.657 130.445C144.414 130.143 144.055 129.959 143.692 129.835C142.751 129.517 139.861 129.389 139.664 130.82Z" fill="#6B481F"/>
<path d="M117.075 135.198C117.858 134.943 118.58 134.352 118.791 133.541C118.848 134.162 118.884 134.853 118.504 135.341C118.364 135.522 118.175 135.658 117.986 135.786C117.267 136.269 116.419 136.663 115.571 136.517C114.847 136.393 114.162 135.884 113.444 136.041C113.324 136.067 113.203 136.113 113.08 136.101C112.958 136.088 112.83 135.991 112.84 135.865C112.845 135.777 112.913 135.709 112.98 135.655C114.016 134.815 115.845 135.596 117.075 135.198Z" fill="#C99961"/>
</g>
</svg>
