<svg width="480" height="272" viewBox="0 0 480 272" fill="none" xmlns="http://www.w3.org/2000/svg">
<path d="M364.5 106.5C403.689 131.658 431 253 273.178 209.989C171 195 121.848 258.081 98.5003 145C91.9999 92.9996 138.5 39.0003 186 75.5003C233.5 112 324 80.4996 364.5 106.5Z" fill="#A5E9D6"/>
<mask id="mask0" mask-type="alpha" maskUnits="userSpaceOnUse" x="97" y="53" width="298" height="167">
<path d="M364.499 106.499C403.689 131.658 431 252.999 273.178 209.989C171 194.999 121.847 258.081 98.4998 144.999C91.9994 92.9992 145.001 52.9996 192.5 53C239.999 53.0004 323.999 80.4992 364.499 106.499Z" fill="#F6E9C8"/>
</mask>
<g mask="url(#mask0)">
<path d="M213.906 173.928L227.555 229.861C228.379 235.451 226.202 240.982 221.965 244.395L182.484 275.285L183.19 246.866L202.901 230.744L182.425 169.903L213.906 173.928Z" fill="#0F3E5E"/>
<path d="M170.227 171.536L164.302 295.645H186.896L197.165 172.61L170.227 171.536Z" fill="#174C71"/>
<path d="M220.994 123.067L236.293 149.898C238.823 154.429 239.5 157.5 236 160C231.469 162.942 225.643 162.196 222.701 157.665L204.46 129.288C201.636 124.934 200.754 120.537 204.46 116.889L210.109 115.948C215.169 110.829 217.464 116.713 220.994 123.067Z" fill="#FFCE33"/>
<path d="M213.099 113.659L204.5 112.5L197.262 111.508L188.5 110.5L181.425 110.358C175.311 109.876 173.011 115.242 173.305 118.302L170.05 172.493L213.905 174.023L217.882 121.312C218.177 117.841 216.629 113.894 213.099 113.659Z" fill="#2493DF"/>
<path d="M204.988 91.121C204.753 93.6511 206.577 95.9458 209.048 96.1224C211.519 96.3577 213.697 94.4748 213.932 91.8859C214.167 89.3558 212.343 87.061 209.872 86.8845C207.401 86.708 205.224 88.5909 204.988 91.121Z" fill="#FFB0A0"/>
<path d="M204.253 99.5314L204.018 110.593C203.959 114.477 201.606 116.536 197.899 116.418C194.721 116.301 191.309 114.712 191.485 111.299L192.603 93.8828L204.253 99.5314Z" fill="#FFB0A0"/>
<path d="M204.137 106.946C204.137 106.946 195.076 107.534 192.487 97.296C191.663 94.0598 204.314 98.414 204.314 98.414L204.137 106.946Z" fill="#F4ABA2"/>
<path d="M200.901 102.708C207.255 102.826 212.551 97.7655 212.845 92.4699L213.375 81.2904C213.728 74.5826 208.903 68.8163 202.431 68.2868C195.84 67.6984 188.839 72.6409 188.25 79.4663L187.956 88.1746C187.603 96.0003 193.31 102.061 200.901 102.708Z" fill="#FFB0A0"/>
<path d="M206.84 89.508L206.68 93.1644L205.104 92.9676" stroke="#1D2D32" stroke-width="0.5974" stroke-miterlimit="10" stroke-linecap="round" stroke-linejoin="round"/>
<path d="M202.207 83.4C202.207 83.4 204.798 83.5455 204.659 84.6548C204.659 84.6548 204.564 85.4138 202.28 85.1881C200.047 85.0279 199.485 84.7799 199.339 84.0501C199.251 83.3276 200.981 83.247 202.207 83.4Z" fill="#1D2D32"/>
<path d="M211.349 85.2088C211.349 85.2088 209.283 84.6545 208.919 85.6763C208.919 85.6763 208.714 86.3624 210.561 86.7707C212.408 87.179 213.021 87.0184 213.261 86.5147C213.575 85.9016 212.341 85.3326 211.349 85.2088Z" fill="#1D2D32"/>
<path d="M209.204 89.0916C209.065 89.7266 209.467 90.3104 210.109 90.3905C210.686 90.5218 211.277 90.0619 211.35 89.478C211.488 88.843 211.087 88.2592 210.444 88.1791C209.86 88.1062 209.335 88.515 209.204 89.0916Z" fill="#1D2D32"/>
<path d="M199.805 87.4442C199.666 88.0792 200.075 88.6046 200.71 88.7431C201.287 88.8743 201.878 88.4144 201.951 87.8306C202.089 87.1956 201.68 86.6702 201.045 86.5317C200.527 86.4077 199.943 86.8092 199.805 87.4442Z" fill="#1D2D32"/>
<path d="M201.638 94.1367C201.674 94.3192 202.944 96.0194 205.112 95.7562" stroke="#1D2D32" stroke-width="0.5974" stroke-miterlimit="10" stroke-linecap="round" stroke-linejoin="round"/>
<path d="M210.727 62.8742C208.315 61.8151 202.137 60.6971 200.725 66.1692C194.547 65.6985 184.779 65.8162 183.779 71.1706C182.308 78.9963 187.898 86.7631 187.898 86.7631L189.486 87.5869C189.486 87.5869 193.487 85.5275 192.428 76.1131C192.428 76.1131 206.668 79.5258 213.316 75.9366C220.024 72.2885 218.024 65.9927 210.727 62.8742Z" fill="#1D2D32"/>
<path d="M182.071 87.8225C181.836 90.3526 183.66 92.5885 186.131 92.8239C188.602 93.0592 190.721 91.1764 190.956 88.6463C191.191 86.1161 189.367 83.8802 186.896 83.6449C184.484 83.4095 182.307 85.2924 182.071 87.8225Z" fill="#FFB0A0"/>
<path d="M187.954 89.4692C187.954 89.4692 188.248 86.1741 185.13 86.4095" stroke="#1D2D32" stroke-width="0.5974" stroke-miterlimit="10" stroke-linecap="round" stroke-linejoin="round"/>
<path d="M188.5 110.5H192L204.5 112.5C204.5 112.5 208.189 118.125 199.128 117.654C188.949 117.066 188.5 110.5 188.5 110.5Z" fill="#FFB0A0"/>
<path d="M281 105.049H278.02V191.018H281V105.049Z" fill="#2D3846"/>
<path d="M281 168H295" stroke="#2D3846" stroke-width="2" stroke-miterlimit="10" stroke-linecap="round" stroke-linejoin="round"/>
<path d="M281 114H295" stroke="#2D3846" stroke-width="2" stroke-miterlimit="10" stroke-linecap="round" stroke-linejoin="round"/>
<path d="M337 132V118C337 115.987 334.943 114 333 114H327.638C326.407 114 325.5 113.234 325.5 112C325.5 110.766 326.407 110 327.638 110H344.863C346.029 110 347 109.312 347 108.143C347 106.974 346.029 106 344.863 106H298.238C296.425 106 295 107.429 295 109.247V174" stroke="#FBFBFB" stroke-width="2" stroke-miterlimit="10"/>
<path d="M354.912 172.912C364.284 163.539 364.284 148.343 354.912 138.971C345.539 129.598 330.343 129.598 320.971 138.971C311.598 148.343 311.598 163.539 320.971 172.912C330.343 182.284 345.539 182.284 354.912 172.912Z" fill="#FBFBFB"/>
<path d="M341 124H333V136H341V124Z" fill="#FBFBFB"/>
<path d="M341.618 126H332.382C331.628 126 331 125.091 331 124C331 122.909 331.628 122 332.382 122H341.618C342.372 122 343 122.909 343 124C343 125.091 342.372 126 341.618 126Z" fill="#FBFBFB"/>
<path d="M340.537 157.567C334.208 156.826 327.999 154.974 321.611 154.665C319.76 154.603 317.909 154.665 316.058 154.912C316.058 155.035 316.058 155.159 316.058 155.282C316.058 167.814 325.909 178 338.029 178C350.149 178 360 167.814 360 155.282C360 154.542 359.94 153.739 359.881 152.998C359.522 153.307 359.224 153.616 358.866 153.863C353.731 157.813 346.865 158.369 340.537 157.567Z" fill="#40BF9C"/>
<path d="M364 168H310V172H364V168Z" fill="#2D3846"/>
<path d="M318.406 169.316L309.336 191.019" stroke="#2D3846" stroke-width="2" stroke-miterlimit="10" stroke-linecap="round" stroke-linejoin="round"/>
<path d="M356.175 169.316L365.245 191.019" stroke="#2D3846" stroke-width="2" stroke-miterlimit="10" stroke-linecap="round" stroke-linejoin="round"/>
<path d="M342.5 184.129C342.5 186.154 340.243 188.629 339 188.629C335.5 188.629 334 186.654 334 184.629C334 182.604 337.295 181.629 337.5 182.129C339 185.796 342.5 182.104 342.5 184.129Z" fill="#FBB461"/>
<path d="M341 185.632C341 186.847 339.513 188.631 338.5 188.631C337.487 188.631 335.5 187.844 335.5 186.629C335.5 185.414 337.687 183.752 338 185.131C338.5 187.331 341 184.417 341 185.632Z" fill="#F35843"/>
<path d="M352 188H324V190H352V188Z" fill="#2D3846"/>
<path d="M406.998 190H98V204H406.998V190Z" fill="#2D3846"/>
<path d="M241 110.5L238.657 120.048L246.975 122.284L249 112L241 110.5Z" fill="#FFB0A0"/>
<path d="M247.748 112.064L241 110.5L240.945 103.14L252.839 103.796L249 112L247.748 112.064Z" fill="#FFB0A0"/>
<path d="M185.614 126.293L178.72 151.275C177.37 155.49 173.996 160.292 169.809 159.492C165.623 158.692 161.193 156.104 164.07 145.163L170.709 116.081C171.796 111.658 176.72 109.564 180.771 110.936C186.285 112.846 187.518 120.398 185.614 126.293Z" fill="#FFD85A"/>
<path d="M224.929 149.228L238.872 116.098L248.528 121.678L239.157 155.835C237.178 160.713 230.772 162.057 226.032 158.564C222.35 155.921 223.037 152.83 224.929 149.228Z" fill="#FFCE33"/>
<path d="M219.481 139.003L206.561 141.753L208.521 150.689L220.168 147.265L219.481 139.003Z" fill="#FFB0A0"/>
<path d="M229.903 142.941C230.898 142.698 231.913 143.285 232.199 144.269V144.269C232.532 145.418 231.734 146.578 230.542 146.68L228.267 146.874C227.356 146.952 226.538 146.31 226.399 145.408V145.408C226.264 144.528 226.822 143.693 227.687 143.482L229.903 142.941Z" fill="#FFB0A0"/>
<path d="M229.443 139.885C230.409 139.65 231.389 140.24 231.631 141.204V141.204C231.889 142.227 231.215 143.244 230.173 143.407L227.976 143.751C227.084 143.891 226.233 143.313 226.033 142.433V142.433C225.829 141.529 226.384 140.632 227.284 140.413L229.443 139.885Z" fill="#FFB0A0"/>
<path d="M228.847 136.698C229.813 136.462 230.792 137.052 231.035 138.017V138.017C231.292 139.039 230.619 140.057 229.576 140.22L227.38 140.563C226.488 140.703 225.637 140.126 225.437 139.246V139.246C225.232 138.342 225.788 137.445 226.688 137.225L228.847 136.698Z" fill="#FFB0A0"/>
<path d="M227.954 134.175C228.92 133.939 229.899 134.53 230.142 135.494V135.494C230.399 136.516 229.726 137.534 228.683 137.697L226.487 138.041C225.595 138.18 224.744 137.603 224.544 136.723V136.723C224.339 135.819 224.895 134.922 225.795 134.702L227.954 134.175Z" fill="#FFB0A0"/>
<path d="M175.141 143.13L215.251 138.396L215.072 150.13L173.072 159.63C167.204 159.881 164.466 155.317 165.572 149.533C166.36 145.07 170.221 144.087 175.141 143.13Z" fill="#FFD85A"/>
<circle cx="231" cy="106" r="1" fill="#EF4343"/>
<circle cx="228.5" cy="120.5" r="1.5" fill="#EF4343"/>
<circle cx="225" cy="113" r="2" fill="#EF4343"/>
<circle cx="233.5" cy="113.5" r="1.5" fill="#EF4343"/>
<path d="M222 127H228V152C228 153.657 226.657 155 225 155V155C223.343 155 222 153.657 222 152V127Z" fill="#ECF7FF"/>
<path d="M223 131H227V152C227 153.105 226.105 154 225 154V154C223.895 154 223 153.105 223 152V131Z" fill="#EF4343"/>
<rect x="221" y="125" width="8" height="2" rx="1" fill="#ECF7FF"/>
<path d="M218.652 145.323L217.907 139.739C217.783 138.809 218.322 137.919 219.202 137.596L228.406 134.227L230.934 146.647L221.01 147.888C219.933 148.023 218.945 147.274 218.784 146.201L218.652 145.323Z" fill="#FFB0A0"/>
</g>
<path d="M249.974 110.131L252.034 102.445L274.154 101.337C275.513 101.269 276.542 102.549 276.184 103.862L271.427 121.287C271.068 122.604 269.523 123.181 268.387 122.423L249.974 110.131Z" fill="#ECF7FF"/>
<path d="M237 106.718L239.107 99.0001L252.613 102.687L250.506 110.404L237 106.718Z" fill="#ECF7FF"/>
<rect x="234.24" y="108.14" width="12" height="3" rx="1.5" transform="rotate(-74.7316 234.24 108.14)" fill="#ECF7FF"/>
<path d="M253.246 110.413L258.8 103.793L272.226 103.106C273.582 103.037 274.611 104.31 274.26 105.621L272.509 112.157L270.658 119.063C270.301 120.394 268.738 120.974 267.6 120.198L253.246 110.413Z" fill="#EF4343"/>
<path d="M239.5 106.261C239.141 105.233 239.675 104.084 240.693 103.695V103.695C241.771 103.284 242.943 103.89 243.235 105.009L243.905 107.58C244.155 108.539 243.622 109.546 242.69 109.876V109.876C241.736 110.213 240.709 109.72 240.375 108.764L239.5 106.261Z" fill="#FFB0A0"/>
<path d="M250.912 99.9734C251.023 98.9461 251.947 98.1974 252.975 98.3011V98.3011C254.065 98.4111 254.821 99.4291 254.612 100.505L254.171 102.773C253.992 103.694 253.127 104.322 252.197 104.206V104.206C251.241 104.086 250.561 103.226 250.665 102.269L250.912 99.9734Z" fill="#FFB0A0"/>
<path d="M247.759 99.387C247.87 98.3597 248.793 97.611 249.821 97.7147V97.7147C250.911 97.8247 251.667 98.8427 251.459 99.9186L251.018 102.186C250.839 103.108 249.974 103.735 249.044 103.619V103.619C248.088 103.5 247.408 102.64 247.511 101.683L247.759 99.387Z" fill="#FFB0A0"/>
<path d="M244.433 98.8441C244.544 97.8167 245.467 97.068 246.495 97.1718V97.1718C247.585 97.2817 248.341 98.2997 248.132 99.3757L247.692 101.644C247.513 102.565 246.648 103.192 245.717 103.076V103.076C244.762 102.957 244.082 102.097 244.185 101.14L244.433 98.8441Z" fill="#FFB0A0"/>
<path d="M241.11 99.0997C241.221 98.0724 242.144 97.3236 243.172 97.4274V97.4274C244.262 97.5373 245.018 98.5553 244.809 99.6313L244.369 101.899C244.19 102.82 243.325 103.448 242.394 103.332V103.332C241.439 103.212 240.758 102.353 240.862 101.395L241.11 99.0997Z" fill="#FFB0A0"/>
<circle cx="295" cy="125" r="6" fill="#FBFBFB"/>
<path d="M295.571 125.096C294.13 124.919 292.717 124.474 291.264 124.4C290.842 124.385 290.421 124.4 290 124.459C290 124.489 290 124.519 290 124.548C290 127.556 292.242 130 295 130C297.758 130 300 127.556 300 124.548C300 124.37 299.986 124.178 299.973 124C299.891 124.074 299.823 124.148 299.742 124.207C298.573 125.156 297.011 125.289 295.571 125.096Z" fill="#40BF9C"/>
<circle cx="295" cy="141" r="6" fill="#FBFBFB"/>
<path d="M295.571 141.096C294.13 140.919 292.717 140.474 291.264 140.4C290.842 140.385 290.421 140.4 290 140.459C290 140.489 290 140.519 290 140.548C290 143.556 292.242 146 295 146C297.758 146 300 143.556 300 140.548C300 140.37 299.986 140.178 299.973 140C299.891 140.074 299.823 140.148 299.742 140.207C298.573 141.156 297.011 141.289 295.571 141.096Z" fill="#40BF9C"/>
<circle cx="295" cy="157" r="6" fill="#FBFBFB"/>
<path d="M295.571 157.096C294.13 156.919 292.717 156.474 291.264 156.4C290.842 156.385 290.421 156.4 290 156.459C290 156.489 290 156.519 290 156.548C290 159.556 292.242 162 295 162C297.758 162 300 159.556 300 156.548C300 156.37 299.986 156.178 299.973 156C299.891 156.074 299.823 156.148 299.742 156.207C298.573 157.156 297.011 157.289 295.571 157.096Z" fill="#40BF9C"/>
</svg>
