<svg width="480" height="272" viewBox="0 0 480 272" fill="none" xmlns="http://www.w3.org/2000/svg">
<path opacity="0.3" d="M402.443 136.215C445.443 196.351 402.443 292.715 279.444 241.715C198.944 191.215 84.572 281.579 61.9433 159.715C48.9268 96.6601 124.543 -26.1158 234.943 71.2151C330.655 159.324 372.943 102.715 402.443 136.215Z" fill="#2493DF"/>
<mask id="mask0" mask-type="alpha" maskUnits="userSpaceOnUse" x="75" y="35" width="197" height="142">
<rect x="75" y="35" width="197" height="142" fill="#C4C4C4"/>
</mask>
<g mask="url(#mask0)">
<path d="M207.986 81H201.262H109.886H82.0671C79.8438 81 78 82.8748 78 85.1356V172.864C78 175.125 79.8438 177 82.0671 177H184.613H207.932C210.155 177 211.999 175.07 211.999 172.864V85.1356C212.053 82.9299 210.155 81 207.986 81Z" fill="#F9F9FA"/>
<path d="M207.934 80H201.213H109.874H82.0655C79.843 80 78 82.0732 78 84.5732V90H212V84.5732C212 82.1341 210.103 80 207.934 80Z" fill="#FDB850"/>
<circle cx="93" cy="84.7148" r="2" fill="#F6E9C8"/>
<circle cx="86" cy="84.7148" r="2" fill="#F6E9C8"/>
<circle cx="100" cy="84.7148" r="2" fill="#F6E9C8"/>
<path d="M241.2 117.281L236.441 130.723L226.912 126.012L233.433 113.14L241.2 117.281Z" fill="#FFC9BD"/>
<path d="M233.607 113.239L240.905 118.329L248.51 107.628L238.559 100.534L232.832 110.82L233.607 113.239Z" fill="#FFC9BD"/>
<path d="M226.183 86.5746L242.355 105.315C242.42 105.391 242.497 105.457 242.581 105.51L266.05 120.209C266.541 120.518 266.669 121.178 266.326 121.647L259.739 130.66C259.366 131.171 258.618 131.211 258.192 130.743L240.042 110.777C239.986 110.715 239.922 110.661 239.853 110.615L219.281 97.0323C218.828 96.7335 218.696 96.1286 218.983 95.6685L224.577 86.6987C224.934 86.1269 225.743 86.0644 226.183 86.5746Z" fill="#FFFCF4"/>
<path d="M236.445 108.531L240.281 103.561L243.997 105.76L239.968 110.702L236.445 108.531Z" fill="#F35843"/>
<path d="M236.517 106.467C236.534 105.325 235.621 104.385 234.478 104.368V104.368C233.288 104.351 232.328 105.34 232.381 106.53L232.617 111.79C232.663 112.826 233.527 113.637 234.564 113.617V113.617C235.596 113.597 236.425 112.763 236.44 111.732L236.517 106.467Z" fill="#FFC9BD"/>
<path d="M241.678 99.6101C242.384 98.6896 242.21 97.371 241.29 96.6649V96.6649C240.317 95.9185 238.914 96.161 238.248 97.1908L236.655 99.6537C236.083 100.538 236.301 101.714 237.152 102.334V102.334C238.022 102.967 239.238 102.791 239.893 101.937L241.678 99.6101Z" fill="#FFC9BD"/>
<path d="M244.71 101.54C245.416 100.619 245.242 99.3007 244.322 98.5946V98.5946C243.349 97.8482 241.946 98.0907 241.28 99.1205L239.687 101.583C239.115 102.467 239.333 103.644 240.184 104.263V104.263C241.054 104.897 242.27 104.721 242.925 103.867L244.71 101.54Z" fill="#FFC9BD"/>
<path d="M247.848 103.64C248.554 102.72 248.38 101.401 247.459 100.695V100.695C246.486 99.9488 245.083 100.191 244.417 101.221L242.824 103.684C242.252 104.568 242.471 105.744 243.322 106.364V106.364C244.192 106.997 245.408 106.821 246.062 105.968L247.848 103.64Z" fill="#FFC9BD"/>
<path d="M250.34 106.425C251.046 105.504 250.872 104.185 249.952 103.479V103.479C248.979 102.733 247.576 102.975 246.909 104.005L245.316 106.468C244.745 107.352 244.963 108.528 245.814 109.148V109.148C246.684 109.781 247.9 109.606 248.555 108.752L250.34 106.425Z" fill="#FFC9BD"/>
<path d="M182.712 121.088C176.185 124.203 170.144 130.292 174.448 136.224C174.95 136.892 175.453 137.559 176.026 138.227C181.55 144.975 196.477 158.769 205.443 167C209.532 170.782 215.55 170.411 219.352 166.332C223.154 162.253 223.154 155.876 219.424 151.797C219.424 151.797 202.757 131.024 192.212 121.087C188.698 117.676 187.088 119.012 182.712 121.088Z" fill="#2D3846"/>
<path d="M173.916 113C173.916 113 168.128 114.345 161 116.5C155.089 118.287 148.256 120.632 143.036 123.229C140.506 124.616 138.849 127.303 138.5 130.163L140.768 182L193.051 181L198.34 132.677C198.863 129.99 198.158 127.234 196.334 125.222C194.92 123.663 192.711 121.24 191.5 120C190.082 118.547 187.614 116.558 183.685 114.647L173.916 113Z" fill="#2D3846"/>
<path d="M168.107 114.3C168.107 114.3 171.858 113.174 173.864 113.087L183.634 114.647C183.634 114.647 185.814 115.341 187.995 117.074L182.674 129.643L168.107 114.3Z" fill="#FFC9BD"/>
<path d="M174.3 120.801L186.163 121.321L182.674 129.556L174.3 120.801Z" fill="white"/>
<path d="M168.107 114.3C168.107 114.3 163 115.5 161 116.5L182.849 136.317L182.674 129.556L168.107 114.3Z" fill="#FDB850"/>
<path d="M182.674 129.557L187.995 117.074C187.995 117.074 189 117.672 190 118.5C190.545 118.951 190.971 119.471 191.5 120L182.848 136.318L182.674 129.557Z" fill="#FDB850"/>
<path d="M196.018 145L192.846 179.546" stroke="#1D2D32" stroke-width="0.5948" stroke-miterlimit="10" stroke-linecap="round" stroke-linejoin="round"/>
<path d="M143.693 123C143.693 123 137.496 125.011 132.074 136.643C126.049 149.586 114 189.901 114 189.901L134.225 197.335L156 144.601L143.693 123Z" fill="#2D3846"/>
<path d="M154.484 145.358L148.373 178.94L140.541 179.028C140.541 179.115 149.234 160.75 154.484 145.358Z" fill="#1D2D32"/>
<path d="M168.589 48.7313L145.939 65.6971C144.103 67.0964 145.152 69.9823 147.426 69.8948L178.996 68.9329C181.357 68.8454 183.719 68.1458 185.73 66.9215L208.905 52.4918C210.829 51.2674 210.042 48.3815 207.856 48.2066L177.51 46.0203C174.361 45.8454 171.125 46.8073 168.589 48.7313Z" fill="#2D3846"/>
<path d="M180.133 62.4605C180.133 62.4605 169.726 61.1487 164.916 69.894C160.719 77.5023 169.551 90.4453 169.551 90.4453L180.133 62.4605Z" fill="#2D3846"/>
<path d="M162.905 60.7994L165.266 67.1835C165.441 67.6207 165.878 68.058 166.316 67.8831C172.7 64.7348 186.605 61.5865 193.601 61.2367C194.038 61.2367 194.126 60.6245 194.126 60.2747L193.076 53.366C192.989 52.9287 192.639 52.5789 192.114 52.4914C184.768 51.5295 172.35 52.9287 163.342 59.6626C162.905 59.9249 162.73 60.4496 162.905 60.7994Z" fill="#FDB850"/>
<path d="M200.684 68.5822C200.684 68.5822 204.882 66.6583 205.844 72.4302C206.893 78.5519 199.46 82.2249 199.46 82.2249L200.684 68.5822Z" fill="#2D3846"/>
<path d="M175.935 64.2101C175.935 64.2101 187.217 54.2405 200.072 57.2139C207.156 58.8755 207.943 66.3964 202.521 71.906C201.471 73.0428 200.859 73.3052 199.023 74.4421L175.935 64.2101Z" fill="#2D3846"/>
<path d="M204.192 80.3992C204.332 70.2575 195.951 61.9182 185.471 61.7729C174.991 61.6276 166.381 69.7314 166.241 79.8731C166.1 90.0148 174.482 98.3541 184.962 98.4994C195.441 98.6446 204.051 90.5409 204.192 80.3992Z" fill="#2D3846"/>
<path d="M207.418 91.845C206.894 94.9059 203.57 97.2671 199.985 97.0922C196.399 96.9173 193.863 94.2937 194.388 91.2328C194.913 88.172 198.236 85.8108 201.821 85.9857C205.407 86.1606 207.943 88.7842 207.418 91.845Z" fill="#FFB1A7"/>
<path d="M187.829 102.164L186.604 118.867L170 116L175.585 91.4072L187.829 102.164Z" fill="#FFC9BD"/>
<path d="M187.042 113.358L178.384 104.7L187.567 105.925L187.042 113.358Z" fill="#FFB1A7"/>
<path d="M195.787 66.3094C201.034 67.2713 204.183 73.4805 204.445 78.6402C204.795 84.587 205.669 93.0699 203.57 97.53C201.297 102.34 197.449 105.663 192.114 106.275C186.954 106.887 181.97 104.351 178.996 100.328C176.985 97.6174 172.525 94.0319 170.426 87.9976C164.479 70.8569 183.544 64.123 195.787 66.3094Z" fill="#FFC9BD"/>
<path d="M200.684 85.8107C200.772 86.5103 201.384 86.9476 202.084 86.8602C202.783 86.7727 203.221 86.1605 203.133 85.4609C203.046 84.7613 202.433 84.324 201.734 84.4115C201.034 84.4115 200.597 85.1111 200.684 85.8107Z" fill="#1D2D32"/>
<path d="M190.015 85.4611C190.103 86.1607 190.715 86.598 191.415 86.5105C192.114 86.4231 192.552 85.8109 192.464 85.1113C192.377 84.4117 191.764 83.9744 191.065 84.0619C190.453 84.1493 189.928 84.7615 190.015 85.4611Z" fill="#1D2D32"/>
<path d="M198.148 87.6465L199.11 90.6199C199.198 90.9697 199.198 91.407 198.586 91.7568L197.099 92.194" stroke="#1D2D32" stroke-width="0.6283" stroke-miterlimit="10" stroke-linecap="round" stroke-linejoin="round"/>
<path d="M189.403 76.3658C189.403 76.3658 192.202 75.7536 193.339 76.7156C193.863 77.1529 193.863 77.94 193.426 78.3772C192.989 78.8145 192.114 79.3392 190.278 79.689C186.605 80.3886 185.118 80.3012 184.681 79.0768C184.244 77.6776 187.392 76.5407 189.403 76.3658Z" fill="#2D3846"/>
<path d="M204.007 76.8898C204.007 76.8898 200.859 75.3157 200.072 77.0647C200.072 77.0647 199.547 78.2016 202.258 79.5134C204.27 80.3879 205.144 80.213 205.494 79.4259C206.019 78.4639 205.232 77.3271 204.007 76.8898Z" fill="#2D3846"/>
<path d="M199.46 95.5844L191.765 94.9932C191.765 94.9932 191.622 98.0808 195.185 98.4092C198.748 98.672 199.46 95.5844 199.46 95.5844Z" fill="white"/>
<path d="M177.86 89.2219H179.171C179.958 89.2219 180.571 88.5223 180.483 87.7352L179.521 77.3283C179.521 77.3283 189.141 71.1192 182.932 63.3359C182.932 63.3359 171.388 62.6363 168.24 74.5298V86.8607L177.86 89.2219Z" fill="#2D3846"/>
<path d="M166.578 88.4343C165.791 91.4077 167.802 94.7309 171.038 95.8678C174.274 97.0047 177.422 95.518 178.209 92.5446C178.996 89.5712 176.985 86.248 173.749 85.1111C170.601 84.0617 167.365 85.4609 166.578 88.4343Z" fill="#FFC9BD"/>
<path d="M169.727 88.7841C169.727 88.7841 173.312 87.997 175.061 91.845" stroke="#1D2D32" stroke-width="0.6283" stroke-miterlimit="10" stroke-linecap="round" stroke-linejoin="round"/>
<path d="M242.881 130.229L223.714 119.656L202.955 153.48C199.979 158.688 201.629 164.185 206.943 167C211.936 169.602 218.062 168.854 220.943 164L242.881 130.229Z" fill="#2D3846"/>
</g>
<mask id="mask1" mask-type="alpha" maskUnits="userSpaceOnUse" x="228" y="91" width="180" height="138">
<rect x="228" y="91" width="180" height="138" fill="#C4C4C4"/>
</mask>
<g mask="url(#mask1)">
<path d="M393.986 133H387.262H295.886H268.067C265.844 133 264 134.875 264 137.136V224.864C264 227.125 265.844 229 268.067 229H370.613H393.932C396.155 229 397.999 227.07 397.999 224.864V137.136C398.053 134.93 396.155 133 393.986 133Z" fill="#F9F9FA"/>
<path d="M393.934 132H387.213H295.874H268.066C265.843 132 264 134.073 264 136.573V142H398V136.573C398 134.134 396.103 132 393.934 132Z" fill="#FDB850"/>
<circle cx="279" cy="136.715" r="2" fill="#F6E9C8"/>
<circle cx="272" cy="136.715" r="2" fill="#F6E9C8"/>
<circle cx="286" cy="136.715" r="2" fill="#F6E9C8"/>
<path d="M331.264 166.378C339.123 170.005 341.714 180.022 336.532 186.931C335.928 187.708 335.323 188.485 334.632 189.263C327.983 197.121 310.279 213.098 299.485 222.683C294.562 227.088 287.049 226.742 282.472 221.992C277.895 217.243 277.895 209.816 282.386 205.066C282.386 205.066 303.025 181.059 315.72 169.487C319.951 165.514 325.997 163.96 331.264 166.378Z" fill="#2D3846"/>
<path d="M251.19 178.929L260.869 189.861L267.869 181.861L256.916 172.467L251.19 178.929Z" fill="#FFC9BD"/>
<path d="M271.21 177.162L255.67 192.578L282.282 222.018C286.442 226.34 293.375 226.345 297.572 222.037C301.474 217.979 302.441 211.346 298.593 207.215L271.21 177.162Z" fill="#2D3846"/>
<path d="M332.994 162.578C332.994 162.578 345.689 164.651 355.879 170.178C358.384 171.559 360.024 174.236 360.37 177.086L365.897 231.233L317.536 230.11L308.9 182.095C308.382 179.418 309.159 176.741 310.887 174.668C313.995 171.041 319.091 165.601 323.408 164.133L332.994 162.578Z" fill="#2D3846"/>
<path d="M338.694 163.788C338.694 163.788 334.98 162.665 332.994 162.579L323.322 164.134C323.322 164.134 321.163 164.824 319.004 166.552L324.272 179.074L338.694 163.788Z" fill="#FFC9BD"/>
<path d="M332.562 170.266L320.818 170.784L324.272 179.074L332.562 170.266Z" fill="white"/>
<path d="M338.694 163.788C338.694 163.788 343.012 164.911 345.257 165.688L324.013 185.809L324.186 179.074L338.694 163.788Z" fill="#FDB850"/>
<path d="M324.272 179.074L319.004 166.552C319.004 166.552 317.104 168.02 315.636 169.402L324.099 185.723L324.272 179.074Z" fill="#FDB850"/>
<path d="M310.718 187.104C310.718 187.104 308.296 194.531 308.382 210.421L313.563 206.103C311.232 198.677 310.718 187.104 310.718 187.104Z" fill="#1D2D32"/>
<path d="M354.15 169.314C354.15 169.314 360.367 171.301 365.808 182.786C371.853 195.567 383.943 235.379 383.943 235.379L363.649 242.719L341.8 190.645L354.15 169.314Z" fill="#2D3846"/>
<path d="M358.727 231.06C358.727 231.06 350.955 215.861 344.996 195.739" stroke="#1D2D32" stroke-width="0.5948" stroke-miterlimit="10" stroke-linecap="round" stroke-linejoin="round"/>
<path d="M345.514 197.553C345.514 197.553 345.169 214.134 350.782 230.973L358.641 231.06C358.727 231.06 350.782 212.838 345.514 197.553Z" fill="#1D2D32"/>
<path d="M331.178 98.5867L357.69 112.318C359.849 113.44 359.245 116.636 356.913 116.981L323.838 121.385C321.334 121.731 318.829 121.385 316.498 120.435L289.813 109.381C287.568 108.432 287.827 105.236 290.158 104.718L321.334 97.3777C324.615 96.6004 328.156 97.0322 331.178 98.5867Z" fill="#2D3846"/>
<path d="M350.853 151.803C352.004 145.953 348.195 140.278 342.345 139.126C336.496 137.975 330.82 141.784 329.669 147.634C328.518 153.483 332.327 159.159 338.176 160.31C344.026 161.461 349.701 157.652 350.853 151.803Z" fill="#1D2D32"/>
<path d="M340.592 142.583C341.847 137.292 338.576 131.986 333.286 130.73C327.996 129.475 322.689 132.746 321.434 138.036C320.178 143.327 323.449 148.633 328.74 149.888C334.03 151.144 339.336 147.873 340.592 142.583Z" fill="#4EC4A4"/>
<path d="M342.232 130.021C343.182 140.556 335.064 149.883 324.096 150.919C313.043 151.956 303.37 144.27 302.334 133.734C301.384 123.198 309.588 114.822 320.556 113.785C331.523 112.835 341.195 119.571 342.232 130.021Z" fill="#1D2D32"/>
<path d="M338.605 110.504L337.309 117.585C337.223 118.017 336.878 118.621 336.359 118.449C329.364 116.29 314.856 115.426 307.775 116.203C307.343 116.29 307.17 115.685 307.084 115.253L306.998 107.827C306.998 107.308 307.343 106.877 307.861 106.79C315.029 104.545 327.81 103.854 338 109.295C338.346 109.554 338.605 109.986 338.605 110.504Z" fill="#FDB850"/>
<path d="M326.428 116.808C326.428 116.808 307.43 104.89 299.226 115.167C289.553 127.343 316.584 145.133 329.71 131.748L326.428 116.808Z" fill="#1D2D32"/>
<path d="M309.329 141.851C308.725 144.701 306.048 146.515 303.198 145.91C300.348 145.305 298.535 142.628 299.139 139.779C299.744 136.929 302.421 135.115 305.271 135.72C308.12 136.324 309.934 139.088 309.329 141.851Z" fill="#FFC9BD"/>
<path d="M319.52 150.833L320 166.785L336.359 165.946L330.5 142.785L319.52 150.833Z" fill="#FFC9BD"/>
<path d="M303.889 123.285C302.68 124.495 301.989 126.135 301.817 127.862C301.298 132.871 300.176 141.766 302.421 146.861C305.357 153.511 311.316 157.742 320.124 155.238C320.124 155.238 330.747 153.165 331.696 139.348C333.165 117.327 314.166 112.836 303.889 123.285Z" fill="#FFC9BD"/>
<path d="M307.516 140.47L307.084 142.197C307.084 142.456 307.257 142.715 307.516 142.801L308.811 142.888" stroke="#1D2D32" stroke-width="0.5813" stroke-miterlimit="10" stroke-linecap="round" stroke-linejoin="round"/>
<path d="M315.288 127.516C315.288 127.516 310.797 126.912 310.625 128.898C310.625 128.898 310.538 130.28 314.424 130.711C318.311 131.143 319.865 131.057 320.297 129.762C320.815 128.553 317.361 127.689 315.288 127.516Z" fill="#1D2D32"/>
<path d="M302.162 129.071C302.162 129.071 305.098 127.516 305.961 128.984C305.961 128.984 306.566 130.021 303.975 131.23C302.075 132.18 301.298 132.007 300.866 131.316C300.348 130.625 301.039 129.589 302.162 129.071Z" fill="#1D2D32"/>
<path d="M315.72 145.565H307.516C307.516 145.565 308.379 148.415 311.229 148.329C314.597 148.329 315.72 145.565 315.72 145.565Z" fill="white"/>
<path d="M317.879 135.039C317.879 135.039 314.942 133.657 312.783 135.039" stroke="#1D2D32" stroke-width="0.93" stroke-miterlimit="10" stroke-linecap="round" stroke-linejoin="round"/>
<path d="M302.334 135.039C302.334 135.039 304.407 133.657 305.875 135.039" stroke="#1D2D32" stroke-width="0.7801" stroke-miterlimit="10" stroke-linecap="round" stroke-linejoin="round"/>
<path d="M328.587 138.829C328.587 138.829 319.865 125.185 328.76 121.558L335.237 128.121L336.878 133.389L337.31 137.707L328.587 138.829Z" fill="#1D2D32"/>
<path d="M338.26 140.47C337.655 143.32 334.892 145.22 331.956 144.615C329.106 144.011 327.206 141.247 327.81 138.311C328.415 135.461 331.178 133.562 334.114 134.166C336.964 134.771 338.864 137.62 338.26 140.47Z" fill="#FFC9BD"/>
<path d="M335.583 138.139C335.583 138.139 331.438 137.189 331.092 141.679" stroke="#1D2D32" stroke-width="0.5813" stroke-miterlimit="10" stroke-linecap="round" stroke-linejoin="round"/>
<path d="M320.038 155.238L327.206 152.906L320.815 161.888L320.038 155.238Z" fill="#FFC9BD"/>
<path d="M301.125 120.608C301.125 120.608 305.184 127.689 332.301 124.149L314.338 114.477C296.635 116.808 301.125 120.608 301.125 120.608Z" fill="#1D2D32"/>
<path d="M257.286 172.715L251.672 179.192L240.878 173.147L247.355 162.784L255.99 169.261L257.286 172.715Z" fill="#FFC9BD"/>
<path d="M253.443 145.15L245.678 168.655C245.647 168.749 245.602 168.839 245.544 168.921L229.492 191.485C229.155 191.958 229.291 192.617 229.787 192.919L239.322 198.724C239.863 199.053 240.569 198.803 240.783 198.208L249.906 172.814C249.934 172.736 249.972 172.661 250.019 172.592L263.823 152.168C264.127 151.719 264.017 151.11 263.576 150.794L254.974 144.65C254.426 144.258 253.655 144.51 253.443 145.15Z" fill="#FFFCF4"/>
<path d="M252.369 169.361L246.923 166.239L244.332 169.694L249.945 172.716L252.369 169.361Z" fill="#F35843"/>
<path d="M250.794 167.361C250.325 166.276 250.825 165.017 251.91 164.548V164.548C253.041 164.06 254.35 164.625 254.77 165.783L256.628 170.903C256.994 171.912 256.49 173.028 255.491 173.42V173.42C254.498 173.809 253.375 173.341 252.952 172.362L250.794 167.361Z" fill="#FFC9BD"/>
<path d="M245.374 165.213C244.546 164.734 244.262 163.675 244.74 162.846V162.846C245.246 161.971 246.391 161.712 247.224 162.287L249.215 163.66C249.93 164.153 250.135 165.118 249.682 165.859V165.859C249.219 166.616 248.237 166.866 247.469 166.422L245.374 165.213Z" fill="#FFC9BD"/>
<path d="M243.674 167.64C242.845 167.161 242.561 166.102 243.039 165.273V165.273C243.545 164.397 244.691 164.139 245.523 164.713L247.514 166.087C248.229 166.58 248.434 167.545 247.981 168.286V168.286C247.519 169.043 246.537 169.293 245.768 168.849L243.674 167.64Z" fill="#FFC9BD"/>
<path d="M241.946 170.23C241.118 169.752 240.834 168.693 241.312 167.864V167.864C241.818 166.988 242.964 166.73 243.796 167.304L245.787 168.678C246.502 169.17 246.707 170.136 246.254 170.876V170.876C245.792 171.633 244.81 171.883 244.041 171.44L241.946 170.23Z" fill="#FFC9BD"/>
<path d="M240.926 173.138C240.098 172.659 239.814 171.6 240.292 170.771V170.771C240.798 169.895 241.944 169.637 242.776 170.211L244.767 171.585C245.482 172.078 245.687 173.043 245.234 173.784V173.784C244.772 174.541 243.79 174.791 243.021 174.347L240.926 173.138Z" fill="#FFC9BD"/>
<path d="M330 150.285L319.5 155.285L320 162.785L330 150.285Z" fill="#FFB1A7"/>
</g>
</svg>
