<svg width="736" height="344" viewBox="0 0 736 344" fill="none" xmlns="http://www.w3.org/2000/svg">
<path opacity="0.3" d="M70.3413 144.434C55.393 190.562 52.8411 350.934 245.395 274.236C357.315 222.537 552.341 358.934 572.341 220.934C586.841 51.4342 459.429 202.647 226.361 70.8876C109.864 5.029 83.1005 105.061 70.3413 144.434Z" fill="#2493DF"/>
<mask id="mask0" mask-type="alpha" maskUnits="userSpaceOnUse" x="70" y="62" width="519" height="229">
<path d="M588.842 62.4341H70.8418V290.434H588.842V62.4341Z" fill="#C4C4C4"/>
</mask>
<g mask="url(#mask0)">
<path d="M375.919 290C338.595 290 308.254 269.202 308.254 243.656V186.86C308.254 183.626 312.088 181 316.81 181C321.533 181 325.367 183.626 325.367 186.86V243.639C325.367 262.75 348.066 278.279 375.944 278.279C380.667 278.279 384.5 280.905 384.5 284.14C384.475 287.374 380.641 290 375.919 290Z" fill="#2493DF"/>
<path d="M316.783 181H225.531L231.091 226.857L228.425 261.341L273.95 281.201L284.665 290H375.917L351.111 279.218L332.627 264.872L325.213 261.776L319.043 233.9L318.637 200.39L316.783 181Z" fill="#2493DF"/>
<path d="M284.471 289C232.025 290 217 269.202 217 243.656V186.86C217 183.626 220.821 181 225.529 181C230.236 181 234.058 183.626 234.058 186.86V243.639C234.058 262.75 256.683 278.279 284.471 278.279C289.178 278.279 293 280.905 293 284.14C292.975 287.374 289.178 289 284.471 289Z" fill="#C8D2DB"/>
<path d="M366.67 253.758L423.315 265.686L426.362 277.03L352.197 278.096L346.256 247.312L366.67 253.758Z" fill="#F9A498"/>
<path d="M414.706 265.026C414.706 265.026 426.284 257.997 437.761 260.94C445.327 262.869 452.817 270.153 452.233 277.919L406.15 277.335L414.706 265.026Z" fill="#F9A498"/>
<path d="M369.919 212.848L376.444 261.321C376.444 261.321 348.134 276.218 348.743 274.416C349.327 272.614 342.396 212.848 342.396 212.848H369.919Z" fill="#F9A498"/>
<path d="M344.629 172.751C344.629 172.751 365.399 176.024 370.147 193.739C376.316 216.833 378.678 220.157 378.678 220.157L347.27 224.725L344.629 172.751Z" fill="#2D3846"/>
<path d="M304.692 166.863L344.631 172.751C348.668 173.36 351.69 176.811 351.74 180.897L352.68 275.584L263.586 275.837L257.543 193.231L260.843 182.039C262.392 176.811 266.81 172.928 272.193 172.066L304.692 166.863Z" fill="#2D3846"/>
<path d="M278.54 219.853L261.858 262.945L236.113 240.562L246.116 209.549L278.54 219.853Z" fill="#FFB0A0"/>
<path d="M294.79 170.213C294.79 170.213 263.788 169.934 256.07 179.095C246.371 190.617 234.844 220.081 234.844 220.081L285.268 231.197L294.79 170.213Z" fill="#2D3846"/>
<path d="M264.728 255.763L322.922 268.731L320.536 281.624L251.753 282.08C251.753 282.08 221.006 275.888 236.113 240.587L264.728 255.763Z" fill="#FFB0A0"/>
<path d="M322.922 268.706C322.922 268.706 336.607 263.351 347.931 265.483C355.624 266.93 360.779 274.239 360.195 282.055L314.492 281.649L322.922 268.706Z" fill="#FFB0A0"/>
<path d="M331.352 96.3621C331.352 96.3621 347.195 111.234 331.58 116.614L331.352 96.3621Z" fill="#2D3846"/>
<path d="M321.931 122.857C321.779 128.897 326.375 133.947 332.24 134.125C338.079 134.302 342.954 129.557 343.132 123.517C343.284 117.477 338.689 112.426 332.824 112.249C326.959 112.071 322.084 116.817 321.931 122.857Z" fill="#2493DF"/>
<path d="M319.037 146.18L319.875 167.269C320.18 174.68 315.914 178.791 308.856 178.994C302.813 179.171 296.084 176.507 296.084 169.959L296.313 136.714L319.037 146.18Z" fill="#FFB0A0"/>
<path d="M319.647 160.214C319.647 160.214 302.508 162.346 296.415 143.21C294.485 137.196 319.012 144.022 319.012 144.022L319.647 160.214Z" fill="#F4ABA2"/>
<path d="M312.943 152.575C325.003 152.118 334.55 141.942 334.499 131.765L334.271 110.498C334.22 97.7578 324.368 87.3273 312.029 86.9467C299.384 86.5406 286.639 96.7173 286.283 109.762L286.664 126.334C286.994 141.256 298.496 152.118 312.943 152.575Z" fill="#FFB0A0"/>
<path d="M321.56 138.129C321.56 138.129 318.114 138.951 315.336 135.481" stroke="#2D3846" stroke-width="0.7051" stroke-miterlimit="10" stroke-linecap="round" stroke-linejoin="round"/>
<path d="M321.855 126.004L322.413 130.09L319.443 130.318" stroke="#2D3846" stroke-width="0.5266" stroke-miterlimit="10" stroke-linecap="round" stroke-linejoin="round"/>
<path d="M308.475 113.569C308.475 113.569 313.401 112.96 313.528 115.015C313.528 115.015 313.579 116.411 309.288 116.868C304.997 117.325 303.854 117.046 303.423 115.726C302.966 114.457 306.165 113.67 308.475 113.569Z" fill="#2D3846"/>
<path d="M328.38 112.883C328.38 112.883 324.292 112.604 324.038 114.584C324.038 114.584 323.886 115.903 327.466 116.056C331.046 116.208 332.189 115.7 332.493 114.609C332.823 113.391 330.31 112.832 328.38 112.883Z" fill="#2D3846"/>
<path d="M325.816 121.639C325.816 122.832 326.756 123.771 327.898 123.771C329.041 123.771 329.955 122.806 329.955 121.613C329.955 120.421 329.016 119.482 327.873 119.482C326.73 119.482 325.816 120.446 325.816 121.639Z" fill="#2D3846"/>
<path d="M307.637 121.74C307.637 122.933 308.577 123.872 309.719 123.872C310.862 123.872 311.776 122.908 311.776 121.715C311.776 120.522 310.837 119.583 309.694 119.583C308.551 119.609 307.637 120.573 307.637 121.74Z" fill="#2D3846"/>
<path d="M346.943 89.2053L337.802 87.911C340.468 86.2106 343.16 84.5357 343.16 84.5357C343.16 84.5357 336.914 82.3785 328.611 82.4039C323.203 79.4854 316.271 77.4805 309.01 77.4044C298.397 77.2775 289.332 83.0384 286.057 89.3576C286.057 89.3576 277.247 88.8246 276.028 98.7983C274.454 111.716 290.018 133.059 290.018 133.059L291.77 116.182C301.418 115.497 301.85 106.995 301.113 101.438C305.455 101.818 320.41 102.783 332.115 100.194C333.384 100.042 335.111 99.7119 336.584 98.9506C342.093 97.0218 346.232 93.9764 346.943 89.2053Z" fill="#2D3846"/>
<path d="M275.57 126.334C275.443 131.156 279.125 135.191 283.796 135.343C288.468 135.495 292.378 131.689 292.505 126.867C292.632 122.045 288.951 118.01 284.279 117.857C279.607 117.73 275.722 121.512 275.57 126.334Z" fill="#FFBA99"/>
<path d="M286.894 128.795C286.894 128.795 287.071 122.451 281.156 123.263" stroke="#2D3846" stroke-width="0.5575" stroke-miterlimit="10" stroke-linecap="round" stroke-linejoin="round"/>
<path d="M316.955 77.0743L317.209 78.2925C317.209 78.2925 301.899 79.8913 294.916 89.2052C287.147 99.5849 287.02 113.568 287.02 113.568L283.719 113.848L283.948 91.6669L290.575 84.764L301.162 78.4448L308.576 76.0846L316.955 77.0743Z" fill="#2493DF"/>
<path d="M296.237 121.613C297.811 128.897 293.114 136.104 283.872 138.109C277.322 139.531 274.148 134.023 272.574 126.74C270.999 119.456 275.011 112.401 281.562 110.98C288.062 109.584 294.663 114.33 296.237 121.613Z" fill="#2493DF"/>
<path d="M292.835 122.35C294.409 129.634 290.397 136.689 283.847 138.11C277.296 139.531 270.72 134.76 269.146 127.477C267.572 120.193 271.583 113.138 278.134 111.717C284.685 110.321 291.261 115.067 292.835 122.35Z" fill="#2493DF"/>
<path d="M278.945 113.289C278.945 113.289 277.675 105.194 279.605 96.3365C282.042 85.1447 291.005 77.1505 302.304 75.0948C303.167 74.9426 304.081 74.7903 305.02 74.6634C308.296 74.232 311.85 74.3081 314.821 75.7801C315.583 76.1607 316.294 76.5922 316.928 77.0744C316.928 77.0744 302.05 77.6834 294.89 85.6522C286.816 94.6108 284.708 106.64 285.216 114.66L278.945 113.289Z" fill="#2493DF"/>
<path d="M287.908 169.553L304.691 166.863L327.009 170.162C327.009 170.162 328.38 183.181 309.516 183.714C290.651 184.247 287.908 169.553 287.908 169.553Z" fill="#FFB0A0"/>
<path d="M318.545 233.354L326.466 239.039L382.68 191.632L519.534 116.106L512.145 110.751L418.252 139.581L318.545 233.354Z" fill="#6B7F99"/>
<path d="M337.969 115.116L315.676 225.766C314.711 230.512 318.342 234.927 323.166 234.927H483.556C487.162 234.927 490.285 232.415 491.047 228.887L514.736 118.238C515.751 113.467 512.12 109 507.245 109H345.459C341.828 108.975 338.68 111.563 337.969 115.116Z" fill="#6B7F99"/>
<path d="M345.205 120.344L322.912 230.994C321.948 235.74 325.578 240.155 330.403 240.155H490.793C494.398 240.155 497.521 237.643 498.283 234.115L521.972 123.466C522.988 118.695 519.357 114.228 514.482 114.228H352.695C349.039 114.203 345.916 116.766 345.205 120.344Z" fill="#C8D2DB"/>
<path d="M403.576 210.894L400.58 240.155H413.605L403.576 210.894Z" fill="#6B7F99"/>
<path d="M403.576 210.285L416.856 275.786H465.275L442.576 210.285H403.576Z" fill="#C8D2DB"/>
<path d="M428.993 170.619C434.924 170.619 439.733 165.812 439.733 159.884C439.733 153.955 434.924 149.149 428.993 149.149C423.061 149.149 418.252 153.955 418.252 159.884C418.252 165.812 423.061 170.619 428.993 170.619Z" fill="white"/>
<path d="M493.839 270H380.161C378.416 270 377 271.344 377 273C377 274.656 378.416 276 380.161 276H493.839C495.584 276 497 274.656 497 273C497 271.344 495.584 270 493.839 270Z" fill="#C8D2DB"/>
<path d="M360.817 270H300.183C298.426 270 297 271.344 297 273C297 274.656 298.426 276 300.183 276H360.817C362.574 276 364 274.656 364 273C364 271.344 362.574 270 360.817 270Z" fill="#C8D2DB"/>
<path d="M187 106H246C246.552 106 247 106.448 247 107V144C247 144.552 246.552 145 246 145H187C186.448 145 186 144.552 186 144V107C186 106.448 186.448 106 187 106Z" fill="white" stroke="#6B7F99" stroke-width="2"/>
<path d="M228.46 126.681C228.316 127.125 227.589 127.351 227.388 127.782C227.194 128.207 227.495 128.902 227.244 129.308C226.994 129.715 226.23 129.759 225.941 130.121C225.647 130.497 225.772 131.247 225.44 131.572C225.184 131.829 224.682 131.804 224.294 131.91C224.275 131.916 224.257 131.923 224.238 131.929C224.2 131.941 224.163 131.954 224.125 131.973C224.075 131.998 224.025 132.023 223.981 132.054C223.931 132.092 223.887 132.142 223.849 132.192C223.586 132.536 223.499 133.13 223.148 133.343C222.741 133.58 222.045 133.267 221.613 133.455C221.181 133.643 220.943 134.368 220.492 134.506C220.041 134.643 219.44 134.168 218.976 134.249C218.65 134.306 218.362 134.637 218.055 134.837C218.043 134.844 218.03 134.856 218.018 134.862C217.98 134.887 217.936 134.912 217.899 134.931C217.817 134.969 217.729 135 217.642 135C217.617 135 217.592 135 217.567 135C217.266 134.975 216.965 134.719 216.658 134.55C216.521 134.468 216.376 134.406 216.239 134.393L216.176 134.368L216.17 134.393C215.719 134.406 215.199 134.887 214.754 134.8C214.291 134.712 213.984 134.018 213.533 133.868C213.088 133.724 212.43 134.112 211.998 133.905C211.572 133.712 211.441 132.961 211.033 132.711C210.783 132.554 210.407 132.579 210.069 132.548C209.862 132.529 209.668 132.492 209.53 132.386C209.16 132.092 209.204 131.328 208.879 130.997C208.547 130.659 207.782 130.691 207.501 130.321C207.212 129.946 207.444 129.221 207.2 128.814C206.956 128.408 206.21 128.257 206.022 127.826C205.803 127.388 206.198 126.744 206.06 126.287C205.922 125.837 205.233 125.512 205.152 125.049C205.07 124.586 205.615 124.048 205.59 123.579C205.565 123.11 204.97 122.634 205.001 122.159C205.033 121.69 205.69 121.302 205.778 120.833C205.866 120.37 205.408 119.764 205.552 119.313C205.696 118.869 206.423 118.644 206.624 118.212C206.818 117.787 206.517 117.093 206.768 116.686C207.018 116.28 207.782 116.236 208.071 115.873C208.371 115.498 208.24 114.747 208.572 114.422C208.91 114.091 209.662 114.228 210.031 113.947C210.407 113.659 210.463 112.896 210.87 112.658C211.278 112.414 211.973 112.733 212.405 112.546C212.837 112.358 213.075 111.632 213.526 111.495C213.977 111.357 214.579 111.833 215.042 111.751C215.506 111.67 215.913 111.026 216.383 111.001C216.853 110.976 217.322 111.576 217.792 111.607C218.262 111.639 218.807 111.107 219.277 111.201C219.74 111.288 220.047 111.983 220.498 112.133C220.943 112.277 221.601 111.889 222.033 112.095C222.459 112.289 222.59 113.04 222.997 113.29C223.405 113.54 224.137 113.321 224.501 113.615C224.877 113.909 224.827 114.672 225.152 115.004C225.484 115.342 226.248 115.31 226.53 115.679C226.818 116.055 226.587 116.78 226.831 117.187C227.069 117.593 227.821 117.743 228.009 118.175C228.197 118.606 227.802 119.257 227.94 119.707C228.077 120.158 228.767 120.483 228.848 120.946C228.929 121.409 228.384 121.946 228.416 122.416C228.441 122.885 229.036 123.36 228.998 123.835C228.967 124.304 228.316 124.692 228.222 125.161C228.14 125.618 228.604 126.225 228.46 126.681Z" fill="#FDB850"/>
<path d="M218.699 139.205C219.234 139.039 220.561 138.493 220.423 137.141C220.411 137.062 220.328 137.002 220.234 137.027C219.788 137.118 218.616 137.505 218.497 139.077C218.486 139.169 218.598 139.237 218.699 139.205Z" fill="#6B7F99"/>
<path d="M221.232 140.527C220.678 140.636 219.229 140.785 218.58 139.557C218.539 139.485 218.585 139.394 218.672 139.368C219.105 139.241 220.328 139.027 221.326 140.317C221.394 140.398 221.34 140.51 221.232 140.527Z" fill="#6B7F99"/>
<path d="M221.005 138.438C221.492 138.191 222.684 137.434 222.251 136.135C222.225 136.056 222.126 136.017 222.039 136.049C221.619 136.213 220.549 136.782 220.772 138.337C220.783 138.43 220.903 138.484 221.005 138.438Z" fill="#6B7F99"/>
<path d="M223.799 139.305C223.277 139.501 221.877 139.886 220.973 138.792C220.918 138.726 220.943 138.634 221.023 138.594C221.423 138.394 222.588 137.986 223.85 139.079C223.926 139.152 223.9 139.273 223.799 139.305Z" fill="#6B7F99"/>
<path d="M223.243 137.411C223.703 137.127 224.812 136.282 224.241 135.028C224.208 134.956 224.102 134.924 224.022 134.964C223.622 135.156 222.613 135.813 223.002 137.338C223.028 137.425 223.155 137.465 223.243 137.411Z" fill="#6B7F99"/>
<path d="M226.129 138.053C225.627 138.292 224.274 138.78 223.251 137.774C223.189 137.715 223.207 137.616 223.28 137.568C223.66 137.339 224.778 136.844 226.158 137.826C226.242 137.886 226.223 138.007 226.129 138.053Z" fill="#6B7F99"/>
<path d="M225.427 136.097C225.86 135.777 226.878 134.85 226.178 133.649C226.137 133.576 226.031 133.558 225.951 133.598C225.571 133.82 224.631 134.55 225.172 136.031C225.211 136.125 225.339 136.158 225.427 136.097Z" fill="#6B7F99"/>
<path d="M228.37 136.513C227.896 136.781 226.589 137.377 225.464 136.454C225.394 136.401 225.405 136.302 225.471 136.247C225.823 135.996 226.887 135.413 228.371 136.285C228.462 136.345 228.465 136.459 228.37 136.513Z" fill="#6B7F99"/>
<path d="M227.468 134.543C227.846 134.171 228.697 133.131 227.785 132.037C227.73 131.97 227.623 131.967 227.55 132.021C227.212 132.287 226.403 133.129 227.205 134.519C227.259 134.599 227.394 134.611 227.468 134.543Z" fill="#6B7F99"/>
<path d="M230.467 134.568C230.041 134.895 228.85 135.652 227.569 134.887C227.492 134.842 227.481 134.749 227.547 134.687C227.851 134.391 228.812 133.676 230.432 134.346C230.531 134.385 230.548 134.507 230.467 134.568Z" fill="#6B7F99"/>
<path d="M229.193 132.778C229.494 132.36 230.135 131.213 229.025 130.269C228.962 130.217 228.848 130.22 228.788 130.282C228.506 130.593 227.865 131.533 228.929 132.783C228.997 132.87 229.133 132.861 229.193 132.778Z" fill="#6B7F99"/>
<path d="M232.167 132.376C231.811 132.763 230.778 133.675 229.362 133.112C229.277 133.081 229.252 132.987 229.297 132.917C229.545 132.584 230.353 131.742 232.089 132.159C232.196 132.184 232.234 132.3 232.167 132.376Z" fill="#6B7F99"/>
<path d="M230.577 131.266C230.807 130.824 231.25 129.621 229.992 128.806C229.915 128.761 229.808 128.779 229.762 128.848C229.536 129.19 229.058 130.186 230.319 131.306C230.395 131.373 230.532 131.35 230.577 131.266Z" fill="#6B7F99"/>
<path d="M233.467 130.553C233.181 130.971 232.302 131.981 230.801 131.572C230.709 131.547 230.669 131.46 230.708 131.39C230.899 131.033 231.567 130.123 233.36 130.357C233.467 130.36 233.527 130.469 233.467 130.553Z" fill="#6B7F99"/>
<path d="M231.719 129.257C231.907 128.8 232.25 127.579 230.925 126.848C230.848 126.802 230.74 126.827 230.694 126.904C230.496 127.254 230.11 128.281 231.467 129.32C231.55 129.38 231.687 129.349 231.719 129.257Z" fill="#6B7F99"/>
<path d="M234.545 128.365C234.294 128.799 233.506 129.862 231.974 129.552C231.881 129.534 231.827 129.447 231.858 129.377C232.014 129.011 232.598 128.055 234.416 128.176C234.523 128.179 234.591 128.281 234.545 128.365Z" fill="#6B7F99"/>
<path d="M232.649 127.237C232.815 126.779 233.109 125.548 231.754 124.838C231.677 124.8 231.569 124.824 231.531 124.894C231.347 125.251 231.003 126.281 232.404 127.292C232.48 127.359 232.61 127.328 232.649 127.237Z" fill="#6B7F99"/>
<path d="M235.434 126.292C235.197 126.733 234.459 127.805 232.911 127.523C232.819 127.505 232.765 127.425 232.789 127.347C232.931 126.974 233.479 126.017 235.291 126.101C235.405 126.105 235.48 126.208 235.434 126.292Z" fill="#6B7F99"/>
<path d="M233.295 125.141C233.448 124.676 233.691 123.444 232.315 122.732C232.231 122.687 232.13 122.719 232.092 122.789C231.922 123.146 231.614 124.177 233.05 125.197C233.134 125.264 233.263 125.233 233.295 125.141Z" fill="#6B7F99"/>
<path d="M236.036 124.204C235.82 124.646 235.118 125.719 233.57 125.43C233.478 125.412 233.416 125.332 233.448 125.254C233.575 124.881 234.081 123.922 235.893 124.006C236 124.01 236.075 124.113 236.036 124.204Z" fill="#6B7F99"/>
<path d="M234.114 121.163C233.758 121.521 232.964 122.549 233.918 123.666C233.973 123.732 234.087 123.743 234.153 123.688C234.477 123.429 235.242 122.607 234.37 121.193C234.323 121.106 234.188 121.087 234.114 121.163Z" fill="#6B7F99"/>
<path d="M214.646 139.205C214.111 139.038 212.784 138.493 212.922 137.14C212.934 137.062 213.018 137.002 213.111 137.027C213.558 137.118 214.729 137.505 214.849 139.077C214.859 139.169 214.747 139.237 214.646 139.205Z" fill="#6B7F99"/>
<path d="M212.112 140.527C212.666 140.636 214.115 140.785 214.765 139.557C214.805 139.484 214.759 139.393 214.672 139.368C214.239 139.24 213.017 139.027 212.019 140.316C211.95 140.397 212.004 140.51 212.112 140.527Z" fill="#6B7F99"/>
<path d="M212.338 138.437C211.85 138.191 210.658 137.434 211.091 136.135C211.117 136.056 211.216 136.017 211.303 136.049C211.723 136.213 212.794 136.781 212.57 138.337C212.559 138.43 212.439 138.484 212.338 138.437Z" fill="#6B7F99"/>
<path d="M209.546 139.305C210.068 139.5 211.468 139.886 212.372 138.792C212.427 138.726 212.403 138.634 212.323 138.594C211.923 138.394 210.758 137.986 209.495 139.078C209.419 139.152 209.445 139.273 209.546 139.305Z" fill="#6B7F99"/>
<path d="M210.102 137.411C209.641 137.127 208.532 136.282 209.103 135.028C209.136 134.956 209.242 134.923 209.322 134.963C209.722 135.156 210.731 135.813 210.342 137.338C210.316 137.424 210.189 137.465 210.102 137.411Z" fill="#6B7F99"/>
<path d="M207.216 138.053C207.717 138.292 209.071 138.78 210.093 137.774C210.155 137.715 210.137 137.615 210.064 137.568C209.685 137.339 208.567 136.843 207.186 137.826C207.103 137.886 207.121 138.006 207.216 138.053Z" fill="#6B7F99"/>
<path d="M207.918 136.097C207.485 135.777 206.466 134.85 207.167 133.649C207.207 133.576 207.314 133.558 207.394 133.598C207.773 133.82 208.713 134.55 208.173 136.031C208.133 136.125 208.005 136.158 207.918 136.097Z" fill="#6B7F99"/>
<path d="M204.975 136.513C205.449 136.781 206.756 137.377 207.881 136.454C207.951 136.401 207.94 136.302 207.874 136.247C207.522 135.995 206.458 135.412 204.974 136.284C204.883 136.345 204.88 136.459 204.975 136.513Z" fill="#6B7F99"/>
<path d="M205.876 134.542C205.499 134.171 204.647 133.131 205.559 132.036C205.614 131.97 205.721 131.966 205.794 132.021C206.132 132.287 206.941 133.129 206.14 134.519C206.085 134.599 205.95 134.611 205.876 134.542Z" fill="#6B7F99"/>
<path d="M202.878 134.568C203.304 134.895 204.495 135.652 205.776 134.887C205.853 134.842 205.864 134.748 205.797 134.687C205.494 134.391 204.533 133.676 202.913 134.346C202.814 134.385 202.797 134.507 202.878 134.568Z" fill="#6B7F99"/>
<path d="M204.15 132.777C203.849 132.36 203.209 131.213 204.319 130.269C204.381 130.216 204.496 130.22 204.555 130.282C204.837 130.593 205.478 131.533 204.414 132.782C204.346 132.87 204.21 132.861 204.15 132.777Z" fill="#6B7F99"/>
<path d="M201.178 132.376C201.534 132.763 202.567 133.675 203.984 133.112C204.068 133.08 204.094 132.987 204.048 132.917C203.801 132.583 202.992 131.742 201.256 132.159C201.15 132.184 201.111 132.3 201.178 132.376Z" fill="#6B7F99"/>
<path d="M202.767 131.265C202.537 130.824 202.094 129.62 203.352 128.806C203.429 128.761 203.537 128.778 203.582 128.848C203.808 129.19 204.287 130.185 203.025 131.306C202.949 131.373 202.813 131.349 202.767 131.265Z" fill="#6B7F99"/>
<path d="M199.875 130.553C200.161 130.97 201.04 131.981 202.54 131.572C202.632 131.547 202.672 131.46 202.634 131.39C202.443 131.033 201.775 130.122 199.982 130.356C199.875 130.36 199.815 130.469 199.875 130.553Z" fill="#6B7F99"/>
<path d="M201.623 129.257C201.435 128.8 201.092 127.579 202.417 126.848C202.494 126.802 202.602 126.827 202.648 126.904C202.846 127.253 203.232 128.281 201.875 129.32C201.792 129.38 201.655 129.349 201.623 129.257Z" fill="#6B7F99"/>
<path d="M198.798 128.365C199.049 128.799 199.837 129.862 201.37 129.552C201.462 129.534 201.516 129.447 201.485 129.376C201.329 129.011 200.745 128.055 198.927 128.175C198.82 128.179 198.752 128.281 198.798 128.365Z" fill="#6B7F99"/>
<path d="M200.696 127.236C200.53 126.779 200.237 125.548 201.591 124.838C201.668 124.799 201.776 124.824 201.814 124.894C201.998 125.251 202.342 126.28 200.941 127.292C200.865 127.359 200.735 127.328 200.696 127.236Z" fill="#6B7F99"/>
<path d="M197.91 126.292C198.147 126.733 198.885 127.805 200.433 127.522C200.525 127.505 200.58 127.425 200.556 127.347C200.414 126.974 199.865 126.016 198.053 126.101C197.939 126.105 197.864 126.208 197.91 126.292Z" fill="#6B7F99"/>
<path d="M200.05 125.141C199.898 124.676 199.654 123.443 201.03 122.732C201.114 122.686 201.215 122.719 201.253 122.788C201.423 123.146 201.731 124.177 200.295 125.197C200.211 125.264 200.082 125.233 200.05 125.141Z" fill="#6B7F99"/>
<path d="M197.309 124.204C197.524 124.645 198.227 125.719 199.775 125.429C199.867 125.412 199.928 125.331 199.897 125.254C199.77 124.881 199.264 123.921 197.452 124.006C197.345 124.01 197.27 124.112 197.309 124.204Z" fill="#6B7F99"/>
<path d="M199.232 121.163C199.587 121.521 200.381 122.548 199.427 123.666C199.372 123.732 199.258 123.743 199.192 123.688C198.869 123.429 198.104 122.607 198.976 121.193C199.022 121.106 199.158 121.087 199.232 121.163Z" fill="#6B7F99"/>
<path d="M256 276H160V290H256V276Z" fill="#6B7F99"/>
<path d="M566 276H256V290H566V276Z" fill="#EAF0F3"/>
<path d="M106 136V200C106 200.552 106.448 201 107 201H121C121.552 201 122 200.552 122 200V136C122 135.448 121.552 135 121 135H107C106.448 135 106 135.448 106 136Z" fill="#FDB850"/>
<path d="M110 156V196C110 196.552 110.448 197 111 197H117C117.552 197 118 196.552 118 196V156C118 155.448 117.552 155 117 155H111C110.448 155 110 155.448 110 156Z" fill="#F6E9C8"/>
<path d="M110 140V150C110 150.552 110.448 151 111 151H117C117.552 151 118 150.552 118 150V140C118 139.448 117.552 139 117 139H111C110.448 139 110 139.448 110 140Z" fill="#F6E9C8"/>
<path d="M122.044 137.467L124.77 201.409C124.793 201.961 125.26 202.389 125.812 202.365L134.803 201.982C135.355 201.958 135.783 201.492 135.76 200.94L133.034 136.998C133.01 136.447 132.544 136.018 131.992 136.042L123 136.425C122.448 136.449 122.02 136.915 122.044 137.467Z" fill="#2493DF"/>
<path d="M124.253 142.378L124.338 144.376C124.362 144.928 124.828 145.356 125.38 145.332L130.375 145.119C130.927 145.096 131.355 144.629 131.332 144.078L131.247 142.08C131.223 141.528 130.757 141.1 130.205 141.123L125.21 141.336C124.658 141.36 124.23 141.826 124.253 142.378Z" fill="#D3E9F9"/>
<path d="M124.894 157.364L124.979 159.362C125.002 159.914 125.469 160.342 126.021 160.318L131.016 160.105C131.568 160.082 131.996 159.615 131.973 159.064L131.887 157.065C131.864 156.514 131.397 156.085 130.846 156.109L125.85 156.322C125.298 156.346 124.87 156.812 124.894 157.364Z" fill="#D3E9F9"/>
<path d="M125.277 166.356L126.555 196.329C126.579 196.881 127.045 197.309 127.597 197.285L132.592 197.072C133.144 197.049 133.572 196.582 133.549 196.031L132.271 166.058C132.247 165.506 131.781 165.078 131.229 165.101L126.234 165.314C125.682 165.338 125.254 165.804 125.277 166.356Z" fill="#D3E9F9"/>
<path d="M130.612 150.614C130.553 149.235 129.387 148.164 128.007 148.223C126.628 148.282 125.557 149.448 125.616 150.827C125.675 152.207 126.841 153.278 128.22 153.219C129.6 153.16 130.67 151.994 130.612 150.614Z" fill="#D3E9F9"/>
<path d="M94 136V200C94 200.552 94.4477 201 95 201H104C104.552 201 105 200.552 105 200V136C105 135.448 104.552 135 104 135H95C94.4477 135 94 135.448 94 136Z" fill="#40BF9C"/>
<path d="M96 151V196C96 196.552 96.4477 197 97 197H102C102.552 197 103 196.552 103 196V151C103 150.448 102.552 150 102 150H97C96.4477 150 96 150.448 96 151Z" fill="#BDE8E0"/>
<path d="M103 142.5C103 140.567 101.433 139 99.5 139C97.567 139 96 140.567 96 142.5C96 144.433 97.567 146 99.5 146C101.433 146 103 144.433 103 142.5Z" fill="#BDE8E0"/>
<path d="M210 201H86V208H210V201Z" fill="#6B7F99"/>
<path d="M149 167C149 165.895 149.895 165 151 165H197C198.105 165 199 165.895 199 167V201H149V167Z" fill="white"/>
<path d="M167.042 162.434H165.642C165.2 162.434 164.842 162.792 164.842 163.234V166.634C164.842 167.076 165.2 167.434 165.642 167.434H167.042C167.484 167.434 167.842 167.076 167.842 166.634V163.234C167.842 162.792 167.484 162.434 167.042 162.434Z" fill="#FDB850"/>
<path d="M157.2 163H155.8C155.358 163 155 163.358 155 163.8V167.2C155 167.642 155.358 168 155.8 168H157.2C157.642 168 158 167.642 158 167.2V163.8C158 163.358 157.642 163 157.2 163Z" fill="#FDB850"/>
<path d="M162.2 163H160.8C160.358 163 160 163.358 160 163.8V167.2C160 167.642 160.358 168 160.8 168H162.2C162.642 168 163 167.642 163 167.2V163.8C163 163.358 162.642 163 162.2 163Z" fill="#FDB850"/>
<path d="M172.2 163H170.8C170.358 163 170 163.358 170 163.8V167.2C170 167.642 170.358 168 170.8 168H172.2C172.642 168 173 167.642 173 167.2V163.8C173 163.358 172.642 163 172.2 163Z" fill="#FDB850"/>
<path d="M177.2 163H175.8C175.358 163 175 163.358 175 163.8V167.2C175 167.642 175.358 168 175.8 168H177.2C177.642 168 178 167.642 178 167.2V163.8C178 163.358 177.642 163 177.2 163Z" fill="#FDB850"/>
<path d="M182.2 163H180.8C180.358 163 180 163.358 180 163.8V167.2C180 167.642 180.358 168 180.8 168H182.2C182.642 168 183 167.642 183 167.2V163.8C183 163.358 182.642 163 182.2 163Z" fill="#FDB850"/>
<path d="M187.2 163H185.8C185.358 163 185 163.358 185 163.8V167.2C185 167.642 185.358 168 185.8 168H187.2C187.642 168 188 167.642 188 167.2V163.8C188 163.358 187.642 163 187.2 163Z" fill="#FDB850"/>
<path d="M192.2 163H190.8C190.358 163 190 163.358 190 163.8V167.2C190 167.642 190.358 168 190.8 168H192.2C192.642 168 193 167.642 193 167.2V163.8C193 163.358 192.642 163 192.2 163Z" fill="#FDB850"/>
<path d="M158.2 172H154.8C154.358 172 154 172.358 154 172.8V176.2C154 176.642 154.358 177 154.8 177H158.2C158.642 177 159 176.642 159 176.2V172.8C159 172.358 158.642 172 158.2 172Z" fill="#F6E9C8"/>
<path d="M165.2 172H161.8C161.358 172 161 172.358 161 172.8V176.2C161 176.642 161.358 177 161.8 177H165.2C165.642 177 166 176.642 166 176.2V172.8C166 172.358 165.642 172 165.2 172Z" fill="#F6E9C8"/>
<path d="M172.2 172H168.8C168.358 172 168 172.358 168 172.8V176.2C168 176.642 168.358 177 168.8 177H172.2C172.642 177 173 176.642 173 176.2V172.8C173 172.358 172.642 172 172.2 172Z" fill="#F6E9C8"/>
<path d="M179.2 172H175.8C175.358 172 175 172.358 175 172.8V176.2C175 176.642 175.358 177 175.8 177H179.2C179.642 177 180 176.642 180 176.2V172.8C180 172.358 179.642 172 179.2 172Z" fill="#F6E9C8"/>
<path d="M186.2 172H182.8C182.358 172 182 172.358 182 172.8V176.2C182 176.642 182.358 177 182.8 177H186.2C186.642 177 187 176.642 187 176.2V172.8C187 172.358 186.642 172 186.2 172Z" fill="#F6E9C8"/>
<path d="M193.2 172H189.8C189.358 172 189 172.358 189 172.8V176.2C189 176.642 189.358 177 189.8 177H193.2C193.642 177 194 176.642 194 176.2V172.8C194 172.358 193.642 172 193.2 172Z" fill="#F6E9C8"/>
<path d="M158.2 179H154.8C154.358 179 154 179.358 154 179.8V183.2C154 183.642 154.358 184 154.8 184H158.2C158.642 184 159 183.642 159 183.2V179.8C159 179.358 158.642 179 158.2 179Z" fill="#F6E9C8"/>
<path d="M165.2 179H161.8C161.358 179 161 179.358 161 179.8V183.2C161 183.642 161.358 184 161.8 184H165.2C165.642 184 166 183.642 166 183.2V179.8C166 179.358 165.642 179 165.2 179Z" fill="#F6E9C8"/>
<path d="M172.2 179H168.8C168.358 179 168 179.358 168 179.8V183.2C168 183.642 168.358 184 168.8 184H172.2C172.642 184 173 183.642 173 183.2V179.8C173 179.358 172.642 179 172.2 179Z" fill="#F6E9C8"/>
<path d="M179.2 179H175.8C175.358 179 175 179.358 175 179.8V183.2C175 183.642 175.358 184 175.8 184H179.2C179.642 184 180 183.642 180 183.2V179.8C180 179.358 179.642 179 179.2 179Z" fill="#F6E9C8"/>
<path d="M186.2 179H182.8C182.358 179 182 179.358 182 179.8V183.2C182 183.642 182.358 184 182.8 184H186.2C186.642 184 187 183.642 187 183.2V179.8C187 179.358 186.642 179 186.2 179Z" fill="#F6E9C8"/>
<path d="M193.2 179H189.8C189.358 179 189 179.358 189 179.8V183.2C189 183.642 189.358 184 189.8 184H193.2C193.642 184 194 183.642 194 183.2V179.8C194 179.358 193.642 179 193.2 179Z" fill="#F6E9C8"/>
<path d="M158.2 186H154.8C154.358 186 154 186.358 154 186.8V190.2C154 190.642 154.358 191 154.8 191H158.2C158.642 191 159 190.642 159 190.2V186.8C159 186.358 158.642 186 158.2 186Z" fill="#F6E9C8"/>
<path d="M165.2 186H161.8C161.358 186 161 186.358 161 186.8V190.2C161 190.642 161.358 191 161.8 191H165.2C165.642 191 166 190.642 166 190.2V186.8C166 186.358 165.642 186 165.2 186Z" fill="#F6E9C8"/>
<path d="M172.2 186H168.8C168.358 186 168 186.358 168 186.8V190.2C168 190.642 168.358 191 168.8 191H172.2C172.642 191 173 190.642 173 190.2V186.8C173 186.358 172.642 186 172.2 186Z" fill="#F6E9C8"/>
<path d="M179.2 186H175.8C175.358 186 175 186.358 175 186.8V190.2C175 190.642 175.358 191 175.8 191H179.2C179.642 191 180 190.642 180 190.2V186.8C180 186.358 179.642 186 179.2 186Z" fill="#F6E9C8"/>
<path d="M186.2 186H182.8C182.358 186 182 186.358 182 186.8V190.2C182 190.642 182.358 191 182.8 191H186.2C186.642 191 187 190.642 187 190.2V186.8C187 186.358 186.642 186 186.2 186Z" fill="#F35843"/>
<path d="M193.2 186H189.8C189.358 186 189 186.358 189 186.8V190.2C189 190.642 189.358 191 189.8 191H193.2C193.642 191 194 190.642 194 190.2V186.8C194 186.358 193.642 186 193.2 186Z" fill="#F6E9C8"/>
<path d="M158.2 193H154.8C154.358 193 154 193.358 154 193.8V197.2C154 197.642 154.358 198 154.8 198H158.2C158.642 198 159 197.642 159 197.2V193.8C159 193.358 158.642 193 158.2 193Z" fill="#F6E9C8"/>
<path d="M165.2 193H161.8C161.358 193 161 193.358 161 193.8V197.2C161 197.642 161.358 198 161.8 198H165.2C165.642 198 166 197.642 166 197.2V193.8C166 193.358 165.642 193 165.2 193Z" fill="#F6E9C8"/>
<path d="M172.2 193H168.8C168.358 193 168 193.358 168 193.8V197.2C168 197.642 168.358 198 168.8 198H172.2C172.642 198 173 197.642 173 197.2V193.8C173 193.358 172.642 193 172.2 193Z" fill="#F6E9C8"/>
<path d="M179.2 193H175.8C175.358 193 175 193.358 175 193.8V197.2C175 197.642 175.358 198 175.8 198H179.2C179.642 198 180 197.642 180 197.2V193.8C180 193.358 179.642 193 179.2 193Z" fill="#F6E9C8"/>
<path d="M186.2 193H182.8C182.358 193 182 193.358 182 193.8V197.2C182 197.642 182.358 198 182.8 198H186.2C186.642 198 187 197.642 187 197.2V193.8C187 193.358 186.642 193 186.2 193Z" fill="#F6E9C8"/>
<path d="M193.2 193H189.8C189.358 193 189 193.358 189 193.8V197.2C189 197.642 189.358 198 189.8 198H193.2C193.642 198 194 197.642 194 197.2V193.8C194 193.358 193.642 193 193.2 193Z" fill="#F35843"/>
<path d="M515 246C515 245.448 515.448 245 516 245H538C538.552 245 539 245.448 539 246V274C539 275.105 538.105 276 537 276H517C515.895 276 515 275.105 515 274V246Z" fill="#FDB850"/>
<path d="M538 268H544C545.105 268 546 267.105 546 266V258C546 256.895 545.105 256 544 256H538" stroke="#FDB850" stroke-width="4"/>
<path d="M523 258.333L519.32 261.137C519.168 261.252 519.184 261.486 519.349 261.58L523 263.666" stroke="#F6E9C8" stroke-width="2"/>
<path d="M531 263.667L534.68 260.863C534.832 260.748 534.816 260.514 534.651 260.42L531 258.334" stroke="#F6E9C8" stroke-width="2"/>
<path d="M528.334 257L525.668 265" stroke="#F6E9C8" stroke-width="2"/>
<path d="M219.051 119.69C220.336 119.69 221.488 120.254 222.276 121.149C222.542 121.451 223.038 121.243 222.998 120.842C222.972 120.581 222.922 120.315 222.847 120.047C222.45 118.632 221.317 117.526 219.895 117.154C217.035 116.407 214.463 118.544 214.463 121.282C214.463 121.46 214.474 121.635 214.496 121.807C214.544 122.203 215.078 122.304 215.267 121.953C215.991 120.606 217.414 119.69 219.051 119.69Z" fill="white"/>
<path d="M213.69 120.949C213.69 119.664 214.255 118.512 215.149 117.724C215.451 117.458 215.243 116.962 214.842 117.002C214.581 117.028 214.316 117.078 214.048 117.153C212.632 117.55 211.526 118.683 211.155 120.105C210.407 122.965 212.545 125.537 215.283 125.537C215.46 125.537 215.635 125.526 215.807 125.504C216.203 125.456 216.305 124.922 215.953 124.733C214.606 124.009 213.69 122.586 213.69 120.949Z" fill="white"/>
<path d="M214.949 126.31C213.664 126.31 212.512 125.746 211.724 124.851C211.458 124.549 210.962 124.757 211.002 125.158C211.028 125.419 211.078 125.685 211.153 125.953C211.55 127.368 212.683 128.474 214.105 128.846C216.965 129.593 219.537 127.456 219.537 124.718C219.537 124.54 219.526 124.365 219.504 124.193C219.456 123.797 218.922 123.696 218.733 124.047C218.009 125.394 216.586 126.31 214.949 126.31Z" fill="white"/>
<path d="M220.31 125.051C220.31 126.336 219.746 127.488 218.851 128.276C218.549 128.542 218.757 129.038 219.158 128.998C219.419 128.972 219.685 128.922 219.953 128.847C221.368 128.45 222.474 127.317 222.846 125.895C223.593 123.035 221.456 120.463 218.718 120.463C218.54 120.463 218.365 120.474 218.193 120.496C217.797 120.544 217.696 121.078 218.047 121.267C219.394 121.991 220.31 123.414 220.31 125.051Z" fill="white"/>
</g>
</svg>
