<svg width="736" height="344" viewBox="0 0 736 344" fill="none" xmlns="http://www.w3.org/2000/svg">
<path opacity="0.3" d="M157.5 175.52C144.408 220.364 131.5 291.019 295.5 291.019C387 291.019 605.017 345.019 605.017 203.775C605.016 -18.1694 501.026 42.3029 398 91.5192C354.453 112.322 329.969 137.151 283 128.019C192.999 110.519 168.675 137.242 157.5 175.52Z" fill="#2493DF"/>
<rect x="448" y="95.0195" width="120" height="76" fill="#F9F9FA"/>
<path d="M557.286 110.187L536.902 109.118L535.984 127.064L556.368 128.133L557.286 110.187Z" fill="#2493DF"/>
<path d="M481.933 113.187L461.549 112.118L460.631 130.064L481.015 131.133L481.933 113.187Z" fill="#40BF9C"/>
<path d="M517.933 109.187L497.548 108.118L496.63 126.064L517.015 127.133L517.933 109.187Z" fill="#FDB850"/>
<path d="M561.301 134.089L540.917 133.02L539.999 150.965L560.383 152.034L561.301 134.089Z" fill="#2493DF"/>
<path d="M482.932 142.187L462.548 141.118L461.63 159.064L482.014 160.133L482.932 142.187Z" fill="#40BF9C"/>
<path d="M355.5 166.02C342.5 163.52 336.5 249.52 336.5 249.52L286 268L288.5 272.52L349.5 267.52L399.075 244.596L382.621 203.879C382.621 203.879 368.5 168.52 355.5 166.02Z" fill="#40BF9C"/>
<path d="M352.5 166.52C348.453 169.559 347.5 182.02 347.5 182.02L338.473 281.557C338.473 281.557 402.533 295.038 437.34 279.495C437.34 279.495 437.31 193.648 417.5 170.52C417.5 170.52 409.765 160.573 378 160.52C368.5 161.52 361 160.52 352.5 166.52Z" fill="#2493DF"/>
<path d="M387 280H483V294H387V280Z" fill="#6B7F99"/>
<path d="M97 280H387V294H97V280Z" fill="#EAF0F3"/>
<line x1="488.5" y1="110" x2="488.5" y2="160" stroke="#BEDFF6"/>
<line x1="528.5" y1="110" x2="528.5" y2="160" stroke="#BEDFF6"/>
<path d="M343.903 90.375C343.903 90.375 346.072 100.684 343.903 106.975C341.734 113.266 334.858 116.226 337.952 132.641C341.047 149.055 337.741 149.452 337 154.078C337 154.078 402.964 160.289 435.999 143.346C435.999 143.346 430.419 133.777 424.229 123.125C418.04 112.499 415.713 95.0271 415.713 95.0271L390.427 85.3528L343.903 90.375Z" fill="#2D3846"/>
<path d="M359.561 78.19C358.794 77.9521 361.73 73.6172 362.497 73.3793C374.24 69.6258 399.314 64.6829 412.062 85.2739C421.425 100.42 412.036 128.914 392.331 137.531C373.579 145.752 376.753 83.5823 376.753 83.5823L359.561 78.19Z" fill="#2D3846"/>
<path d="M364.348 116.755C364.956 121.857 361.333 126.483 356.228 127.117C351.124 127.725 346.495 124.104 345.86 119.002C345.252 113.901 348.875 109.275 353.98 108.667C359.111 108.033 363.74 111.654 364.348 116.755Z" fill="#FFB1A7"/>
<path d="M367.548 141.629L369.849 161.77C370.643 168.854 375.43 172.132 382.386 171.313C388.337 170.599 394 163.5 393.574 160.872C393.149 158.243 388.417 129.338 388.417 129.338L367.548 141.629Z" fill="#FFC9BD"/>
<path d="M368.976 154.078C383.127 152.862 390.4 132.641 390.4 132.641L367.284 139.567L368.976 154.078Z" fill="#FFB1A7"/>
<path d="M373.87 144.589C361.915 145.223 351.573 136.315 350.727 126.588L348.875 103.618C347.817 91.4327 356.625 80.5689 368.792 79.1151C381.249 77.6084 394.738 86.2255 396.246 98.6752L397.542 117.178C398.521 131.452 389.184 143.399 373.87 144.589Z" fill="#FFC9BD"/>
<path d="M386.487 95.7147C380.826 104.173 390.084 116.2 390.084 116.2L407.593 95.0539C407.567 95.0539 389.846 90.6925 386.487 95.7147Z" fill="#2D3846"/>
<path d="M408.545 113.953C409.154 119.055 405.53 123.68 400.425 124.288C395.321 124.896 390.692 121.275 390.084 116.173C389.475 111.072 393.099 106.446 398.204 105.812C403.308 105.23 407.937 108.852 408.545 113.953Z" fill="#FFC9BD"/>
<path d="M396.405 118.209C396.405 118.209 395.611 111.522 402.144 111.786" stroke="#2D3846" stroke-width="0.5621" stroke-miterlimit="10" stroke-linecap="round" stroke-linejoin="round"/>
<path d="M362.074 123.1L361.916 125.822L364.614 125.849" stroke="#2D3846" stroke-width="0.5621" stroke-miterlimit="10" stroke-linecap="round" stroke-linejoin="round"/>
<path d="M375.537 106.341C375.537 106.341 370.353 106.13 370.379 107.795C370.379 107.795 370.432 108.932 374.955 109.037C379.478 109.143 380.642 108.852 380.986 107.795C381.356 106.738 377.97 106.288 375.537 106.341Z" fill="#2D3846"/>
<path d="M354.88 107.029C354.88 107.029 359.138 106.579 359.535 108.139C359.535 108.139 359.773 109.196 356.07 109.513C352.341 109.857 351.124 109.513 350.727 108.668C350.278 107.69 352.843 107.108 354.88 107.029Z" fill="#2D3846"/>
<path d="M370.75 117.205C370.75 117.205 373.051 113.901 377.336 117.1" stroke="#2D3846" stroke-width="0.7051" stroke-miterlimit="10" stroke-linecap="round" stroke-linejoin="round"/>
<path d="M353.028 117.866C353.028 117.866 355.091 114.588 357.948 117.654" stroke="#2D3846" stroke-width="0.7051" stroke-miterlimit="10" stroke-linecap="round" stroke-linejoin="round"/>
<path d="M366.385 130.712C366.385 130.712 369.929 131.558 372.786 127.99" stroke="#2D3846" stroke-width="0.7051" stroke-miterlimit="10" stroke-linecap="round" stroke-linejoin="round"/>
<path d="M262.827 271.641C262.942 271.56 263.055 271.477 263.167 271.393C264.214 270.615 270.011 266.52 276 266.52C282.618 266.52 287 268.5 287 268.5L291 276.02L263.89 275.198C262.009 275.141 261.285 272.72 262.827 271.641V271.641Z" fill="#FFB1A7"/>
<path d="M370.5 163C369.846 162 370 161 370 161C370 161 369.512 160.907 369 161C368.614 161.07 368 161 368 161.5C368 162 368.5 163.5 369 165L369 165C369.965 167.894 372.805 169.909 375.654 171C378.213 171.981 379.782 171.855 382.5 171.5C385.378 171.124 387.673 170.235 390 168.5C391.664 167.26 392.094 166.285 393.154 164.5C393.913 163.222 394.531 161.766 394 161.5C393.469 161.235 393 161.5 393 161.5C393 161.5 392.346 162 392 163C391.367 164.827 390.114 165.937 388.5 167C386.437 168.359 384.45 169.191 382 169.5C379.474 169.819 377.982 170.029 375.654 169C373.128 167.884 372.011 165.312 370.5 163Z" fill="#40BF9C"/>
<path d="M362.496 73.379C362.496 73.379 336.999 82.5776 342.262 92.1726C346.177 99.283 371.859 103.697 396.245 98.675C396.245 98.675 407.38 89.6351 393.6 80.278C393.574 80.278 386.195 69.837 362.496 73.379Z" fill="#2D3846"/>
<path d="M263.67 274.18C264.213 273.093 265.034 272.168 266.1 271.584C268.738 270.136 274.234 267.52 279.5 267.52C286.779 267.52 293.5 270.02 293.5 270.02L295 278.02L265.113 276.64C263.884 276.584 263.12 275.281 263.67 274.18V274.18Z" fill="#FFC9BD"/>
<path d="M392 195.5L382 253.5L291.5 267.5L293.5 278L377 280H386C386 280 414.885 284.276 422 198C422 198 421 179.448 412.5 179C396.5 178.158 392 195.5 392 195.5Z" fill="#62C3A9"/>
<path d="M307.473 280H245V271H307.474C309.418 271 311 273.295 311 275.5C311 277.705 309.417 280 307.473 280Z" fill="#2D3846"/>
<path d="M249.5 280L148.5 280C142.925 280 138.357 276.031 136.851 270.671L116.161 196.414C115.395 193.694 117.456 191 120.283 191H226.375C228.7 191 230.708 192.558 231.316 194.803L249.5 280Z" fill="#2D3846"/>
<path d="M188.615 237.081C188.615 242.125 184.52 246.218 179.473 246.218C174.426 246.218 170.33 242.125 170.33 237.081C170.33 232.037 174.426 227.944 179.473 227.944C184.52 227.918 188.615 232.037 188.615 237.081Z" fill="white"/>
<path d="M319.19 240.141L324.073 276.877C324.262 278.461 325.305 279.817 326.917 279.817H342.236C343.901 279.817 344.931 278.515 345.066 276.877L349.123 239.041L319.19 240.141Z" fill="#FDB850"/>
<path d="M323.057 234.267L343.604 232.012C344.484 231.918 345.31 232.414 345.635 233.233L346.258 234.831L323.057 234.267Z" fill="#1D2D32"/>
<path d="M324.073 276.877L323.707 279.119C323.626 279.576 324.073 279.965 324.642 279.965H344.281C344.999 279.965 345.554 279.455 345.445 278.891L345.08 276.877H324.073Z" fill="#2D3846"/>
<path d="M345.066 276.837H324.073V276.917H345.066V276.837Z" fill="#C16752"/>
<path d="M317.68 235.945L317.016 239.838C316.894 240.576 317.477 241.248 318.222 241.221L350.118 240.281C350.917 240.254 351.486 239.516 351.297 238.751L350.538 235.69C350.403 235.153 349.915 234.763 349.36 234.75L320.009 234.038C318.858 234.012 317.869 234.817 317.68 235.945Z" fill="#2D3846"/>
<path d="M320.415 257.184C320.234 255.975 321.17 254.888 322.393 254.888H345.977C347.18 254.888 348.111 255.942 347.961 257.136L347.142 263.692H321.391L320.415 257.184Z" fill="#2D3846"/>
<circle cx="334.156" cy="259.29" r="3.0813" fill="#1D2D32"/>
</svg>
